<?xml version="1.0" encoding="UTF-8"?>
<svg version="1.1" viewBox="0 0 1024 1024" width="1024" height="1024" xmlns="http://www.w3.org/2000/svg">
<path transform="translate(0)" d="m0 0h1024v1024h-1024z" fill="#050505"/>
<path transform="translate(505,253)" d="m0 0h12l16 3 12 5 10 7 10 10 8 14 4 13v27l5 3 7-1 2-9v-22l-1-8 3-1h15l15 4 12 7 9 8 4 6-1 5-8 14-10 15-14 19-13 15-9 10-11 12-9 9-8 7-16 15-11 9-14 11-14 10-15 10-23 13-23 11-24 9-5-5-4-9-1-9 10-9 7-11 4-13v-16l-3-10-7-10-7-6-9-4-4-1h-14l-10 4-8 6-6 9-1 3v7l3 3h6l7-10 5-5 8-3 10 1 8 5 6 8 2 8v7l-3 10-6 9-7 6-8 4-7 2h-20l-13-4-11-6-9-8-9-13-5-13-2-13v-8l3-15 7-14 9-10 7-6 11-5 6-2 14-1 12 3 10 6 3 2 7-1 2-3v-6l-5-5-14-7-14-3h-15v-9l4-13 5-10 9-10 7-6 16-8 9-2h17l13 4 10 6 9 8 6 10 4 5h6l4-4-1-8-7-11-6-7-11-8-5-3 2-6 10-11 14-9 13-5z" fill="#0DC9F7"/>
<path transform="translate(415,294)" d="m0 0h17l13 4 10 6 9 8 6 10 4 5h6l6-5-2 7-5 4-7-1-5-5-4-6-6-7-9-6-6-1v20l1 23 1 10 2 1-6 7-1 3v10l4 2h2l6 16 4 11 3 11 8 16 12 20 7 9h7l7-1 4 4v2l4 1-17 11-22 12-19 9-24 9-5-5-4-9-1-9 10-9 7-11 4-13v-16l-3-10-7-10-7-6-9-4-4-1h-14l-10 4-8 6-6 9-1 3v7l3 3h6l7-10 5-5 8-3 10 1 8 5 6 8 2 8v7l-3 10-6 9-7 6-8 4-7 2h-20l-13-4-11-6-9-8-9-13-5-13-2-13v-8l3-15 7-14 9-10 7-6 11-5 6-2 14-1 12 3 10 6 3 2 7-1 2-3v-6l-5-5-14-7-14-3h-15v-9l4-13 5-10 9-10 7-6 16-8z" fill="#866AEB"/>
<path transform="translate(579,437)" d="m0 0h12l8 4 6 7 2 5v13l-5 10-6 7-8 7-13 11-17 13-18 13-21 13-24 13-19 9-26 10-28 8-21 4-17 2h-33l-18-3-16-5-11-6-12-11-6-10-4-12v-25l4-16 9-21 9-16 3-4h2l6 10-1 7-4 11-2 9v17l4 11 6 8 11 7 14 4 7 1h22l25-4 25-7 24-9 24-11 24-13 22-14 19-14 13-11 10-9 12-10z" fill="#E74CDD"/>
<path transform="translate(652,205)" d="m0 0h19l17 3 12 5 9 6 8 8 7 14 3 11v28l-4 20-5 16-6 16-12 25-12 20-11 16-12 16-9 11-11 13-11 12-8 9-2-3-3-12-8-11-7-5-10-4 6-7 9-10 13-15 15-20 12-18 10-17 8-16 6-14 6-20 2-11v-15l-3-12-5-8-7-6-9-4-10-2h-18l-17 3-17 4-2 9-7 8-10 2-7-2-5-4-3-5-1-10 3-7 7-6 2-1h11l5 3 8-1 23-7 21-4z" fill="#0CC9F8"/>
<path transform="translate(506,193)" d="m0 0h15l15 1 8 3 5 6 1 3v8l-4 7-8 4-30-1-24 2-26 5-24 8-27 13-15 10-13 10-12 11-12 12-13 17-11 17-13 27-8 25-4 20-2 17-1 19-7 9-11 18-6 10-2-3-3-24v-31l3-24 5-23 7-21 11-25 11-19 12-17 9-11 12-13 9-9 11-9 15-11 18-11 25-12 22-8 25-6 21-3z" fill="#089EF6"/>
<path transform="translate(690,402)" d="m0 0 3 3 5 10 3 11 1 7v10l-3 14-5 12-9 12-9 8-16 8-13 3h-13l-5-1h-9l-3 5 1 5 4 3 16 3 15-1 15-4v7l-4 13-6 11-11 12-11 7-12 5-11 2h-11l-15-3-16-8-10-9-7-8 2-4 11-8 13-10 16-13 11-10 8-7 34-34 7-8 13-15 13-17z" fill="#953DD7"/>
<path transform="translate(728,336)" d="m0 0h2l9 23 7 27 3 18 1 10v36l-3 22-5 21-7 20-12 25-11 17-10 13-11 12-7 8-8 7-13 11-9 6-3 1h-8l-7-4-4-8 1-9 6-7 11-8 14-12 13-14 13-18 9-16 9-19 6-19 4-20 2-21v-11l-2-24-5-24-2-9 13-25z" fill="#BF45DF"/>
<path transform="translate(372,366)" d="m0 0 13 1 12 5 7 5 7-1 4-5-1 7-4 3-6 1 1 1 2 10 4 16-5 1h-14l-10 4-8 6-6 9-1 3v7l3 3h6l7-10 5-5 8-3 10 1 8 5 6 8 2 8v7l-3 10-6 9-7 6-8 4-7 2h-20l-13-4-11-6-9-8-9-13-5-13-2-13v-8l3-15 7-14 9-10 7-6 11-5 6-2z" fill="#E61DDD"/>
<path transform="translate(505,253)" d="m0 0h12l16 3 12 5 10 7 10 10 8 14 4 13v27l5 3 7-1 2-9v-22l-1-8 3-1h15l15 4 12 7 9 8 4 6-1 5-8 14-10 15-13 18-2-3-3-5-2-1-2 4-8 12-13 15h-1l-2-8-2-6-3-1-1 4-5 3-1-2 3-2v-10l-4-8-8-5-3-2 3-1 4 2 1-9-3-5-5-20-2-21v-4l-2 1h-7l-10-10-9-5-8-3-6-1h-19l-3-3 1-6 5-3 6-1h13l9 2 10 4 9 6 11 11 1-7-10-9-12-7-9-3-5-1h-22l-16 5-11 6-4-1v-2l-5 3-3 3-2-1 7-7 14-9 13-5z" fill="#97EBF5"/>
<path transform="translate(442,307)" d="m0 0h6l11 8 7 8-1 2-5-4-1 25 1 8 6 2 10 7 4 8v10l-5 3-5-2-2-3-1 5 4 8 8 7v2l5 1 8 6 8 3h14l9-4 6-5h6l3 2v7l-4 5-10 6-9 3h-17l-11-4-8-6 6 7 10 5 3 1 19 1 2 4 4 2 4 4v2l12-3 1-3 3-1 5-5 8-7h2l1-3h2l1-3 8-7 5-3 5-1 4-2 3 1-14 14-8 7-16 15-11 9-14 11-14 10-7 1-4-5-14 1-8-10-9-15-7-12-5-11-3-12-8-22v-2l-3 1-4-3v-10l3-6 4-4-2-3-1-8-1-24z" fill="#079FF6"/>
<path transform="translate(309,457)" d="m0 0h2l6 10-1 7-4 11-2 9v17l4 11 6 8 11 7 9 3v1h-6l-11-5h-3l1-3h-2v-2l-4 1-5-5-5-7-4-2-2 1v7l3 10 7 11 11 8 8 4 11 4 11 2h35l24-4 30-9 25-10 21-10 13-7h8l6-2 16-1 3 2-21 13-27 14-25 11-28 9-28 7-1 3 13-2 12-1-4 2-21 4-17 2h-33l-18-3-16-5-11-6-12-11-6-10-4-12v-25l4-16 9-21 9-16z" fill="#8E22CE"/>
<path transform="translate(352,724)" d="m0 0h12l9 3 9 7 6 10 3 12v11l-3 12-6 10-9 7-8 3h-13l-8-3-6-5-1 38-3 2h-17l-3-3v-102l1-1h21l2 7 8-6z" fill="#F8F4FB"/>
<path transform="translate(575,724)" d="m0 0h11l9 3 9 8 8-6 8-4 4-1h10l9 3 6 4 6 7 3 10v49l-1 1h-20l-1-1-1-41-2-7-5-4-2-1-9 1-5 4-2 5-1 43-1 1h-20l-1-1-1-42-4-8-3-2h-11l-4 2-3 6-1 44-1 1h-20l-2-2v-70l1-1h21l2 6 10-6z" fill="#FCF9FC"/>
<path transform="translate(782,706)" d="m0 0h24l4 6 26 70 4 10v5l-1 1h-22l-5-13v-3h-36l-2 9-3 7h-22l-1-4 19-52 13-34z" fill="#FCF8FC"/>
<path transform="translate(540,546)" d="m0 0 4 5 10 11 16 11 11 5 13 4 7 16 8 24v13l-4 8-6 5-9 3-9-1-7-4-6-7-8-21-9-16-9-12-13-13-11-7-9-5 3-3 23-13z" fill="#7A3DDC"/>
<path transform="translate(489,265)" d="m0 0 4 1-2 1-2 11 3 14v22l8 33 4 10 3 10 9 17 3 6 7 9v2h3l-2 4-7 5-6 2h-14l-10-4-7-6-4-1-5-6-5-4-3-9 2-4 3 4 5 1 3-2v-10l-4-8-10-7-6-2-1-16 1-15 1-2 4 2 8 8 7 1 5-5 1-5-4-11-10-13-12-9-5-3 2-6 10-9h3l1 2 5-1z" fill="#00B9FA"/>
<path transform="translate(506,193)" d="m0 0h15l15 1 8 3 5 6 1 3v8l-4 7-8 4-30-1-24 2-13 2-1-2 4-2-2-6-25 6-20 7-23 11-15 9-12 9-11 9-5 3-3-1-3-7 6-8 13-11 16-11 17-10 17-8 25-9 14-4-7-1h-5l4-2 26-5z" fill="#92F3F6"/>
<path transform="translate(482,724)" d="m0 0h16l11 4 8 6 6 9 3 11v11l-1 2h-49l3 9 4 3 3 1h7l5-3 3-3h23l-1 5-5 8-9 8-11 4h-16l-11-4-9-7-6-9-3-10v-15l3-10 6-9 7-6 9-4z" fill="#FBF7FB"/>
<path transform="translate(699,724)" d="m0 0h15l11 4 8 6 6 8 3 9v15l-1 1h-49l4 10 6 3h7l6-3 2-3h23l-1 6-6 9-8 6-10 4h-16l-12-4-10-9-4-6-3-8-1-6v-9l3-12 6-10 9-7 7-3z" fill="#FBF7FB"/>
<path transform="translate(227,725)" d="m0 0h21l1 1 1 41 3 9 6 3h7l6-3 3-5 1-3 1-43h20l2 1v71l-1 1h-21l-1-7-9 6-6 2h-11l-9-3-8-7-5-10-1-4z" fill="#FCF9FC"/>
<path transform="translate(690,402)" d="m0 0 3 3 5 10 3 11 1 7v10l-3 14-5 12-9 12-9 8-16 8-13 3h-13l-5-1h-9l-3 5-1 3h-2v-8l4-5 2-1 22-1 14-3 10-5-7-2-19-1-5 2-12 2h-2l2-4 12-12 3-5 11-11 7-8 13-15 13-17z" fill="#876AEB"/>
<path transform="translate(301,517)" d="m0 0 5 2 4 7 3 3v2l4-1 2 1v2h2l1 4 1-2 11 5 18 2h27l6 1v4l25-5 21-6 24-9h5l3 1v2l5 2 3 5 2 2-26 11-24 8-14 4-24 4h-35l-13-3-14-5-13-9-8-11-3-7-1-5v-7z" fill="#E81DDD"/>
<path transform="translate(298,327)" d="m0 0h1v9l6 5 3 2-2 12-3 19v6l6-24 4-10 3 2v2l4 2-6 16-6 21-3 19-2 29-7 9-11 18-6 10-2-3-3-24v-31l3-24 5-23 7-21z" fill="#127EED"/>
<path transform="translate(175,724)" d="m0 0h16l11 4 7 6 4 7 1 7-1 1h-19l-4-6-9-2-6 1 1 7 11 4 14 4 9 6 3 4 1 3v12l-4 8-8 6-9 3h-17l-10-3-6-4-7-8-3-9 1-1h22l3 5 3 2h10l3-3-1-5-24-7-8-5-5-6-1-2v-12l5-8 7-6z" fill="#FAF6FB"/>
<path transform="translate(650,212)" d="m0 0h24l13 3 14 7 7 8 4 10 1 7v17l-2 14-6 20-9 21-14 26-10 15-4-2-3-2-6-1-1-3 12-22 9-19 8-25 2-10v-27l-3-10-6-10-5-5-10-6-9-3-6-1z" fill="#94F3F6"/>
<path transform="translate(426,304)" d="m0 0h14l6 2-4 1v20l1 23 1 10 2 1-6 7-1 3v10l4 2h2l6 16 4 11 3 11 8 16 12 20 7 9h7l7-1 4 4v2l4 1-17 11-4 2-4-1-8-7-6-3-10-16-6-11-8-17-12-34-4-21-2-20v-38l1-2v-6l-2-4z" fill="#5A82FA"/>
<path transform="translate(579,437)" d="m0 0h12l8 4 6 7 2 5v13l-3 6-1-2h-6l-1-10-9 1-9 7-10 9-19 14-4-2-7-7-6 2-16 11-25 15-17 9-22 10-27 10-15 4-20 4h-5v-4h-6l3-2 25-5 26-8 24-10 23-11 21-12 21-14 16-12 11-9 12-11 11-9z" fill="#F1B0D9"/>
<path transform="translate(652,351)" d="m0 0h2v2l3-1-2 5-10 15-8 11 15 5 14-19 5-8 3-2 8-2h7l1 4-8 13-13 19-20 25-13 15-4 5-4 3-6 1-4-8-6-7-9-5-7-3 6-7 9-10 13-15 15-20 9-13z" fill="#01B6FA"/>
<path transform="translate(731,518)" d="m0 0 1 2-12 23-8 12-10 13-11 12-7 8-8 7-13 11-9 6-3 1h-8l-7-4-4-8 1-9 6-7 11-8 14-12 13-14 5-4h5v2l2 1-11 12-1 3 19-19 13-18 5-8 1 3 11 2z" fill="#7B3DDC"/>
<path transform="translate(482,578)" d="m0 0h7l6 4 2 5-1 8-5 5-19 8-19 6-21 4-9 1h-35l-18-3-16-5-12-5-4-4 13 1h35l29-4 25-6 27-9z" fill="#DC1FDB"/>
<path transform="translate(728,336)" d="m0 0h2l9 23 7 27 3 18v14h-1l-2-15-3 1-1 23-3 25-5 22-6 18-5 11-1-2-4-1-1-5 5-17 4-23 1-9v-29l-3-20-4-1h-2l-3-9-4-17 13-25z" fill="#F2B3D8"/>
<path transform="translate(415,294)" d="m0 0h17l13 4 10 6 9 8 6 10 4 5h6l6-5-2 7-5 4-7-1-5-5-4-6-6-7-11-7-6-2h-14l1 2v7l-3 3-12 2-10 5-5 5 2 1 1 3 1 19v3l-4 1-10-3-7-1h-15v-9l4-13 5-10 9-10 7-6 16-8z" fill="#C047E0"/>
<path transform="translate(505,267)" d="m0 0h13l9 2 10 4 9 6 11 11 2-6 4 4 6 12 2 9v13l1 2 1 10 4 5 2 1 3 7 6 9 6 8 3 5 5 5-9 11-7 8h-1l-2-8-2-6-3-1-1 4-5 3-1-2 3-2v-10l-4-8-8-5-3-2 3-1 4 2 1-9-3-5-5-20-2-21v-4l-2 1h-7l-10-10-9-5-8-3-6-1h-19l-3-3 1-6 5-3z" fill="#15E5EF"/>
<path transform="translate(628,244)" d="m0 0 15 1 10 4 6 5 4 8 1 4v14l-4 15-3 4-2-4-4-2-9-7-14-7-11-3-7-1h-16l-9 1-5-7v-2l11-2 9-5 8-9 3-4z" fill="#FBE7A4"/>
<path transform="translate(442,724)" d="m0 0h5v23l-1 1-12 1-6 2-2 6-1 39-2 2h-20l-1-2v-70l1-1h21l1 1 1 8 9-8z" fill="#FBF7FB"/>
<path transform="translate(524,283)" d="m0 0 8 1 9 7 7 7h9l1 8 2 17 5 20 3 5v6l-2 3-5-1-12 1-5 2h-6l-2-6-4-14-3-11-4-25v-18z" fill="#04E2F5"/>
<path transform="translate(852,706)" d="m0 0h20l1 1v90l-1 1h-20l-1-1v-90z" fill="#FDFCFD"/>
<path transform="translate(652,205)" d="m0 0h19l17 3 12 5 9 6 8 8 7 14 3 11v28l-4 20-5 16-6 16-12 25-4 7-1-3 2-5h-2l-1-3 2-4 3 1 4-4 3-7-3-2 3-10 2-7-1-3-5-3-3 1 2-6 3-7 1-7 6-21 1-10v-17l-2-10-5-10-7-6-14-6-14-3-1-2 1-2-23-1v-1z" fill="#08D8F5"/>
<path transform="translate(593,294)" d="m0 0h15l15 4 12 7 9 8 4 6-1 5-8 14-10 15-9 12-1-2-1-6-4-2 3-9v-2l-5-5-2-5-2-12-3-6-4-1-3-8v-4l-7-1-1-7z" fill="#B2F1F6"/>
<path transform="translate(506,193)" d="m0 0h15l15 1 3 1 2 10v5l-4 4-2 1h-8l-6-1h-20l-25 3-13 1-16 4-4-1-6-4-1-4 21-7 5-2 1-1-7-1h-5l4-2 26-5z" fill="#B1F4F7"/>
<path transform="translate(635,467)" d="m0 0v3l-13 13 4 1 11-3 8-1 14 1 8 2-3 3-8 4-14 3-22 1-5 5-1 8h2l2 6 3 1 1 3-4 3-10 2-5 4-10 2-10 7-13 8-6 3-2 2-8-9 2-4 11-8 13-10 16-13 11-10 8-7z" fill="#7A3DDC"/>
<path transform="translate(442,307)" d="m0 0h6l11 8 7 8-1 2-5-4-1 25 1 8 6 2 10 7 4 8v10l-5 3-3-1-4-6v-2l-5-2h-8l-5 2-2 5-2 3-4 1-4-3v-10l3-6 4-4-2-3-1-8-1-24z" fill="#089FF6"/>
<path transform="translate(536,481)" d="m0 0 4 2 9 9-18 13-19 12-13 8-22 12-6 1-4-6-8-4-2-2 31-15 25-15 13-9z" fill="#EB4DDE"/>
<path transform="translate(588,593)" d="m0 0 4 1 6 2 3 6 3 4 5 16v13l-4 8-6 5-9 3-9-1-7-4-4-4 2-6 9-1 3-3-7-20-2-3v-6l8-6h4z" fill="#E74EDD"/>
<path transform="translate(621,390)" d="m0 0 2 3 1 5-5 6-7 1-3 4 2 1h6l4-3 2-1h7l7 2 2-4 7-8h15l2 2-4 8-11 13-12 14-4 5-4 3-6 1-4-8-6-7-9-5-7-3 6-7 9-10z" fill="#0D8EF8"/>
<path transform="translate(333,489)" d="m0 0 4 1 10 6 12 5 16 3h11l10-1 6 12 1 4-18 4-7 1h-22l-13-4-8-7-3-5-1-10z" fill="#00B8FA"/>
<path transform="translate(431,472)" d="m0 0 2 4 5 4 5 2h9l15-4 7-2 8 7 3 3-29 15-25 10-7 2-4-5-4-9-1-9 10-9z" fill="#7A3DDC"/>
<path transform="translate(650,212)" d="m0 0h24l13 3 14 7 7 8 4 10 1 7v17l-4 12h-3v-2l-5-2-8-7-2-10-2-6-3-10-6-10-5-5-10-6-9-3-6-1z" fill="#B0F3F6"/>
<path transform="translate(617,211)" d="m0 0h3l-1 3 5 5 5 2 4 1-2 2-17 3-17 4-2 9-7 8-10 2-7-2-5-4-3-5-1-10 3-7 7-6 2-1h11l5 3 8-1z" fill="#03B3F9"/>
<path transform="translate(642,206)" d="m0 0 29 1-1 5h-20v2l10 1 14 7 5 5 6 8 4 9 1 5v27l-4 17-4 12-4 1-2-2 1-8 5-19 1-6v-15l-3-12-5-8-7-6-9-4-10-2-16-1-4-1-5-2-5-4v-2l-2-1h3l1-3z" fill="#0BD2F5"/>
<path transform="translate(460,321)" d="m0 0 4 2 8 8 7 2-1 2h-5l5 10 4 13 5 10 1 9 5 12 5 8 1 2v8l-3 3-6-2-7-6-4-1-5-6-5-4-3-9 2-4 3 4 5 1 3-2v-10l-4-8-10-7-6-2-1-16 1-15z" fill="#02ABFA"/>
<path transform="translate(717,394)" d="m0 0 1 2 5-1 2 2 3 20v29l-4 27-5 19-5 13-3 7-8 16-9 15-5 6h-2v-2l-6 2-3 2 2-4 12-17 13-25 7-19 5-21 2-13 1-14v-11l-2-24z" fill="#933AD6"/>
<path transform="translate(298,327)" d="m0 0h1v9l6 5 3 2-2 12-3 19v6l6-24 4-10 3 2v2l4 2-6 16-8 28h-3l-6-8-4-2-3-1-5-6v-2h-2l-1-8 7-21z" fill="#0F8CF7"/>
<path transform="translate(482,578)" d="m0 0h7l6 4 2 5-1 8-5 5-19 8-9 3-12 2h-7l-1-1 1-14-2-1v-2l3-2 12-3v-2z" fill="#7A3EDD"/>
<path transform="translate(690,402)" d="m0 0 3 3 5 10 3 11 1 7v10l-2 9-2 1v-3l-3-1v-2h-3v-5h-2v-2h-2l-1 7-10 1-2-4-9 3-9 5-9 3 4-6 12-13 11-14 10-13z" fill="#B875E4"/>
<path transform="translate(467,218)" d="m0 0h5l3 7-4 3-23 6-16 6-25 12-15 10-13 10-4 3-4-1-4-6 5-5 14-11 13-8 21-11 21-8 21-6z" fill="#0DC6F7"/>
<path transform="translate(396,424)" d="m0 0 10 1 8 5 6 8 2 8v7l-2 3-7 6-6 4-6 2-4-1-1-9-4-8-4-10-4-3-3 1 1-5 5-5 5-3z" fill="#C048E0"/>
<path transform="translate(332,429)" d="m0 0 2 1 6 12 4 5 13 10 9 5 11 4 3 1h21l9-4 4-3h2l2-4 2-2 1 4-6 12-9 8-8 4-7 2h-20l-4-2h20l2-1-1-1-17-3-16-7-9-7-6-8-5-9-3-8z" fill="#B326CF"/>
<path transform="translate(628,244)" d="m0 0h7l2 2-8 1-1 3 2 7 1 5v16l-3 1-11-3-7-1h-16l-9 1-5-7v-2l11-2 9-5 8-9 3-4z" fill="#EFAED8"/>
<path transform="translate(667,510)" d="m0 0h1v7l-4 13-6 11-11 12-11 7-12 5-11 2h-11l-15-3-16-8-5-4 2-4 3-1 12 7 9 3 14 1 14-1 12-4 9-6 7-7 7-11 4-10 2-7z" fill="#E14ADD"/>
<path transform="translate(539,195)" d="m0 0 6 3 4 5 1 3v8l-4 7-8 4-30-1-24 2-13 2-1-2 4-2-2-6-2-1 31-4h20l6 1h8l4-2 1-9-1-6z" fill="#61E5DF"/>
<path transform="translate(584,403)" d="m0 0 3 1-14 14-8 7-16 15-11 9-14 11-14 10-7 1-4-5-3-2 20-12 16-11 4-3h3l1-3 3-1 5-5 8-7h2l1-3h2l1-3 8-7 5-3 5-1z" fill="#177DED"/>
<path transform="translate(347,744)" d="m0 0h11l6 4 3 5 1 4v9l-4 9-6 4h-11l-6-4-4-8v-11l4-8z" fill="#050506"/>
<path transform="translate(687,209)" d="m0 0 7 1 13 7 10 10 7 14 3 11v28l-4 20-5 16-6 16-12 25-4 7-1-3 2-5h-2l-1-3 2-4 3 1 4-4 3-7-3-2 3-10 8-21 4-17 2-13v-20l-4-15-6-10v-2h-2l-1-4 1-4-9-6-8-2v-2z" fill="#60E5DF"/>
<path transform="translate(548,492)" d="m0 0 23 1-6 7-13 10-20 14-10-1-10 1-9 2-4-2 26-16 20-14z" fill="#E91DDE"/>
<path transform="translate(521,522)" d="m0 0h7l3 2-21 13-27 14-6 2 1-3-16-2-3-1-15 6-7 2-4-1 24-9 24-11 17-9h8l6-2z" fill="#B526CF"/>
<path transform="translate(478,402)" d="m0 0h6l8 6 8 3h14l9-4 6-5h6l3 2v7l-4 5-10 6-9 3h-17l-11-4-8-6-5-6 2-6z" fill="#050505"/>
<path transform="translate(593,294)" d="m0 0h15l15 4 12 7 9 8 4 6-1 5-4 7-2-3-6-10-8-7-3-1 1 3v10l-3 12-2 2-3-2-5-10-2-7 7 1 1-7-10-5-3-3-14-2-1-7z" fill="#FCE7A4"/>
<path transform="translate(309,457)" d="m0 0h2l6 10-1 7-4 11-2 9v17l4 11 6 8 11 7 9 3v1h-6l-11-5h-3l1-3h-2v-2l-4 1-5-5-5-7-4-2-2 1v7l1 8-2-2-2-7v-13l4-17 2-10-5-2 1-5 3-6 3-8z" fill="#B126CF"/>
<path transform="translate(505,267)" d="m0 0h13l9 2 10 4 9 6 8 8 2 4v5l-4 3-5-1-9-9-9-5-8-3-6-1h-19l-3-3 1-6 5-3z" fill="#AAF2F6"/>
<path transform="translate(693,354)" d="m0 0h2v2h2l-2 9-11 18-12 17-11 14-11 13-9 11-10 10-5 6-2-3-1-10 9-3 2-4 11-12 9-11 14-18 11-16 10-16z" fill="#0EC4F7"/>
<path transform="translate(356,261)" d="m0 0v3l3 7 4 1-12 12-9 11-13 18-11 21-5 10-3-2 1-9 6-16 10-19 12-18 11-13z" fill="#0CC9F8"/>
<path transform="translate(551,563)" d="m0 0h5l12 9 13 6 13 4 7 16 1 5-3-2-2-5-5-1-4-1-1 3-7 3-4 3-2 4-8-16-8-13-9-12 2-1z" fill="#BE47E0"/>
<path transform="translate(371,373)" d="m0 0h12l13 4 8 5 1 1 2 10 4 16-5 1h-14l-8 2 1-8-3-14-1-14-12-1z" fill="#C047E0"/>
<path transform="translate(704,299)" d="m0 0 1 3-5 12 3-1v2l5 2 1 5-6 15 4 2-5 10-4 2v-2h-2l-2 5-3 5-2-1h-7l-10 3 2-5 9-15 14-26 6-15z" fill="#01BBFA"/>
<path transform="translate(746,402)" d="m0 0h1l2 12h1v36l-3 22-2 7h-2l-1 5-2 2-7-3v-9l5-22 3-25 1-23z" fill="#E64BDD"/>
<path transform="translate(681,305)" d="m0 0 1 4 2 7 10 2 2-1-2 6-12 22-10 15-4-2-3-2-6-1-1-3 12-22 9-19z" fill="#63DCF4"/>
<path transform="translate(592,330)" d="m0 0 4 2 7 12 5 5 3 7 4-1 5 5-1 7-4 4-4-8-2-1-2 4-5 7-3-1v-2l-3-1-12-18-4-5-1-6 9-3z" fill="#5EEBDE"/>
<path transform="translate(524,283)" d="m0 0 8 1 9 7-2 1-4-2 2 16 2 18 4 19 3 7 4 5-1 2-5 2h-6l-2-6-4-14-3-11-4-25v-18z" fill="#07D8F5"/>
<path transform="translate(455,356)" d="m0 0h9l10 5 5 7 1 3v10l-5 3-3-1-4-6v-2l-5-2h-8l-5 2-2 5-2 3-4 1-4-3v-10l3-6 8-7z" fill="#050505"/>
<path transform="translate(549,356)" d="m0 0h10l10 5 5 7 1 3v10l-5 3-5-4-3-5-4-2h-8l-5 4-4 6h-6l-2-2v-10l4-7 7-6z" fill="#050505"/>
<path transform="translate(682,357)" d="m0 0h7l1 4-8 13-13 19-7 9-1-2v-3h-8l-6-1 2-4 14-19 8-12 3-2z" fill="#06A0F7"/>
<path transform="translate(503,540)" d="m0 0 1 2h2l1 3-4 4-27 13-26 10-20 6-16 2-3 1h-10l1-4 35-9 26-9 24-11z" fill="#E01FDC"/>
<path transform="translate(538,413)" d="m0 0 6 4v2h2l3 5 4 2-8 6-2 3-3 1-1 2-6 3h-6l-6-7-4-4-19-1-12-5-8-8 1-2 8 6 11 4h17l11-4 6-4 5-2z" fill="#00B9FA"/>
<path transform="translate(456,588)" d="m0 0 1 2-7 3-6 2v3l1 4-1 10h7l9-1-4 2-18 4-15 2h-30v-1l19-1 4-1-1-13 1-2-4-1 28-7z" fill="#933CD7"/>
<path transform="translate(688,440)" d="m0 0h2v2h2v5h3l5 5-3 11-7 12-9 10-5 2-1-6-2-1 10-11 5-10 1-6h-3l-5 9-4 5-7 3-4-1 1-6 6-10 2-6h12z" fill="#B874E4"/>
<path transform="translate(456,201)" d="m0 0 7 1 1 2-21 6-24 9-23 12-12 8-16 12-6 5-5 1v-4l8-9 17-12 15-9 25-12 22-8z" fill="#0DD3F4"/>
<path transform="translate(728,426)" d="m0 0h1v16l10 1 1-2-1 11-5 22-6 18-5 11-1-2-4-1-1-5 5-17 4-23 1-9z" fill="#F192DD"/>
<path transform="translate(731,518)" d="m0 0 1 2-12 23-8 12-5 5 1-4-5-1-10-5 6-8 12-17 4-5v3l11 2z" fill="#943CD7"/>
<path transform="translate(505,253)" d="m0 0h12l12 2 2 1v2l6 2 2 6 3 3-9-3-11-3h-22l-16 5-11 6-4-1v-2l-5 3-3 3-2-1 7-7 14-9 13-5z" fill="#94E9F5"/>
<path transform="translate(717,394)" d="m0 0 1 2 5-1 2 2 3 20v29l-4 27-2 2-2 3h-3v-13l2-13 1-14v-11l-2-24z" fill="#E44ADC"/>
<path transform="translate(314,569)" d="m0 0 17 6 17 3 19 1 27-2 11-1-3 2-1 3 13-2 12-1-4 2-21 4-17 2h-21l-25-3-9-3-8-2-10-5v-2z" fill="#B226CF"/>
<path transform="translate(621,390)" d="m0 0 2 3 1 5-5 6-7 1-3 4 2 1h6l4-3 2-1h7l6 2-6 8-12 12-4 1-8-6-10-4 6-7 9-10z" fill="#089DF6"/>
<path transform="translate(551,592)" d="m0 0 5 5 8 14v2l10 1 4-2 7 20-4 4-9 1-2 4-3-4-7-19-9-16-2-6z" fill="#BE46E0"/>
<path transform="translate(642,206)" d="m0 0 29 1-1 5h-20v2l10 1 7 3-4 1-8-3h-3l1 8-20-1-4-1-5-2-5-4v-2l-2-1h3l1-3z" fill="#0DC6F7"/>
<path transform="translate(366,268)" d="m0 0h2l4 6 2 2-19 19-13 17-2 3-5-1-1-3-4 1 2-5 10-13 12-14 8-8z" fill="#02B5FA"/>
<path transform="translate(392,233)" d="m0 0 1 2-4 3-1 5 8 1 6-3 2 1-15 9-12 9-11 9-5 3-3-1-3-7 6-8 13-11 16-11z" fill="#62DCF3"/>
<path transform="translate(362,247)" d="m0 0m-2 1 2 1-5 5v2l4 1-14 14-10 13-10 16-5 10-2-4-4-3 1-2h-2l1-4 10-14 9-10 7-8 11-11z" fill="#03B3F9"/>
<path transform="translate(485,423)" d="m0 0 13 5 19 1 2 4 4 2 4 4v2h5l-4 4-14 9h-6l-6-10-3-6 1-7-11-3-4-3z" fill="#01ACFA"/>
<path transform="translate(372,366)" d="m0 0 13 1 12 5 7 5 7-1 4-5-1 7-4 3h-8l-11-5-8-2h-12l-12 4-13 9-4 3-3-1v-2l-4 3-2-1 7-8 8-7 11-5 6-2z" fill="#ECA9D8"/>
<path transform="translate(591,302)" d="m0 0 7 1 3 10 2 1v2l5 1 2 11 2 7 3 7h3l1 2-5 10-3-1-6-9-10-19v-2h-2v5l-2-1z" fill="#5FE6DE"/>
<path transform="translate(550,372)" d="m0 0h8l6 4 4 6 5 2 4-2v-6l5 5 3 6 1 7-11 11-4-2-2-4-4-4-1-4-6-3v-3l-5-5v-3l-3-1z" fill="#08D6F5"/>
<path transform="translate(672,480)" d="m0 0 3 1 2 4-1 4-16 8-13 3h-13l-5-1h-9l-3 5-1 3h-2v-8l4-5 2-1 22-1 14-3 10-5z" fill="#9F5FE6"/>
<path transform="translate(405,321)" d="m0 0 2 1 4 4 1 3 1 18v16l2 4-3-1-5-5-8-4v-2h2l-1-5-1-20-3-1z" fill="#A263E8"/>
<path transform="translate(675,443)" d="m0 0 1 4-5 12-6 9v-2h-12l-9-1-3-1-3 3-2-1 11-11 14-6 5-3z" fill="#A263E8"/>
<path transform="translate(609,362)" d="m0 0 4 2 2 4-1 5-12 14-9 10-5 6-5 2-3 1-5 1-4 2 6-7 8-8 16-20 6-9z" fill="#05B6F9"/>
<path transform="translate(652,205)" d="m0 0h19l17 3 3 3v2h6l10 6 2 2-1 8h2l7 12 2 6-1 4-1-4h-2v21l-3 2v-23l-2-10-5-10-7-6-14-6-14-3-1-2 1-2-23-1v-1z" fill="#19E0EF"/>
<path transform="translate(500,262)" d="m0 0h22l11 3 12 6 10 8 4 4-1 11-1-4-3-1-7-8-5-4-11-6-6-2-7-1h-21l-5 5-2 1v-7l2-3z" fill="#0DCAF7"/>
<path transform="translate(443,524)" d="m0 0 2 1 1 4 3 1-24 9-15 4-20 4h-5v-4h-6l3-2 25-5 26-8z" fill="#E98CDC"/>
<path transform="translate(409,600)" d="m0 0 7 1 1 16-5 1-24 1-8-1v-1l14-1-4-5 1-6-5-1v-1z" fill="#B126CF"/>
<path transform="translate(427,478)" d="m0 0 2 1-1 2v8l4 7v4l2 1 1 2 8 1 4-1-3 3-19 7-5-5-4-9-1-9 10-9z" fill="#933BD7"/>
<path transform="translate(553,467)" d="m0 0 6 1 6 4 3 5-19 14-4-2-7-7-4-1 15-12z" fill="#F192DD"/>
<path transform="translate(394,503)" d="m0 0 3 1 6 14-3 2-22 4h-5l3-3 1-3 1-11-5-1-2-2h15z" fill="#099CF6"/>
<path transform="translate(643,526)" d="m0 0h5l2 2v5l-7 9-9 7-12 5h-10l-2-6 9-3 10-5 7-5z" fill="#BB77E5"/>
<path transform="translate(716,496)" d="m0 0 3 4 3 1 1 4-9 17-14 20-11 12-12 12-2-1 9-10 11-15 12-21 5-10z" fill="#BB76E5"/>
<path transform="translate(482,578)" d="m0 0h7l6 4 2 5-1 8-5 5-11 5-4-1 1-2-1-8 3-1v-12z" fill="#5E7CF7"/>
<path transform="translate(414,376)" d="m0 0 2 4 4 16-1 16 3 2 4 2 3 5-1 2-9-8-10-5 1-2-5-17-1-8-1-2 9-2z" fill="#A364E8"/>
<path transform="translate(690,402)" d="m0 0 3 3 5 10 3 11 1 7v10l-2 9-2 1v-3l-3-1v-2h-2l-1-18-4-15-1-4-2-1z" fill="#E98BDB"/>
<path transform="translate(629,380)" d="m0 0 2 3 4 2-6 8 13 4 2 2-7 9-14-1-5 4h-7l-3-3 4-4 7-1 4-5v-5l-2-1 4-7z" fill="#01ACFA"/>
<path transform="translate(794,732)" d="m0 0 2 3 9 26v3h-22l3-11 7-20z" fill="#080509"/>
<path transform="translate(675,302)" d="m0 0 5 4 1-2-1 7-14 29-7 12-5 1v-2l-5 3 2-5 10-17 8-16z" fill="#0DC3F7"/>
<path transform="translate(337,387)" d="m0 0h2l1 2 4 1-7 11-4 11-2 17h-8l-1-2v-8l3-15 7-14z" fill="#E64DDD"/>
<path transform="translate(600,260)" d="m0 0h13l2 6v7l-30 3-5-7v-2l11-2z" fill="#E44ADC"/>
<path transform="translate(558,579)" d="m0 0h2l11 19 6 13-1 3-3 1-9-2-7-13-8-11 1-2 7 2h3l1-3z" fill="#953DD7"/>
<path transform="translate(467,218)" d="m0 0h5l3 7-4 3-23 6-6 2h-4l-1-5-2-1 1-2h2v-2l20-6z" fill="#18E2EF"/>
<path transform="translate(337,541)" d="m0 0h8l7 1h27l6 1v4l18-4h6l-4 2-21 4-10 1h-21l-15-3-2-4z" fill="#E44DDD"/>
<path transform="translate(438,297)" d="m0 0 7 1 10 6 9 8 6 10 4 5h6l6-5-2 7-5 4-7-1-5-5-4-6-6-7-11-7-17-5v-1h8z" fill="#ADE8F4"/>
<path transform="translate(415,294)" d="m0 0h17l8 2-1 3h-2v2l-20 2-16 5-3 1v-3l-6-1 1-3 13-6z" fill="#EEAFD9"/>
<path transform="translate(490,194)" d="m0 0 37 1 1 3 5 1v1h-37l-18 2-14 2-4-2h-9l4-2 26-5z" fill="#5EE4DE"/>
<path transform="translate(563,225)" d="m0 0 2 4 7 4 10 5 5 2 6 1v-2l2 1-7 8-10 2-7-2-5-4-3-5-1-10z" fill="#5C7EF8"/>
<path transform="translate(570,217)" d="m0 0 2 1-1 2h2v2l6 2 5 4v2l4 1 7 2 2-1-2 7h-2v2h-6l-15-7-7-4-1-1v-6z" fill="#0F8DF8"/>
<path transform="translate(704,299)" d="m0 0 1 3-5 12 3-1v2l5 2 1 5-5 13-8 1v2l-5 1-2-1 1-10 8-16z" fill="#0DCAF7"/>
<path transform="translate(445,593)" d="m0 0 7 1 7 4v2h2v2h2l2 7-2 2-12 2h-7l-1-1 1-14-2-1v-2z" fill="#866AEB"/>
<path transform="translate(435,227)" d="m0 0 3 1h-2l3 9-20 9h-5l-6 3-2-4 1-4 5-4 20-9z" fill="#0AD5F5"/>
<path transform="translate(584,403)" d="m0 0 3 1-14 14-8 7-11 10-5-4-5 2 5-5 7-6h2l1-3h2l1-3 8-7 5-3 5-1z" fill="#0D9AF6"/>
<path transform="translate(437,456)" d="m0 0 5 5 7 13 4 6-1 3h-9l-8-4-3-3 1-9 3-10z" fill="#A163E8"/>
<path transform="translate(716,470)" d="m0 0h1v8l3-1 2-5h1l-1 10-4 13-4 10-3 7-1 2-6-1v-6l6-15 5-17z" fill="#C045DF"/>
<path transform="translate(680,421)" d="m0 0h7l2 6v13l-2 7-10 1-1-3 1-22z" fill="#F3B2D9"/>
<path transform="translate(531,256)" d="m0 0 10 3 13 8 11 11 8 14 2 7h-2v-3l-5-2-3-4-1-8-1-3-9-2-4-3-7-3-5-5-1-5-6-3z" fill="#ADE9F4"/>
<path transform="translate(333,489)" d="m0 0 4 1 10 6 6 3-3 1-6-3v14l-2 5 6 4-3 1-6-4-6-7-2-7 1-11z" fill="#5FE0DE"/>
<path transform="translate(715,247)" d="m0 0h2l1 4h2l1 5v20l-2 13-3 1-5-3-2-5 3-12 2-2z" fill="#07E2F5"/>
<path transform="translate(569,547)" d="m0 0 5 2 12 6 6 2 14 1h9l-2 2-11 1v4 1h-7l-13-4-11-6-5-4 2-4z" fill="#BB43DE"/>
<path transform="translate(667,510)" d="m0 0h1v7l-4 13-6 11-6 7-1-4-2-1-5 2 6-8 6-10 5-15z" fill="#BA44DE"/>
<path transform="translate(592,598)" d="m0 0h2l6 14 3 12v6l-3 2-5-1-2-1-3-20-2-11z" fill="#F3B0D9"/>
<path transform="translate(373,326)" d="m0 0 6 3-1 5 2 1-1 13-5 1-2 3h-7v-9l4-13 2-3 2 1z" fill="#E04DDC"/>
<path transform="translate(700,742)" d="m0 0h11l5 3 3 4 1 5h-28l2-7z" fill="#060506"/>
<path transform="translate(484,742)" d="m0 0h11l6 4 2 4v4h-27l1-6z" fill="#070508"/>
<path transform="translate(514,561)" d="m0 0 2 1-3 1v2l5 1 5-2 10 7 10 9 5 6-1 2-2 2h-3l-13-13-11-7-9-5 3-3z" fill="#933AD7"/>
<path transform="translate(689,253)" d="m0 0h1v23l-4 17-4 12-4 1-2-2 1-8 5-19 1-6 5-5z" fill="#0BD1F5"/>
<path transform="translate(594,450)" d="m0 0 4 1 8-1 1 3v13l-3 6-1-2h-6l-1-10-9 1-2-1z" fill="#ED8FDC"/>
<path transform="translate(675,447)" d="m0 0h12l-1 6-5 9-4 5-7 3-4-1 1-6 6-10z" fill="#BC7AE6"/>
<path transform="translate(574,215)" d="m0 0h11l5 3v5l5 3 7 3-3 2-5 3-6-2-4-2v-2l-4-2-5-3-2-1v-2h-2l1-4z" fill="#089EF6"/>
<path transform="translate(651,215)" d="m0 0 7 1 5 2 8 2 7 5 3 5h-4v5l1 2-4-2-6-5-9-4-6-2z" fill="#09D4F5"/>
<path transform="translate(392,226)" d="m0 0 1 2-2 1 1 5-11 7-13 10-6 5-5 1v-4l8-9 17-12z" fill="#0DC3F7"/>
<path transform="translate(490,256)" d="m0 0 5 1 1 4 4 2-16 5-11 6-4-1v-2l-5 3-3 3-2-1 7-7 14-9z" fill="#67D1F2"/>
<path transform="translate(344,497)" d="m0 0 12 3 3 1v2l-3 1-3 15-1 2 3 1h-7v-2l-5-2-2-2 2-5z" fill="#15E4F0"/>
<path transform="translate(736,374)" d="m0 0h5l3 3 4 20 1 7v14h-1l-2-15-3 1-1 23h-1l-1-26z" fill="#EA8DDC"/>
<path transform="translate(682,357)" d="m0 0h7l1 4-8 13-12-3-3-4 4-6 3-2z" fill="#01ADFA"/>
<path transform="translate(722,505)" d="m0 0 2 4 1 3 8 1 1-4 2-1-1 5-2 5-3 2-3 6-12-3v-5z" fill="#B226CF"/>
<path transform="translate(579,437)" d="m0 0h12l8 4-2 5-3 2-6-3h-8l-8 3v-2l-3-1 3-5z" fill="#F9F2FA"/>
<path transform="translate(693,354)" d="m0 0h2v2h2l-2 9-11 18-2 3h-2l-2-3 1-6 10-16z" fill="#1AE0EF"/>
<path transform="translate(323,287)" d="m0 0 10 1-2 5-9 17-2-4-4-3 1-2h-2l1-4z" fill="#02ABFA"/>
<path transform="translate(478,414)" d="m0 0 11 7 9 3h17l11-4 6-4 2 1-7 7-11 5h-18l-12-5-8-8z" fill="#6FCDF2"/>
<path transform="translate(456,201)" d="m0 0 7 1 1 2-21 6-15 5h-3l-1-2h-2v-2l22-8z" fill="#18DEEF"/>
<path transform="translate(543,277)" d="m0 0 7 6 5 6 1 7-4 3-5-1-12-12 6 1 4-3-1-4z" fill="#90F2F6"/>
<path transform="translate(643,526)" d="m0 0h5l2 2v5l-7 9-6 5-2-1-1-4-2-4 5-5z" fill="#F1B1D9"/>
<path transform="translate(396,424)" d="m0 0 10 1 8 5-2 6-3 2-5-4-5-2h-11v-3l4-4z" fill="#E88ADC"/>
<path transform="translate(384,604)" d="m0 0h7l1 3-1 4 5 6h-16l-1-5-2-4-13-2v-1z" fill="#C248E1"/>
<path transform="translate(359,502)" d="m0 0 5 1-2 1 1 3v11l1 6h-8l-5-1 3-13 2-7z" fill="#0EC5F7"/>
<path transform="translate(736,466)" d="m0 0 6 2 3 2 1 8-3 1-1 5-2 2-7-3v-9z" fill="#E521DD"/>
<path transform="translate(548,273)" d="m0 0 5 2 6 2 4 2 3 7 1 5 4 4 2 1v3l2 1-2 9v17l-3-4v-16l-5-13-8-11-9-8z" fill="#8FF2F4"/>
<path transform="translate(417,307)" d="m0 0h8l2 2-1 7-10 2-7 1-3-8 6-3z" fill="#FDFAFB"/>
<path transform="translate(712,372)" d="m0 0 8 1 4 14 1 10-7-1-3-9-3-12z" fill="#EB8FDC"/>
<path transform="translate(684,410)" d="m0 0h3l4 10 2 9v18h-1v-5h-2l-1-2-1-13-1-6-7 1h-3l2-5z" fill="#BD79E5"/>
<path transform="translate(417,302)" d="m0 0h16l4 2-11 1 1 4-2-1h-8l-10 3-9 5-2-1 1-2-3-1 5-2v-2l14-5z" fill="#8D6CEB"/>
<path transform="translate(728,336)" d="m0 0h2l4 10 1 10h-9l-4-1-2 1 1-5z" fill="#F7DFA8"/>
<path transform="translate(387,308)" d="m0 0 5 4 1 2-8 7-6 8-5-2-3 1 1-5 5-5z" fill="#EC8EDC"/>
<path transform="translate(531,267)" d="m0 0 6 1 3 2 6 2 9 7 4 4-1 11-1-4-3-1-7-8-4-5-13-7z" fill="#07DEF5"/>
<path transform="translate(609,362)" d="m0 0 4 2 2 4-1 5-10 12h-1l-2-7-1-3z" fill="#13C4F6"/>
<path transform="translate(341,297)" d="m0 0 4 2 3 5-8 11-5-1-1-3-4 1 2-5 6-8z" fill="#02AAFA"/>
<path transform="translate(405,311)" d="m0 0 3 3 1 6-9 6-5 4-2-4-3-1 2-4 7-7z" fill="#EF91DD"/>
<path transform="translate(438,297)" d="m0 0 7 1 10 6 9 8 2 3-1 3-6-8-7-1-19-6-4-2h8z" fill="#F2EEF9"/>
<path transform="translate(499,268)" d="m0 0h16v1l-8 1 3 5v2l4 1-19 1-2-2 1-6z" fill="#ADF2F6"/>
<path transform="translate(565,222)" d="m0 0 5 5 17 8 7 1-1 5h-6l-15-7-7-4-1-1v-6z" fill="#0E88F0"/>
<path transform="translate(350,373)" d="m0 0 2 1-2 3 7 1-4 4-11 8-3-1v-2l-4 3-2-1 7-8 8-7z" fill="#EB8EDC"/>
<path transform="translate(417,491)" d="m0 0 4 1 4 11 6 2 1 4-1 2-7 2-4-5-4-9z" fill="#8C24CE"/>
<path transform="translate(558,579)" d="m0 0h2l8 13v3l-7 3-5 1-7-10 1-2 7 2h3l1-3z" fill="#8C24CE"/>
<path transform="translate(308,514)" d="m0 0 1 4h3l6 10 11 8 11 4v1h-6l-11-5h-3l1-3h-2v-2l-4 1-5-5-4-5-1-7z" fill="#BD43DE"/>
<path transform="translate(601,216)" d="m0 0 2 1 1 5 6 5-4 2h-7l-8-4-2-4v-2z" fill="#03A8F9"/>
<path transform="translate(642,206)" d="m0 0 29 1-1 5h-20v2l-5-2-3-4z" fill="#08D5F5"/>
<path transform="translate(712,486)" d="m0 0h1v6l-2 7 3-1 2-5 1 3-5 15-2 3-6-1v-6l6-15z" fill="#BB3DDB"/>
<path transform="translate(577,376)" d="m0 0 5 5 3 6v6l-4 2-4-1-5-7 2-4 3-1z" fill="#04E3F5"/>
<path transform="translate(613,258)" d="m0 0h7l1 1 1 10-1 5-4 2-9-2v-1h7l-2-9v-4h-6v-1z" fill="#EC8EDC"/>
<path transform="translate(466,271)" d="m0 0h3l1 2 3 2-8 7-4 5-2 2-5-3 2-6z" fill="#13C5F7"/>
<path transform="translate(687,245)" d="m0 0h2l1 8-1 13-4 2v6h-1l-1-27z" fill="#16E2EF"/>
<path transform="translate(394,503)" d="m0 0 3 1 6 14-3 2-11 2 3-4 2-13h-8v-1z" fill="#6075F4"/>
<path transform="translate(558,421)" d="m0 0h5l3 3-7 7-6 4-4-4-5 2 5-5z" fill="#118CF7"/>
<path transform="translate(479,579)" d="m0 0 2 1-1 5-1 8-5 1-5-5-3-2-3-1 11-5z" fill="#8566EA"/>
<path transform="translate(680,421)" d="m0 0h7l1 2v12l-10-2v-10z" fill="#FDFCFD"/>
<path transform="translate(506,193)" d="m0 0h15l15 1 3 1 2 10-8-5-6-2v-3h-27v-1z" fill="#8FD7F0"/>
<path transform="translate(371,506)" d="m0 0 7 1v11l-3 5-5 1v-13z" fill="#01ACFA"/>
<path transform="translate(669,221)" d="m0 0 6 3 3 1 3 5h-4v5l1 2-4-2-6-5-4-2 1-3 2 1z" fill="#15DEF0"/>
<path transform="translate(593,323)" d="m0 0h2l8 16 4 6 5 8 2 2-3 3-5-10-1-3-3-1-7-12-3-2-2 4 1-7z" fill="#96F3F6"/>
<path transform="translate(414,431)" d="m0 0 5 5 1 6-2-1-3 12h-1l-3-11-2-4 3-3z" fill="#B874E4"/>
<path transform="translate(695,540)" d="m0 0h3l1 3-9 10-13 13-2-1 9-10z" fill="#A065E9"/>
<path transform="translate(611,511)" d="m0 0 5 2 6 3-4 4h-9l-4-4z" fill="#856AEB"/>
<path transform="translate(592,598)" d="m0 0h2l4 9-2 4-5 3-3-15z" fill="#F192DD"/>
<path transform="translate(463,405)" d="m0 0h3l5 14 3 5-1 4-7-8-4-11z" fill="#0D8FF9"/>
<path transform="translate(390,304)" d="m0 0 8 2 1 4-6 3-4-2-2-2-10 10v-3l10-10z" fill="#C179E3"/>
<path transform="translate(386,505)" d="m0 0h8l-1 13-3 3h-2z" fill="#07A0F7"/>
<path transform="translate(620,493)" d="m0 0h18v1l-10 1-2 1 2 2-8 1-3 5-1 3h-2v-8l4-5z" fill="#875FE7"/>
<path transform="translate(629,439)" d="m0 0 2 4h2l-1 4-6 7-2-3-1-10z" fill="#07AEF8"/>
<path transform="translate(503,540)" d="m0 0 1 2h2l1 3-4 4-5 1-4-1-2-3z" fill="#E31FDC"/>
<path transform="translate(548,273)" d="m0 0 5 2 6 2 4 2 3 7-1 4h-2l-7-9-8-7z" fill="#91F2F6"/>
<path transform="translate(638,545)" d="m0 0h2l1 3-9 6-8 3-4-1-1-2 13-5z" fill="#9024CE"/>
<path transform="translate(406,305)" d="m0 0 4 1v2l2 1-14 7-2-1 1-2-3-1 5-2v-2z" fill="#A569E8"/>
<path transform="translate(479,433)" d="m0 0 12 15 1 2-7-1-6-8 1-2-2-1z" fill="#0D8FF9"/>
<path transform="translate(574,300)" d="m0 0 2 1 1 4v19l-1 6h-2v-16l-1-2v-8z" fill="#ABE2F4"/>
<path transform="translate(420,212)" d="m0 0h5l1 2 2 1-15 7-1-4-1-2z" fill="#11C6F5"/>
<path transform="translate(539,577)" d="m0 0 5 4 4 5-1 2-2 2h-3l-3-3-2-4v-3h2z" fill="#9F61E7"/>
<path transform="translate(702,336)" d="m0 0 5 2-4 10-5 3v-2l-2-1z" fill="#15E7F0"/>
<path transform="translate(618,546)" d="m0 0h2l2 8h-10l-2-6z" fill="#A364E8"/>
<path transform="translate(706,339)" d="m0 0 1 4-11 21-1-3 2-5h-2l-1-3 2-4 3 1 4-4z" fill="#5CD2DF"/>
<path transform="translate(553,278)" d="m0 0 6 5-1 11-1-4-3-1-5-6v-2h4z" fill="#08D8F5"/>
<path transform="translate(382,506)" d="m0 0 5 1 2 15-9 1-1-2h4l2-14z" fill="#1787F4"/>
<path transform="translate(378,334)" d="m0 0 2 1-1 13-5 1-1-4 3-10z" fill="#E91DDE"/>
<path transform="translate(427,478)" d="m0 0 2 1-1 2v8l4 7v2h-2l-1 2-1-7h-2v-2h-2l-2-5 3-5z" fill="#8C23CE"/>
<path transform="translate(481,277)" d="m0 0h5l2 3-1 4-2 2-5-1-1-1v-5z" fill="#A3F0F6"/>
<path transform="translate(491,546)" d="m0 0 4 3h5l-3 3-9 4-1-4-2-1v-2z" fill="#DF46DC"/>
<path transform="translate(405,311)" d="m0 0 3 3 1 6-6 2-3-5 2-4z" fill="#F4B5D9"/>
<path transform="translate(506,269)" d="m0 0h9l3 8h-8z" fill="#FEFEFE"/>
<path transform="translate(338,602)" d="m0 0 13 1 33 1v1h-34l-6-1v2l-5-2z" fill="#A329D1"/>
<path transform="translate(551,563)" d="m0 0h5l3 5h-2l-1 6-5-5-2-4h2z" fill="#A161E7"/>
<path transform="translate(518,269)" d="m0 0 7 1 4 1 1 3-3 2-6-1-3-4z" fill="#FEFEFE"/>
<path transform="translate(688,440)" d="m0 0h2v2h2v7l-1 4-5-1z" fill="#A567E8"/>
<path transform="translate(647,417)" d="m0 0v3l-6 7-3-3 1-6z" fill="#0F80EE"/>
<path transform="translate(650,212)" d="m0 0h24v1l-11 1 2 1v2l-15-3z" fill="#87EDF5"/>
<path transform="translate(389,325)" d="m0 0 5 1 2 5-3 2-4-1-1-1v-5z" fill="#BE7BE5"/>
<path transform="translate(546,587)" d="m0 0 5 3v3 4l-2 2-5-7 1-4z" fill="#9F40DA"/>
<path transform="translate(395,301)" d="m0 0h5l4 5-3 2-3 1v-3l-6-1 1-3z" fill="#EC8FDC"/>
<path transform="translate(651,534)" d="m0 0v3l-9 10h-2l-1-3 6-5 2-4z" fill="#9539D6"/>
<path transform="translate(319,531)" d="m0 0 4 1 8 5 9 3v1h-6l-11-5h-3l1-3h-2z" fill="#B33EDB"/>
<path transform="translate(567,242)" d="m0 0 9 4 9 2-4 2-10-2-5-5z" fill="#8045DE"/>
<path transform="translate(579,400)" d="m0 0 4 1 1 3-4 2-5 1-4 2 6-7z" fill="#01ADFA"/>
<path transform="translate(388,427)" d="m0 0 2 1-2 3 2 2-9 5 1-5 5-5z" fill="#D758DE"/>
<path transform="translate(485,423)" d="m0 0 13 5 15 1v1h-16l-9-3-3-2z" fill="#07BEF9"/>
<path transform="translate(399,308)" d="m0 0 4 1-1 1 2 2-6 4-2-1 1-2-3-1 5-2z" fill="#9A52E0"/>
<path transform="translate(687,209)" d="m0 0 7 1 13 7 1 2-5-2-6-3-6-1v-2z" fill="#50D5E3"/>
<path transform="translate(682,415)" d="m0 0 2 1 2 5-8 2-1-3z" fill="#EA97DB"/>
<path transform="translate(571,308)" d="m0 0h1l1 6v12l-3-4v-13z" fill="#5EEBDE"/>
<path transform="translate(535,275)" d="m0 0h2v3h-2v2l-5 2-3-2 3-3z" fill="#FEFEFE"/>
<path transform="translate(497,267)" d="m0 0h6l-8 4-1 6 3 4-4-1-2-3 1-5z" fill="#01BCFA"/>
<path transform="translate(579,407)" d="m0 0 3 1-6 7-3-1v-3h2v-2h4z" fill="#2380F2"/>
<path transform="translate(645,551)" d="m0 0 2 2-11 7-5 2 1-3 11-6z" fill="#B240DC"/>
<path transform="translate(712,486)" d="m0 0h1v6l-3 8-4 5 1-5z" fill="#A02CD1"/>
<path transform="translate(684,444)" d="m0 0 4 1-1 2-10 1-1-3z" fill="#F192DD"/>
<path transform="translate(547,557)" d="m0 0 4 2 3 4h-3v2l-4-1 1-5z" fill="#9137D5"/>
<path transform="translate(633,537)" d="m0 0 3 1 3 5-2 4-2-1-1-4-2-4z" fill="#E98EDE"/>
<path transform="translate(532,416)" d="m0 0 2 1-7 7-4 1-1-3 9-5z" fill="#70C5F1"/>
<path transform="translate(594,627)" d="m0 0 5 1 2 1 1-2-1 4-5 1-2-2z" fill="#FEFEFE"/>
<path transform="translate(418,413)" d="m0 0 7 2 4 6-1 2-10-9z" fill="#9957E4"/>
<path transform="translate(420,212)" d="m0 0h5l1 2 2 1-7 3-3-2 3-1z" fill="#0BD3F5"/>
<path transform="translate(547,207)" d="m0 0h3v7l-1 2h-2l-1-6z" fill="#99EDF4"/>
</svg>
