<?xml version="1.0" encoding="UTF-8"?>
<svg version="1.1" viewBox="0 0 1024 1024" width="1024" height="1024" xmlns="http://www.w3.org/2000/svg">
<path transform="translate(0)" d="m0 0h1024v1024h-1024z" fill="#F5F8F9"/>
<path transform="translate(511,283)" d="m0 0h2l2 4 5 3 5 7 1 3v9l-4 9-7 8v4h3v2h2v-8l3-5 4-3 8-1 5 1 5 5 4 2 1-3-2-2h-2l-2-4-4 1-3-3v2l-8-1v-4l4-3 1 4h8l7 4 3 5v5h-2l2 1v5h2v-4h2v-7h1v13l-3 6-5 5-8 4h-8l3 9 5 7 2 1v2l5 2 7 3h11l9-5 9-8-1-9 4 6 10-13 2-3h2l1-3 5-4 1-5-3-5-1-10 2-4 1 2h3l3 3 4-6 5-4 8-1 6 3 2 2 1 9-3 8-4 5-4 2h-3l1 27 2 11 5-5 9-11 1-2v-8l1-3 4 2 2 2 5-1 2-5 3 1-1 5-6 5-2 2 5-2 5-5-1 4-5 5-2 1-1 3-1 12-1 3 5-5 8-10 11-16 1-13 2-3 1 2 1-2 6 2 4 2 6-10h3 3l1 4-3 1v-3l-5 4-2 5-1 12-2-1-1-4h-4l-6-4 1 3 7 4 1 5h5v1h-7l-2-1-1 3h-2l-1 4-5 8 3 1-2 4h-2l-1 4 2 4-10 14-9 10-7 5-6 2h-7l-5-1 7 2 10 1 1 2 9 3-1-11 3-2v10l4 1-1-2h-2v-8l3-7 6-8 2 1 1 9-3 10-7 8 2 5v7l-4 4h-2l-1 3-4-4-4 1 1 2-7-2-2-5h-2v-2l-6 3-2 4h-2l4 7v2h4l1-2h6 3l-3 3 5 1 1 3 2 1 1-2h3l2-1-2 6 1 2-9-3-17-4-27-4-32-3-31-2v-1l15-1 2-1 1-2v2l3-1 2 1v-3l4-4-3-10-8-1-4 1-2-1h-10l-9-1-23-1-25 1-4 1-2 6-1-4 1-3-8 2-5-1-6 2-4 7h-3v-3l-2-1h2v-2h-2v-2h-2l-1 2-1-1h-5l-5 2-1 7 2 4 2-1v4l10 1 2-4 3 1v2l3-3h2l1-2 2 4h2v2l-5-1v2h29v1l-46 3-30 3-30 5-10 3-7 5 2-4v-4-2h5l4-1 2 1 1-3h2l-1-3h6l-2 1 7 2 1-6h2v-2l-3-3h2l-1-4h-5v-2h-2v2h-2l-2 8-1 3-3 1v-6l-3-2v-2l-5 3-3 3v-3l-4-2 2-1 4-1 14-6 17-4-24 4-1-3 4-3 14-4 39-4h19l4-1h54l2 2-47 2-36 3 47-3h79l31 2 34 4 26 6 12 5 4 1 2-2-1-7-8-4-11-3-43-7-31-3-33-2v-1l8-1-10-6-9-8v8l-7 7-3-1v-1l-6-1-1 2-5-3-3-6 1-5-7 7-12 7 13 1v1l-40 2-28 3-38 6-14 3-3-1 5-2-5-5 8 2 11-1 12-6 7-8 5-13 1-7-4 12-6 12-9 7-9 3-9-1-7-4-7-6-12-16 2-4 2-1 2 1-3-5 2-2 2 4 3 2 1 3 14 10 3 1h7l3-3-3 1-8-4-1-2h2l-1-23-1-7h-2l1 14v15l-5-5 1-1-1-13-1-4-6-4-1-4v-7l2-2 4 6 4 2 2-4 5-2v12l12 16 2 4 2-2 1-4 1-1h-1v-32l-8-5-4-7-1-8 2-6 6-4 9 1 7 6 3 5 1-5 3-1 1 2 2-2 1 10-3 8-4 3-1 5 11 16 1 3-1 3 4 2 5 5 10 9 13 7h15l10-4 8-7 1-2-6 6-2-1 8-9 4-8 5-12v-3l-3 1h-12l-8-4-4-8v-7l4-7 8-4h8l-1-5 3 3v2h2v3l-7 1v-2l-7 1 1 3h-2l-1-1-1 4-3-1 1 6h1l4-6 4-1 5-2 9 2 4 4 1 3v8l6-2-2-5-5-5-4-7-1-4v-8l3-7 5-6 4-2z" fill="#DCE2E4"/>
<path transform="translate(299,492)" d="m0 0h8l8 5v4h3l2-4 7-4 4-1h12l11 4 9 7 6 9 4 11 2 11v18l-3 14-4 9-4 6-7 7-8 4-7 2h-9l-9-4-6-5-1 29-3 7-5 4-2 1h-7l-6-3-3-3-2-7v-64l1-47 4-7z" fill="#5C5D5F"/>
<path transform="translate(555,492)" d="m0 0 9 1 4 2 4 6 7-6 6-3h10l7 3 7 6 2 3 4-2 7-6 9-4h12l7 3 8 7 6 12 2 7 1 8v55l-4 6-4 3-9 1-7-4-3-7-1-57-3-6-7-2-6 3-2 3-1 5-1 56-4 6-7 3-8-1-6-5-2-5-1-58-3-5-4-2-6 1-4 4-2 10v50l-3 6-5 4-8 1-8-4-3-5v-84l4-6z" fill="#AAD0D6"/>
<path transform="translate(512,357)" d="m0 0 3 4 6 11 8 11 3 1 5 5 7 3 5 1 6 2v2l17-2 12-5 5-2v-2l9-6 1-2h2l2-4 5-5 4 15 5 9 2 4 14 7 14 2 1 2 9 3-1-11 3-2v10l4 1-1-2h-2v-8l3-7 6-8 2 1 1 9-3 10-7 8 2 5v7l-4 4h-2l-1 3-4-4-4 1 1 2-7-2-2-5h-2v-2l-6 3-2 4h-2l4 7v2h4l1-2h6 3l-3 3 5 1 1 3 2 1 1-2h3l2-1-2 6 1 2-9-3-17-4-27-4-32-3-31-2v-1l15-1 2-1 1-2v2l3-1 2 1v-3l4-4-3-10-8-1-4 1-2-1h-10l-9-1-23-1-25 1-4 1-2 6-1-4 1-3-8 2-5-1-6 2-4 7h-3v-3l-2-1h2v-2h-2v-2h-2l-1 2-1-1h-5l-5 2-1 7 2 4 2-1v4l10 1 2-4 3 1v2l3-3h2l1-2 2 4h2v2l-5-1v2h29v1l-46 3-30 3-30 5-10 3-7 5 2-4v-4-2h5l4-1 2 1 1-3h2l-1-3h6l-2 1 7 2 1-6h2v-2l-3-3h2l-1-4h-5v-2h-2v2h-2l-2 8-1 3-3 1v-6l-3-2v-2l-5 3-3 3v-3l-4-2 2-1 4-1 14-6 17-4-24 4-1-3 4-3 14-4 39-4h19l4-1h54l2 2-47 2-36 3 47-3h79l31 2 34 4 26 6 12 5 4 1 2-2-1-7-8-4-11-3-43-7-31-3-33-2v-1l8-1-10-6-9-8v8l-7 7-3-1v-1l-6-1-1 2-5-3-3-6 1-5-7 7-12 7 13 1v1l-40 2-28 3-38 6-14 3-3-1 5-2-5-5 8 2 11-1 12-6 7-8 5-13 2-7h2l7 8 11 9 10 5 12 3v1h9l7-2h5l1-2 4-2 3-1 3-4 3-1 6-7 7-10 5-9z" fill="#895F35"/>
<path transform="translate(485,442)" d="m0 0h62l32 2 36 4 25 5 10 4-3 3-14 3-9 1-46 2h22l39-3 14-3 3 1-6 3-16 3-24 2-37 2h-111l-48-2-31-3-12-3-2-2 26 3h11l-20-2-11-3 1-3 12-4 29-5 31-3z" fill="#814F20"/>
<path transform="translate(139,490)" d="m0 0h9l7 2-2 7-4 3-3-1-1-2-1 2-3-1-2-2-2 5v2h2l1 2 5 1 1-3 8-6 5 1v10l3 3 7 1 2-4 3 1 1-2h-4l-2-5 2-2-6-4 4-2 7 5 2 4v9l-5 5-4 2h-6l-11-7-3-1h-10l-5 3-1 5 3 5 16 4 17 7 8 7 4 7 1 4v13l-3 10 4-12v-16l-4-7 1-2 6 9 3 10v11l-4 13-5 7-10 7-8 3-9 2h-14l-16-4-8-4-10-9-4-8v-10l2-2 1 11 6 9 10 6 10 3 7 1h12l12-3 9-5-11 5-11 2h-12l-15-4-10-6-6-9v-7l1-5 7-4h8l7 4 5 4 6 2h9l5-3 2-3-1-6-8-4-17-5-10-5-6-5-5-10-1-5v-8l3-9 7-9 12-6z" fill="#5F5F60"/>
<path transform="translate(719,491)" d="m0 0 11 1 11 4 8 6 6 7 5 13 1 4v15l-3 5-7 3h-46l2 12 3 1 2 4 7 3 6 1v2l-8 2v2h2l3 3h3v2l-6 1-2-1v-4h-4v4l4 2-4 4v2l6 2 1-2 3 4 1-1v-3l2-4 5 3h2v-4h7l-1-1v-2h3v3h2l-1 3h4l1-2-3-1-1-3 2-3h3v-2l-3 1-3-1-1 2-2-1-1-3 1-3 5-1 2-1 5 3v-5h-3v-2l-6-1 1-2h7l5 3 3 7-2 8-6 7-12 6-10 2h-12l-13-4-10-6-7-9-5-10-3-12-1-15 4-18 7-14 8-8 12-6zm29 91 1 3v-3zm2 0 2 2v-2z" fill="#864326"/>
<path transform="translate(204,492)" d="m0 0h7l7 4 3 8 1 55 3 6 5 3h9l4-2 3-3 2-6 1-53 3-8 4-3 3-1h7l6 3 4 8v51l-3 15-6 11-8 8-10 5-8 2h-13l-13-4-9-7-6-8-4-9-1-4-1-20v-14l1-28 4-6z" fill="#8C2930"/>
<path transform="translate(484,492)" d="m0 0h17l10 4 8 5 7 8 5 11 1 4v12l-2-3-8 1-2-3 3-1 3 1 4-1-1-3-2-1 1-5h-3l1 4-5-1-7 2 1 4 2 1v2l-4 1-1-2-3-1-1 5h-4l1 4-4 2-2-4 1-1-7-2-8 3 1 1 1 3h-2v2l4 2v2l5-2 2 3h-20l3 10 4 7 6 3h11l7-3 7-4h8l7 6 1 9-4 6-7 6-10 4-9 2h-10l-13-3-10-6-8-8-5-10-3-10-1-8v-11l2-14 5-12 6-9 10-8z" fill="#926940"/>
<path transform="translate(509,408)" d="m0 0 29 1 4 1h11 4l8 2 4 9-3 5h-2v3h-6l5 1v1l-9 1 29 2 36 4 24 8 1 5-13-2-30-4-39-3-16-1h-66l-37 2-36 4-24 4-4-1v-3l9-4 16-3 2-2 23-3 40-3h-21v-1h10l1-3 3 1-3-3h-2l-1 3h-2v-2l-4 1-1 2-6 1-5-2v-3l-2 1-2-7 2-5 5-3h5 4v2h2v6l3-1 3-6 2-2 7-1 5 1 1-1h5v5l1-5 8-1z" fill="#ECEDEC"/>
<path transform="translate(830,492)" d="m0 0 4 2-4 5 1 2-3 2 4 9 4-1 7 3 5-3 1 6h-5l-7 7h-2l4 11v3l4 1 5 1 6-2 3-3 3-4-2-3h2l1-3 6 18 3 3 2 11 5 13v2h-3v-2l-4-2v-2h2v-5l-4 1v5l-9 2-1 5h-3v-6h-4l-1 3 4 2-3 1v2l3-1v2h-2v2l3 1h-2l2 7-1 1 4 5 4 2 7 1v1h-6v2l14-3-4 4-6 2h-7l-6-3-6-6-7-18v-2l-35 1-6 15-3 1 1 3h-2v3l-8 5-9 1-8-3-5-6-2-5v-10l13-36 2-5 1 4-6 17 4 8 3-1 1-5 1 3 3 1v2l7-2v2l3 1-1 4 2 1 2-1 1-5 3-5h2v2h4v-2l9 1 2-1 1 1 2-2v4l-19 1-4 10-3 9h2l3-12h2l2-3h38l3 8 2-1 2 4-4-13v-2h-17l-5-1 2-3 9 2 5-3 1-7 1-5-10-2-5 1-6-1-1 2-2-1h-9v-2h-2l-1-4-3-2 6-1 2-11 2-1-6-8-9-3 3-4 4 2v2l5-1-1-4 3 1v2l5-2 2-11v-3l5-2 4 1zm5 20m6 29 1 2 1-2z" fill="#E4EAEC"/>
<path transform="translate(511,283)" d="m0 0h2l2 4 5 3 5 7 1 3v9l-4 9-7 8v4h3v2h2v-8l3-5 4-3 8-1 5 1 5 5 4 2 1-3-2-2h-2l-2-4-4 1-3-3v2l-8-1v-4l4-3 1 4h8l7 4 3 5v5l-5 1v2l-2 1 3 8-7 4h-11l-4-1 5 16 7 11v3l-6-7-3-6-2 1-3-7v-3h-2l-1 4-7 3-1-2-7 1v-2l-4-2-1-2-4 10-1-4-6 12-7 7-2-1 8-9 4-8 5-12v-3l-3 1h-12l-8-4-4-8v-7l4-7 8-4h8l-1-5 3 3v2h2v3l-7 1v-2l-7 1 1 3h-2l-1-1-1 4-3-1 1 6h1l4-6 4-1 5-2 9 2 4 4 1 3v8l6-2-2-5-5-5-4-7-1-4v-8l3-7 5-6 4-2z" fill="#5F5855"/>
<path transform="translate(523,379)" d="m0 0 5 5 11 8 7 3v1l6 1 38 3 34 5 22 4 12 4 5 5v5l-3 3-6-2-13-5-29-6-40-4-19-1h-79l-34 2-10 1h-10v-1l28-3 33-2 27-1h-56l-2 1h-19l-31 3h-8l2-2 39-6 45-4 3-2 12-7 7-7 1 4-1 3 3 5 4 2 4-2v2l6-1v2l6-6z" fill="#F5F7F8"/>
<path transform="translate(719,491)" d="m0 0 11 1 11 4 8 6 6 7 5 13 1 4v15l-3 5-7 3h-46l2 12 3 1 2 4 7 3 6 1v2l-8 2v2h2l3 3h3v2l-6 1-2-1v-4h-4v4l4 2-4 4v2l6 2 1-2 3 4 1-1v-3l2-4 5 3h2v-4h7l-1-1v-2h3v3h2l-1 3h4l1-2-3-1-1-3 2-3h3v-2l-3 1-3-1-1 2-2-1-1-3 1-3 5-1 2-1 5 3v-5h-3v-2l-6-1 1-2h7l5 3 3 7-2 8-6 7-12 6-10 2h-12l-13-4-10-6-7-9-5-10-3-12-1-15 4-18 7-14 8-8 12-6zm0 2-4 4 1 4-3 2v2h-2v-2l-5-4-2-1-1 2-5 1-3 4 1 3v4l-6-2-2 4 1 5 3-1 2-4 4-1v2h-2v5l-4-1-8 4-2 9h5l-4 2-1 4 5-1h2l-2 1v2l-5-1-1 1v15l2 5v2l6 1 1-6h3v2h-2v2l4-1 1-7 1 4 5 1 2-1v-9h18l3-2v2h2l1-4 2-2-1-5-2-2h8l1-1v-9l-4-6-5-4 2-2v-3h-2l1-3 3 3h4v3l-5-1v4l5 2v-2l3 1 1 2h-3l1 6 3 3h-2l-2 9-3-1-2 4v4h2l1 2 2-1v3l5-2-2-7 5-1-1 5h2l2 4 8-1-2-1-1-9-3-3h-3v2l-2-1 3-6 3 1 2 3 2-5-2-3h-6l-1-3h-2l2-5h7l-1-4-4-1 1-4-1-4-7-4-4 1-1-4h-2l-1 3 5 3-3 3-3-6h-2v3l-2-1 1-3h2v-3l-4 1v-2zm29 89 1 3v-3zm2 0 2 2v-2z" fill="#924437"/>
<path transform="translate(512,357)" d="m0 0 3 4 6 11 8 11 3 1 5 5 7 3 5 1 6 2v2l17-2 12-5 5-2v-2l9-6 1-2h2l2-4 5-5 4 15 5 9 2 4 14 7 14 2-1 3-17-2-30-5-31-3-33-2v-1l8-1-10-6-9-8v8l-7 7-3-1v-1l-6-1-1 2-5-3-3-6 1-5-7 7-12 7 13 1v1l-40 2-28 3-38 6-14 3-3-1 5-2-5-5 8 2 11-1 12-6 7-8 5-13 2-7h2l7 8 11 9 10 5 12 3v1h9l7-2h5l1-2 4-2 3-1 3-4 3-1 6-7 7-10 5-9z" fill="#7E5024"/>
<path transform="translate(432,491)" d="m0 0 8 2 5 4 2 5-1 10-4 5-4 2-13 2-5 3-2 2-1-5 4-1 1-3 2-1-6-5-4-1-2 3-7-2 1-8-2-7-5-1v2l-3 1-2 3 1 3h-5l-1 1v26l4-1 2 1v6h-2l1 2h5l2 2 1-2h7v4l2 1-1-6-5-1 2-4 1 3 5-2 2-6h2l-2 11-1 45-4 6-4 3-7 1-7-3-4-4-1-3v-81l4-8 5-3h9l6 4 3 5v4l3-3 6-8zm-28 20m-1 1 2 2h-2z" fill="#696B6E"/>
<path transform="translate(452,403)" d="m0 0h56l2 2-47 2-36 3 47-3h42v1l-23 2h-11l-2 1-2 6-1-4 1-3-8 2-5-1-6 2-4 7h-3v-3l-2-1h2v-2h-2v-2h-2l-1 2-1-1h-5l-5 2-1 7 2 4 2-1v4l10 1 2-4 3 1v2l3-3h2l1-2 2 4h2v2l-5-1v2h29v1l-46 3-30 3-30 5-10 3-7 5 2-4v-4-2h5l4-1 2 1 1-3h2l-1-3h6l-2 1 7 2 1-6h2v-2l-3-3h2l-1-4h-5v-2h-2v2h-2l-2 8-1 3-3 1v-6l-3-2v-2l-5 3-3 3v-3l-4-2 2-1 4-1 14-6 17-4-24 4-1-3 4-3 14-4 39-4h19z" fill="#885C31"/>
<path transform="translate(798,499)" d="m0 0 1 3v6l-2 1-1 4 3 2 5 1 5 2 5 6-3 12-1 2-3 2 2 2-1 3h2v2l9-1h3 9l3-1 5 2 5 1-2 1 1 7-2 5-5 3-6-1h-4l4 1h15l3 3 4 13-1 3-3-4-2-2-2-8-38 1-2 5h-2l-3 9h-2l3-12 3-7 1-1h19l-1-1h-4-6l-3-2v2h-4v-2h-2l-2 5-2 6-3 1-2-2 1-4-2-1v2l-2-1v-2l-5 1-3-3-3 4-3-1-1-6 7-19 8-23z" fill="#E1E7E9"/>
<path transform="translate(393,302)" d="m0 0 9 1 7 6 3 5 1-5 3-1 1 2 2-2 1 10-3 8-4 3-1 5 11 16 1 3-1 3 2 1h-7l-1-9-1-1h-7v-2l3-2-3-3-1 4-2 11h2v2h2v2l-4 2-1 5 1 4-3 1-1 6 1 2-4 4-2 6-7 2v2l1 2-3 1-1-4-6 1-7-3h-3l-2-5 5 2 4 2h3l-9-4-4-5 12 6h7l3-3-3 1-8-4-1-2h2l-1-23-1-7h-2l1 14v15l-5-5 1-1-1-13-1-4-6-4-1-4v-7l2-2 4 6 4 2 2-4 5-2v12l12 16 2 4 2-2 1-4 1-1h-1v-32l-8-5-4-7-1-8 2-6z" fill="#835629"/>
<path transform="translate(405,459)" d="m0 0h17l33 1h118l30-1h14v1l-14 4h-6l-1-3-4 1-47 3 32 1h23l39-3 14-3 3 1-6 3-16 3-24 2-37 2h-111l-48-2-31-3-12-3-2-2 26 3h13l7-1-10-3z" fill="#F6F9FA"/>
<path transform="translate(625,302)" d="m0 0 8 1 4 2 2 6-1 9-4 7-6 4h-3l1 27 2 11 5-5 9-11 1-2v-8l1-3 4 2 2 2 5-1 2-5 3 1-1 5-6 5-2 2 5-2 5-5-1 4-5 5-2 1-1 3-1 12-1 3 2 1-8 8-4 2h-6-1l4 3h8l9-6h3l-7 6-6 3h-7l-6-4-5-7-4-15-1-8-1-22v16l2 17 4 13 6 8 4 2 10 1-1 4h-2v-2l-4 1-2-1v3l-3-1-1-3-6-2-2-7-1-1-5 1v-2l3-3-4-8 1-4-1-6-4-1 3-6v-5l-4-1 3-1 1-4-2-2h-2v2l-2-1 2-5 1-3-4 3 3-6-4 1-4-8-1-10 2-4 1 2h3l3 3 4-6 5-4z" fill="#815529"/>
<path transform="translate(485,442)" d="m0 0h62l2 2-59 1-8 1 1 1v9l1 2 34 1 13 1v1h-76l-33-1h-15l14 3v1h-15l-20-2-11-3 1-3 12-4 29-5 31-3z" fill="#815020"/>
<path transform="translate(484,492)" d="m0 0h12v2h3v2l4-1-2 5v2l3 3 1 2 3-6 6-1v2h3v2l3 1-1 3 1 5h2l-2-5h3l1 4-3 3h-2l-2 4v3l-11-2v-3h-3l-2-5 3-1v3l2-4-4-1-5-2-2 6h-6l2-2 2 1v-2l-4-1v-2l-7 4v2l3 2-4 3h-2v2l-3 1 1 2-2 3-5 1 1 3h2v-2h2v9l1 4-4 4v4l-3-1-1-4-4-1-7 2v2 3l2 1-6-1h-3v-11l2-14 5-12 6-9 10-8z" fill="#956C45"/>
<path transform="translate(893,503)" d="m0 0 3 4 1 3 2 1v2h7v2l6-3 2 1-1 3h-12v2h-2l-1 2-3 4v7l2 6-2 4 2 2 3-2v-2l6 1 4-3v3h2v-2l5-2v-2h2l-1-11-1-3-2-1 3-3v-6l-1-2 3-4v81l-4 6-5 3h-9l-6-4-3-6z" fill="#E2E9EA"/>
<path transform="translate(541,500)" d="m0 0h1v68h1l1 16 3 6 5 4 7 1h5l-3 2h1l8-4v-2l2-6 1-10h2v-50l5-5h5l3 3 1 4 1 25h1l1 33 4 8v2l6 2h7l6-2v-3l4-5 1-5h2v-40l1-17 5-5h5l4 5 1 35h1l1 26 4 6 7 3h8l-2 2 8-4 2-7 2-14 1-46h1l1 15v37l-2 11-5 8-6 4-3 1h-8l-6-3-5-6-2-5-1-45-1-10-1-1h-7l-1 50-2 8-5 8-5 3-4 1h-7l-6-3-6-7-2-10-1-50-7-1-2 7-1 47-3 9-8 7-3 1h-8l-6-3-6-7-2-6v-81z" fill="#825223"/>
<path transform="translate(556,319)" d="m0 0h1v13l-3 6-5 5-8 4h-8l3 9 5 7 2 1v2l5 2 7 3h11l9-5 9-8-1-9 4 6 10-13 2-3h2l1-3 5-4 1-2 5-1-1 4 4-2-2 4-2 5 1-1 4-1 1 3-2 4-9 2-1 10h-5l-4 5v4h-5l-4 7-8 1-5 3h-2l-1 3-2 1-1 3-6-2-6 1v2l-2-1-3-3h-7l-4-7-8-8-5-9 1-3 6 11 3 2-7-10-5-14-1-5 5 1h11l6-4-1-6-2-1 3-1v-2h5v5h2v-4h2z" fill="#E0DCD5"/>
<path transform="translate(695,319)" d="m0 0h3 3l1 4-3 1v-3l-5 4-2 5-1 12-2-1-1-4h-4l-6-4 1 3 7 4 1 5h5v1h-7l-2-1-1 3h-2l-1 4-5 8 3 1-2 4h-2l-1 4 2 4-10 14-9 10-7 5-6 2h-7l-3-2 2-6 3-1v-3h6v2l2-2v-1l-9-1-6-4-6-9-3-11-2-17v-16l2-1 1 23 3 17 4 9 4 5 4 2h7l9-5 2-3-8 6-2 1h-8l-6-5 1-2 2 2h6l6-4 6-7 11-14 11-16 1-13 2-3 1 2 1-2 6 2 4 2z" fill="#E7E4DF"/>
<path transform="translate(330,517)" d="m0 0 7 1 6 4 4 7 1 4v19l-3 8-5 6-5 2-9-1-5-3-4-11-1-5v-12l3-10 3-5 4-3z" fill="#F4F7F7"/>
<path transform="translate(496,492)" d="m0 0 9 1 12 6 7 7 7 14 1 4v12l-2-3-8 1-2-3 3-1 3 1 4-1-1-3-2-1 1-5h-3l1 4-5-1-7 2 1 4 2 1v2l-4 1-1-2-3-1-1 5h-4l1 4-4 2-2-4 1-1-7-2-8 3 1 1 1 3h-2v2l4 2v2l5-2 2 3h-15l2-8-2-2 1-2h-8l1-9h-2v2h-2v-2l-2-1 3-2h3l1-3-2-2h5v-2l5-3-4-2v-2l6-4h3v2l4 1v2h-3l5 1 1-4 1-2 5 1 4 2-1 4-2 1 1-4-2 2 1 3 4-1 1 2-2 2 9 2 2 1-1-4 3-4h4v-5h-1v4h-2l-2-6 1-2-2-1v-2h-3v-2l-4 2-2-1-1 6-4 1 1-3-3-1v-2l-2-1 3-5h-3v-2h-3z" fill="#835425"/>
<path transform="translate(405,438)" d="m0 0m-7 1h7l-1 2-16 3-9 3 1 3 13-2 39-5 28-2 20-1h66l45 3 35 4 17 3v-3l-15-5-8-2v-1l11 1 17 4 10 5 1 7-3 4-17 4-39 3h-23l1-2 46-2 19-3 6-2-3-2-14-4-24-4-42-4-19-1h-62l-37 2-38 4-26 5-8 3-1 2 18 3 13 1 2 2h-13l-17-2-9-2-4-5v-5l7-6 15-4z" fill="#F6F9FA"/>
<path transform="translate(260,544)" d="m0 0h7l3 3 3 2 1 1v2l-5 1v4h4l-1 4h-3v-2h-2l-1 4 2 1-5 2v2l1 4-3 1-2 6h2v-3h3v4l-5 1 1 3-4 1-1 3-4-1-1-2-8-2v2l2 1-7 1 1 5-2 1-6-1-1-3v3h-2v-2l-3-1-1-5 1-3h-2v2l-7 1 1 3h-2v-2l-5-1-3-3-2-4-1-3 4-6 6-3 8 1 1 6-2 2 1 2 6-2 3-2h6l8 4 3-7h2v-2l6-4-1-3-3-3v-2l4 1-3-3 1-3 2 1 2-4h2z" fill="#C01E58"/>
<path transform="translate(505,369)" d="m0 0 1 2 5-1-5 6v9l-1 2 3 1 1 5-2 2-5-3-3-6 1-5-7 7-12 7 13 1v1l-40 2-28 3-38 6-14 3-3-1 5-2-5-5 8 2 11-1 12-6 7-8 5-13 2-7h2l7 8 11 9 10 5 12 3v1h9l7-2h5l1-2 4-2 3-1 3-4 3-1 6-7z" fill="#7F552D"/>
<path transform="translate(490,444)" d="m0 0h59l11 1-1 13-3 1-25 1-47-1-2-5v-7l-2-2z" fill="#F6F9FA"/>
<path transform="translate(204,492)" d="m0 0h7l7 4 3 8 1 55 3 6 5 3h9l4-2 3-3 2-6 1 2 4 2-2 6h-2v2l-2 2-2 5-2 1-7-4h-6l-5 1-1-7-7-3-1-3 3-3 1-14-3 1-3-2 1-5 3-3-1-2-4-3v-2h5l-2-5-5-2-8 1-2 4-1 6-2-1-1-1v3h4v5l-5 1-1-1v-37l4-6z" fill="#892D2D"/>
<path transform="translate(719,493)" d="m0 0 7 1v2l4-1v3h-2l-1 4 2-1v-2h2l3 6 3-3-5-3 1-3 3 1v3l5-1 6 4 1 5-1 3 5 2v3h-7l-2 5h2l2 3h5l2 4-3 4-2-4-3 1-2 5 2 1v-2l4 1 2 2 1 9 2 1-9 1-1-4h-2l1-5-5 1 2 7-5 2v-3l-3 1v-2h-2v-5l2-3 3 1 2-9h2l-4-5v-4h3l-1-2-3-1v2l-5-2v-4l5 1v-3l-5-1-2-2-1 3h2l-1 4-8-1-3-5v-2h-2l-1 3-3 3-1 2-1 3-3 1 2 2h-5l-1-3h-6v-2h2v-2l-5 1-2 5-3-1 1-6 2-2 5 2v-6-3l4-3h3l1-2 2 1 5 4v2h2v-2l3-3v-4z" fill="#F3F1F4"/>
<path transform="translate(830,492)" d="m0 0 4 2-4 5 1 2-3 2 4 9 4-1 7 3 5-3 1 6h-5l-7 7h-2l4 15 1 5-18 1-13-1 3-14v-4h2l-6-8-9-3 3-4 4 2v2l5-1-1-4 3 1v2l5-2 2-11v-3l5-2 4 1z" fill="#E4EBED"/>
<path transform="translate(612,539)" d="m0 0 4 1 2 9v13l-3 2h2l-1 5-3 1-1 2h2v-2h3l1 3v4l-1 3 1 1-2 6-4 4-5 1-7-1-6-6v-38l2-3 3-1 2-2v2l2-1 9 1z" fill="#A8CED4"/>
<path transform="translate(432,491)" d="m0 0 8 2 5 4 2 5-1 10-4 5-4 2-13 2-5 3-2 2-1-5 4-1 1-3 2-1-6-5-4-1-2 3-7-2 1-8-2-7-5-1v2l-3 1-2 3 1 3h-5l-1 1v34l2 2v3h-2v20l2 1h-2l-1 19h-1v-81l4-8 5-3h9l6 4 3 5v4l3-3 6-8zm-28 20m-1 1 2 2h-2z" fill="#66696D"/>
<path transform="translate(779,537)" d="m0 0 1 4-6 17 1 7-2 7 2-2v-3l3 1 9-1 6 3 1 4 2 1 1 5-2 5h3l-1 5 1 3h-2v3l-8 5-9 1-8-3-5-6-2-5v-10l13-36z" fill="#C7CED0"/>
<path transform="translate(409,339)" d="m0 0 4 4-4 2v2l7-1 3 5-1 6h7l3 5-1 3 6 1 3 4v2l6 2 3 3v2h7l5 4 6-2 5 5-1 3h2l-1 3h-11l-4-2-2 1-5-2-3-2v-2h-5l-6-5v-2l-4-1v-2h-3l-2-5 1-2-3 1v-2h-3l-2-3h-2l-1 5-1 3-1 6-4 6-2 6-1 2-4 1-3-2 1-8 4-5-1-2 2-5 2-1-1-5 2-5 4-1v-2h-2v-2h-2v-9h2l-1-5z" fill="#ECF2F3"/>
<path transform="translate(399,495)" d="m0 0 5 1 3 7-1 7h2v2l3-1 4-2 6 3 1 3 3 1-3 1-1 4-2 1-2-1 1 7h-3l-1 6-2 2h-4l-1-2-1 2 6 1v3l-1 4-3-1 1-4-3 1-4-1-1 3-2-2h-5l-1-3h2l-1-4 1-2h-6l-1-2v-24l2-2h4l-1-3 2-2 1-2 3 1zm5 16m-1 1v2l2-1z" fill="#5F6266"/>
<path transform="translate(449,498)" d="m0 0 2 2 1 13 3-5 1 2-6 13-2 10v17l1 7 2 4 4 11 6 9-1 2 4 5h1 3l9 5-3 1 8 3 4 1h17-2-12l-6-1v-1h17l12-3 12-6 6-8 1-2 1-9 2 3v10l-4 8-8 7-8 4-14 3h-13l-13-4-11-7-8-10-6-13-3-11-1-10v-11l1-10-9 3-10 2-5 5-2 10-1 39h-1v-55l4-6 5-3 13-2 5-2 2-5 2-3z" fill="#885B2F"/>
<path transform="translate(259,492)" d="m0 0h7l6 3 3 5v14l-2 1 1 3-4 1-2-1 1 5 4 1 1 4h-5v4l5-2v5l-4 2v2h-3v2h-4l-5-2-6-1 2-8-2-3v-2l7-4 3-2-4-2-2-4-6-2 1 3 5 3-1 4-3 1v-2h-2v20h5l1 3h-2v2l-3-1-1 12h-1v-52l3-8 4-3z" fill="#962538"/>
<path transform="translate(275,503)" d="m0 0h1v51l-3 15-6 11-8 8-10 5-8 2h-13l-13-4-1-2h3v-2h2v-2l4 2 4 3v2h2v-3l2 1-1 2h7l-1-2 1-3 5-1v-3l10 2v2h3l3-3h2l-2-4h6v-4h-3v3h-2l2-7h3l-3-6 5-3 1-4h2v2l3-1v-2l-4-1 1-5h5v-2l-3 1-2-4-2-2h-7l-5 6h-2l1 2 1 3-3 1 3 3v3l2 1-5 1-1-5-2-1 1-16 4 2v-2h2l-1-2-5-1v-20l5 1-1-5-4-2v-3l7 2 1 4 6 1-5 4-3 3h-4l3 4-1 7-1 1 6 2 4 1 2-1v2h2l1-4h2l1-2 2-1v-3l-4 1v-4l4-1-1-3-3-1-1-5h5v-3l-2-1 3-1z" fill="#8B2A2F"/>
<path transform="translate(463,438)" d="m0 0h116v2h13l21 2-7-1v-1h17l15 4 6 3v4l-13-2-30-4-39-3-16-1h-66l-37 2-36 4-24 4-4-1v-3l9-4 16-3h25z" fill="#815020"/>
<path transform="translate(511,283)" d="m0 0h2l2 4 5 3 5 7 1 3v9l-4 9-7 8v4l3 1-4 1-6-1 2-1-2-5-5-5-4-7-1-4v-8l3-7 5-6 4-2z" fill="#5B5D5F"/>
<path transform="translate(744,562)" d="m0 0h7l5 3 3 7-2 8-6 7-12 6-10 2h-12l-13-4 3-8-4 4-4-1 2-7h-3l-1 2 3 1-5 2-2-4-3-3 2-3-1-4 4-1v-3l3-2 8-1 3 4v3l-5-1-1 3-2-2v3l7 1 2-5 3 1-1 2h2l-1 4-3 1 3 4 4 2-4 4v2l6 2 1-2 3 4 1-1v-3l2-4 5 3h2v-4h7l-1-1v-2h3v3h2l-1 3h4l1-2-3-1-1-3 2-3h3v-2l-3 1-3-1-1 2-2-1-1-3 1-3 5-1 2-1 5 3v-5h-3v-2l-6-1zm4 20 1 3v-3zm2 0 2 2v-2z" fill="#8F362F"/>
<path transform="translate(692,519)" d="m0 0 7 2 1 6v2h4l-1 5-6-1v4h2v-2l4 1v4l3-4h9l-3 3 1 3 3 1-3 1-1 2 1 2h-9v9l-4 1-3-1-1-4-1 7-4 1v-2h2v-2l-3 1-1 5-6-1-2-10v-12l4-1 2 1v-2l3-2-5 2h-3l2-5 3-1h-5l2-9z" fill="#C0828D"/>
<path transform="translate(408,328)" d="m0 0m-12 1h12l-3 3h-2v24l-3 16-6 12-4 4-9 1-9-4-4-5 12 6h7l3-3-3 1-8-4-1-2h2l-1-23-1-7h-2l1 14v15l-5-5 1-1-1-13-1-4-6-4-1-4v-7l2-2 4 6 4 2 2-4 5-2v12l12 16 2 4 2-2 1-4 1-1h-1v-32l-2-1z" fill="#835426"/>
<path transform="translate(490,493)" d="m0 0 9 1v2l4-1-2 5v2l3 3 1 2 3-6 6-1v2h3v2l3 1-1 3 1 5h2l-2-5h3l1 4-3 3h-2l-2 4v3l-11-2v-3h-3l-2-5 3-1v3l2-4-4-1-5-2-2 6h-6l2-2 2 1v-2l-4-1v-2l-7 4v2l3 2-4 3h-2v2h-6l-6-2v-3h-2l1-4-3-3 2-3h2l1 2 1-5 6-3 1 2 5 1 1 3v-3h2v-2h2l-1-3z" fill="#F2F3F3"/>
<path transform="translate(869,549)" d="m0 0h1l4 13 3 10h-3v-2l-4-2v-2h2v-5l-4 1v5l-9 2-1 5h-3v-6h-4l-1 3 4 2-3 1v2l3-1v2h-2v2l3 1h-2l2 7-1 1 4 5 4 2 7 1v1h-6v2l14-3-4 4-6 2h-7l-6-3-6-6-7-18v-2l-35 1-6 15-3-3-5-1 3-2v-4l1-4-3-1v-4l-6-2-11 1v2l-3 1-2 4 1-5 4-9 2 4 3-1 1-5 1 3 3 1v2l7-2v2l3 1-1 4 2 1 2-1 1-5 3-5h2v2h4v-2l9 1 2-1 1 1 2-2v4l-19 1-4 10-3 9h2l3-12h2l2-3h38l3 8 2-1 2 4-4-13v-2l-2-1 11 1 3 1 3-1h3l-2-6h2v2h2l2-8-3-1h3z" fill="#515257"/>
<path transform="translate(279,500)" d="m0 0 2 3 1 5v53l-4 16-6 10-8 8-12 6-10 2h-11l-10-2-12-6-9-9-6-10-3-9-1-5v-59h1l1 51 3 14 10 20 6 4 2-1 10 4-1 2 5 1h17l12-4 4-3-4 1 4-4 6-5 6-10 4-14 2-2z" fill="#86592C"/>
<path transform="translate(653,460)" d="m0 0 3 1-6 3-16 3-24 2-37 2h-111l-48-2-31-3-12-3-2-2 26 3 27 2 25 1h127l26-1 39-3z" fill="#815020"/>
<path transform="translate(555,492)" d="m0 0 9 1 4 2 4 6 7-6 6-3h10l7 3 7 6 2 3 4-2 7-6 9-4h12l7 3 8 7 6 12 2 7 1 8v55l-4 6-4 3-9 1-7-4 1-2 5 1v2l6 1 1-3 2 2 5-4 2-6-2-1h2l-1-8 1-2-5 1v-2h5l-1-5v-40l-1-7-2-1-1-5-4-7-7-6-7-3-7 1-2 1v-2l-10 4-5 4-1 3h-2l-1 3-4-1-3-2-1-5-4-2-6-1v-3h-8l-10 5-4 6-4-1-3-6-4-3-5-1-7 3-3 4-1 6 1 2-1 6 2 5h-3l1 12v3 9l2 1-2 1 1 3h-2v2l2 1h-2l2 6-1 3 3 2-3 3-1 6h3l-2 5-1 2 3 1-2 1 3 7 3 3-5-2-3-5v-84l4-6z" fill="#6E5033"/>
<path transform="translate(657,338)" d="m0 0 3 1-1 5-6 5-2 2 5-2 5-5-1 4-5 5-2 1-1 3-1 12-1 3 2 1-8 8-4 2h-6-1l4 3h8l9-6h3l-7 6-6 3h-7l-6-4-5-7-2-6v-6l1-1 1-4 2 8 5-5 9-11 1-2v-8l1-3 4 2 2 2 5-1z" fill="#845426"/>
<path transform="translate(628,520)" d="m0 0h5l4 5 1 35h1l1 26 4 6 7 3h8l-2 2 8-4 2-7 2-14 1-46h1l1 15v37l-2 11-5 8-6 4-3 1h-8l-6-3-5-6-2-5-1-45-1-10-1-1h-7l-1 50-2 8-4 4-4-1 5-6 1-5h2v-40l1-17z" fill="#87592C"/>
<path transform="translate(374,515)" d="m0 0 2 2 4 13 1 7v16l-3 17-8 16-10 10-10 5-5 1h-12l-10-3v15l-2 9-4 6-3 3-6 2h-7l-8-4-2-4 7 3h11l7-4 4-6 1-6h-2l-1 7-6 7-5 2h-8l-3-2h10l6-3 4-5 1-4 1-26 4 1 7 4 6 1-2 2h12l11-4 8-6h-1l-4 2 6-7 8-16 4-14v-23l-3-11z" fill="#86592C"/>
<path transform="translate(179,541)" d="m0 0 5 5 4 10 1 4v11l-4 13-5 7-10 7-8 3-9 2h-14l-16-4-8-4-10-9-4-8v-10l2-2 1 11 6 9 10 6 10 3 7 1h12l12-3 9-5 5-5 5-7 3-10v-16l-4-7z" fill="#835629"/>
<path transform="translate(525,521)" d="m0 0h3l-1 5 3 1v3l-5 2-4-1 1 2 8-1 2 4v6l-5 5-5 2h-26l-4-2-3 1-4-4v-2h2l-4-4 10-4 7 2 2 1-3 1 3 3 2-2v-3l4-1 1-4 4 1v2l4-1-4-4 1-4 7-2 5 2z" fill="#92683F"/>
<path transform="translate(532,306)" d="m0 0 2 4h8l7 4 3 5v5l-5 1v2l-2 1 3 8-7 4h-11l-4-1 5 16 7 11v3l-6-7-3-6-2 1-3-7v-7l-1-7h2v-3h-6l2-12 6-5 8-1 5 1 5 5 4 2 1-3-2-2h-2l-2-4-4 1-3-3v2l-8-1v-4z" fill="#575455"/>
<path transform="translate(678,519)" d="m0 0 1 4-2 9v18l4 15 7 14 6 8-4-2 5 5 14 7 5 1h1l-10-3 3-1 9 2h12l12-3 5-1h3l5-5 5-9 1-9-1-4 3 3 1 10-3 8-4 5-10 7-12 4-6 1h-13l-12-3-9-5-9-8-6-10-4-10-2-11v-19l4-15z" fill="#825426"/>
<path transform="translate(356,366)" d="m0 0 2 1 1 3 3 2 1 3 5 4 4 5 9 4h9l-2 2h-10l-8-4 3 5 1-2 8 3h5l2 3-1-1 2-4 7-1v2l7 1 2-8 1-2 3-4 1-8 4-2-3 12-7 14-9 7-9 3-9-1-7-4-7-6-12-16 2-4 2-1 2 1-3-5z" fill="#DDE3E5"/>
<path transform="translate(620,332)" d="m0 0h1l1 23 3 17 4 9 4 5 4 2h7l9-5 3-3 3-5 5-5h2l1-4 3-1 1-3 5-2 1 3-2 2h-2l-1 4 2 4-10 14-9 10-7 5-6 2h-7l-3-2 2-6 3-1v-3h6v2l2-2v-1l-9-1-6-4-6-9-3-11-2-17v-16z" fill="#D1D8DA"/>
<path transform="translate(869,559)" d="m0 0 1 2h2l1 3-1 2h-2v2l5 1-1 3 5-1 1 2v11l-5 8-5 2h-7l-7-4-3-7-1-6-1-1v-2l2-1-3-2 1-4 5 1-1 6 2-1 1-4 4-2h6l-1-5z" fill="#DCE2E4"/>
<path transform="translate(833,545)" d="m0 0 9 2 2 2h-2l1 7-2 5-5 3-6-1h-4l4 1h15l3 3 4 13-1 3-3-4-2-2-2-8-38 1-2 5h-2l-3 9h-2l3-12 3-7 1-1h19v-5h3l-1-6v-2h2v-2h-5v-3h9z" fill="#E8EFF1"/>
<path transform="translate(743,562)" d="m0 0m-2 1 8 2v2h3l1 3-1 2-6-2-4 2-2-1-1 5h3l-1-2 6 2h2v2l-3 1-1 3 3 3-1 3-6-1 3-1v-2h-2v-3h-3v2h2l-1 2-7-1v4l-3 1-4-3-2 5 1 2-3 1-2-4-3 1-5-2 2-4h2v-2l-4-2 1-4h4v4h8v-2l-3 1-3-2v-2h-2v-2l3-2h5v-2l8-2zm7 19 2 2-2 1zm2 0h2l-1 2z" fill="#993C3C"/>
<path transform="translate(580,517)" d="m0 0 6 1 5 4 1 3 1 58 3 6 4 3 8 1 8-4 3-2-2 4-2 2v3l-6 2h-7l-7-3-1-4-4-9h-1l-1-55-2-5-1-1-7 1-2 3-1 50h-2v10l-2 5v3l-6 4-3 1h-8l-3-2h13l1-4 5-6 1-3v-50l2-10 5-5z" fill="#F4F6F7"/>
<path transform="translate(896,564)" d="m0 0 4 2v3l6-2 10 2 2 5 1 5-1 8-6 5-2 1-9-1-5-5-2-6 1-7h2l-1-4-2-1v-4z" fill="#DFE6E8"/>
<path transform="translate(901,516)" d="m0 0h12l3 1 2 5 1 1v11h-2v2l-5 2v2h-4l-3 1-5-2 1 3h-3l-1 2-3-3 2-6-2-4v-7l2-3-1-2 6-1z" fill="#EBF2F3"/>
<path transform="translate(506,331)" d="m0 0h12l7 2v3h-2l2 8-1 3h-2l-1 4-7 3-1-2-7 1v-2l-4-2-1-2-4 10-1-4-6 12-7 7-2-1 8-9 4-8 5-12 3-1-1-3z" fill="#63666A"/>
<path transform="translate(452,403)" d="m0 0h56l2 2-47 2-36 3-40 6-12 2-1-3 4-3 14-4 39-4h19z" fill="#815020"/>
<path transform="translate(798,499)" d="m0 0 1 3v6l-2 1-1 4 3 2 5 1 5 2 5 6-3 12-1 2-11 3-1-1-5-3v-2h-2l-2-6v-6l7-19z" fill="#ECF3F4"/>
<path transform="translate(595,564)" d="m0 0h3v2h2l-1 4 4-3 10 2-1 3h2v-2h3l1 3v4l-1 3 1 1-2 6-4 4-5 1-7-1-6-6v-20z" fill="#B1D9DF"/>
<path transform="translate(572,663)" d="m0 0h9l5 3 3 6-1 9-4 5-5 2-8-1-5-4-2-5 1-8 3-5z" fill="#4F5055"/>
<path transform="translate(599,663)" d="m0 0h10l6 5 1 2v10l-3 5-6 3-9-1-5-5-1-3v-8l4-6z" fill="#4F5055"/>
<path transform="translate(251,663)" d="m0 0h10l6 5 1 3v9l-3 5-7 3-8-1-6-7v-9l3-5z" fill="#4F5055"/>
<path transform="translate(775,567)" d="m0 0 3 1 9-1 6 3 1 4 2 1 1 5-3 7-2 3h-2l-3 3-4-2v-3l-2 4-4-1v-2l-3-1-3-3v-9l2-4 2-2z" fill="#E9F0F1"/>
<path transform="translate(273,663)" d="m0 0h14l6 4 2 4v9l-5 6-2 1h-15z" fill="#4F5055"/>
<path transform="translate(534,519)" d="m0 0 2 3 1 5v18l-3 6-6 5-3 2 5 4-1 2-6-4h-9l-5 1v-1h-20l-4 1 3 4-4-2-4-6-1-6h32l16-2 5-4 3-6v-11z" fill="#845526"/>
<path transform="translate(103,516)" d="m0 0h1l2 14 7 11 8 6 17 6 12 4 3 3v5l-3 3-7 1-9-3-10-7-10-2v-1l8-1-1-3-4-2-7-6-6-12-1-3z" fill="#855729"/>
<path transform="translate(489,514)" d="m0 0h8l6 4 4 7v8h-30l1-9 5-7z" fill="#895C30"/>
<path transform="translate(566,564)" d="m0 0 4 1-1 4h-3l2 6 2 2-1 4 1 3-4 6-6 2h-7l-5-4-1-6 1-1-2-1v-4l3-3h2v-3l3-2h8l3 1-1-3z" fill="#B2DAE0"/>
<path transform="translate(745,515)" d="m0 0h10l3 1 3 10v15l-3 5-7 3h-23l1-3h2l5-1v3h2l1-3v-2-2l-3-2 9-2-1 4-1 2h2l2 3 6-1-2-6-1-4-4-2v2l-3-1 3-6h4 3l-1-4-6 1-1-4h-2l1-5z" fill="#924634"/>
<path transform="translate(656,567)" d="m0 0 4 2v2l5-1v15l-5 6-3 1-1-2-1 2h-6l-2-2-4-2-2-11 3-7h3l4-2z" fill="#AFD8DD"/>
<path transform="translate(183,507)" d="m0 0 2 3-1 9-4 6-7 4-6 2 3 3-9-3-22-7-4-4 1-4 4-2h7l8 4 7 4h9l5-3 4-5z" fill="#825223"/>
<path transform="translate(629,517)" d="m0 0 7 2 3 4 1 3 1 57 3 7 6 3h9v2l-8 1-7-3-4-5-2-6h-1l-1-57-3-4-7 1-2 3-1 17-1 40h-2v5h-2l1-58 2-7 5-4z" fill="#F6F9FA"/>
<path transform="translate(405,331)" d="m0 0 4 1 5 5 10 14-1 5 2 1h-7l-1-9-1-1h-7v-2l3-2-3-3-1 4-2 11h2v2h2v2l-4 2-1 5 1 4-3 1-1 6 1 2-4 4-2 6-7 2v2l1 2-3 1-1-4-6 1-7-3h-3l-2-5 5 2 4 2h12l2-4 5-8 3-8 2-13 1-24z" fill="#ACB3B6"/>
<path transform="translate(449,498)" d="m0 0 2 2 1 13 3-5 1 2-6 13-2 10-1 17-2-2v-11l1-10-9 3-10 2-5 5-2 10-1 39h-1v-55l4-6 5-3 13-2 5-2 2-5 2-3z" fill="#815121"/>
<path transform="translate(532,403)" d="m0 0h21l31 2 32 3-7-1v-1h9l19 3 11 4 3 3v2l-9-1-23-4-31-4-42-3-31-1v-1z" fill="#825122"/>
<path transform="translate(267,559)" d="m0 0h2v2l5-1-1 9-6 11-8 8-10 5-8 2h-13l-13-4-1-2h3v-2h2v-2l4 2 4 3v2h2v-3l2 1-1 2h7l-1-2 1-3 5-1v-3l10 2v2h3l3-3h2l-2-4h6v-4h-3v3h-2l2-7h3l-3-6 5-3z" fill="#8C2A30"/>
<path transform="translate(206,493)" d="m0 0 6 1 3 2 2 5-1 3h-2l1 4 1-2h2l1 4-3 2-2-1v2l2 1h-3v2l-5 1h-5l-7-8-1-1v-7l4-6z" fill="#962837"/>
<path transform="translate(764,539)" d="m0 0 1 4-4 8-9 6 2 3h-12l-11 6-3-1 9-5-25-2 5 7-4-2-4-6-1-5 44-2 7-2 2-2 2-4z" fill="#8C6034"/>
<path transform="translate(496,492)" d="m0 0 9 1 12 6 7 7 7 14 1 4v12l-2-3-8 1-2-3 3-1 3 1 4-1-1-3-2-1 1-5h-3l1 4-5-1-9 2v3l-3-1v-4-3l3-1 5 2-1-4 3-4h4v-5h-1v4h-2l-2-6 1-2-2-1v-2h-3v-2l-4 2-2-1-1 6-4 1 1-3-3-1v-2l-2-1 3-5h-3v-2h-3z" fill="#936A42"/>
<path transform="translate(271,507)" d="m0 0 4 2v5l-2 1 1 3-4 1-2-1 1 5 4 1 1 4h-5v4l5-2v5l-4 2v2h-3v2h-4l-5-2-6-1 2-8-2-3v-2l7-4 6-4h2l2-6z" fill="#C11D59"/>
<path transform="translate(763,663)" d="m0 0h14l5 4 1 7-2 4-2 2 4 7h-6l-4-6-5-1v7h-5z" fill="#4F5055"/>
<path transform="translate(727,506)" d="m0 0 4 3 4 1v3l-4 1-1 2 5 2v-2l4 1v2h-3l1 6 3 1v2h-2l-1 9-2 1v-2h-2l-2 8h2v2l-5 3h-23l2 12 3 1 2 4 7 3 6 1v2l-8 2v2h2l3 3h3v2l-6 1-2-1v-4h-4v2h-2l-1 2-1-5h4l1-4-4 1 2-3-2-1-1 6h-5l-3-2v-3l-2-1h3l1 2 1-2 5 1-3-6-2-1v-7l-1-8 2-1 12 1 1-2v2l7-2v2h2l1-5 1-4-3-5h9v-9l-4-6-6-4 3-2 1-3h-2z" fill="#854026"/>
<path transform="translate(322,663)" d="m0 0h14l5 4v9l-3 4 3 5v2h-5l-4-6-5-1v7h-5z" fill="#4F5055"/>
<path transform="translate(706,663)" d="m0 0 5 1 7 12v2h2l2-6 5-9h5v24h-5l-1-12-6 10-3-1-5-9-1 12h-5z" fill="#4F5055"/>
<path transform="translate(213,663)" d="m0 0h5l7 13v2h2l2-6 5-9h5v24h-5l-1-12-6 10h-2l-6-10-1 12h-5z" fill="#4F5055"/>
<path transform="translate(397,304)" d="m0 0 6 1 5 6 1 8-3 5-5 3-6-1-4-1-2-4v-11l5-5z" fill="#E5EAEB"/>
<path transform="translate(655,663)" d="m0 0h8l2 2v6l-3 4 3 3 1-3 4 1-1 6 1 4h-4l-6 2-7-1-3-2-1-5 3-5 1-2-1-7z" fill="#5A5B60"/>
<path transform="translate(869,549)" d="m0 0h1l4 13 3 10h-3v-2l-4-2v-2h2v-5l-4 1v5l-9 2-1 5h-3v-6h-4l-1 3 4 2-3 1v2l3-1v2h-2v2l3 1h-2l2 7-1 1 4 5 4 2 7 1v1h-6v2l14-3-4 4-6 2h-7l-6-3-6-6v-12l3 1-3-12-1-5-2-1 11 1 3 1 3-1h3l-2-6h2v2h2l2-8-3-1h3z" fill="#C1CBCE"/>
<path transform="translate(624,304)" d="m0 0 7 1 4 6v8l1 2-3 3h-2l-3 2-3-1v-3l-2 5-5-3-3-5 1-9 5-5z" fill="#E6EBEC"/>
<path transform="translate(553,406)" d="m0 0 23 1 37 4 24 4 14 3-5-5-13-4-6-1v-2l19 3 12 4 5 5v5l-3 3-6-2-13-5-29-6-40-4-19-1z" fill="#F6F9FA"/>
<path transform="translate(525,521)" d="m0 0h3l-1 5 3 1v3l-5 2-4-1 1 2 8-1 1 5-6-1-3 10-4 1-1-3-2-1h2l-2-3-4 2-1-2-1 5-4 1-2-1 2-5-1-4 4-1 1-4 4 1v2l4-1-4-4 1-4 7-2 5 2z" fill="#F2F4F4"/>
<path transform="translate(346,663)" d="m0 0h5l10 13 1-13h5v24h-5l-9-12v-2h-2v14h-5z" fill="#4F5055"/>
<path transform="translate(631,492)" d="m0 0h12l7 3 8 7 6 12 2 7 1 8v55l-4 6-4 3-9 1-7-4 1-2 5 1v2l6 1 1-3 2 2 5-4 2-6-2-1h2l-1-8 1-2-5 1v-2h5l-1-5v-40l-1-7-2-1-1-5-4-7-7-6-7-3-7 1-2 1v-2l-10 4-3 3-2-1 4-5z" fill="#595049"/>
<path transform="translate(692,519)" d="m0 0 7 2 1 6v2h4l-1 5-6-1v4h2v-2l4 1-1 5-4 1-2-3-1 2-5-2v-3l-5 2h-3l2-5 3-1h-5l2-9z" fill="#F5F6F7"/>
<path transform="translate(505,369)" d="m0 0 1 2 5-1-5 6v9l-1 2 3 1 1 5-2 2-5-3-3-6 1-5-7 7-12 7 13 1v1l-40 2-21 1 1-2 10-1 1-1-4-3 5 1 11 2h10l7-2h5l1-2 4-2 3-1 3-4 3-1 6-7z" fill="#815020"/>
<path transform="translate(205,544)" d="m0 0h7l6 5v3l-4 1-1 2h4l1 3-5 5-4-1v3l-3 1-1-3-4 1-1-2h2v-2l-4 1-1-5 4-4h-4v-3l5-4z" fill="#C11D58"/>
<path transform="translate(491,572)" d="m0 0h5l6 4v3h4l-1 5h-2v4l-6-1v2h4l-2 4-3-2-2 3-3-1-3-5h-4v-3l1-1-2-1-1-5h4l1-3z" fill="#EDECE9"/>
<path transform="translate(328,520)" d="m0 0h7l5 3 4 5 1 3v22l-4 8-1-2 2-4 1-12-2-10-3-3-10 1-4 4-1 3v20l-2-2-1-4v-23l4-6z" fill="#815020"/>
<path transform="translate(893,503)" d="m0 0 3 4 1 3 2 1v2h7v2l6-3 2 1-1 3h-12v2h-2l-1 2-3 4v7l2 6-2 4 5 4-1 2h-3l-2 6 2 1h-2v5h2l1 4h2l-1 2h-4v4l5 2-2 1v2h-2v9l3 6 6 3h6l6-4 2-1-2 4-5 3h-9l-6-4-3-6z" fill="#505156"/>
<path transform="translate(399,519)" d="m0 0h8l2 4-1 1-1 8h2l1 4h-2l-1-2-1 2 6 1v3l-1 4-3-1 1-4-3 1-4-1-1 3-2-2h-5l-1-3h2l-1-4 1-2h-6v-2l5-1v-3h-2v-2h3l1-3z" fill="#EFF6F7"/>
<path transform="translate(619,524)" d="m0 0h1l-1 61-4 6-7 3-8-1-6-5-2-5v-58l2 4v8l4 1h-4l2 7-2 9 4 1h-4l1 10-1 7 2 1h-2l1 12 3 3 2 1v2h9l5-2 4-8h-2l1-5v-3-3h-3v2h-2l1-3 3-1 1-4h-2l1-2 1-4v-14l-3-1h3l1-16z" fill="#645241"/>
<path transform="translate(483,663)" d="m0 0h5l7 15 3 9h-5l-2-4h-11l-2 4h-5l6-16z" fill="#4F5055"/>
<path transform="translate(745,663)" d="m0 0h5l4 8 6 16h-5l-2-5-11 1-2 4h-5l9-23z" fill="#4F5055"/>
<path transform="translate(457,663)" d="m0 0h6l9 22v2h-5l-2-4-11-1-2 5h-4l1-5z" fill="#4F5055"/>
<path transform="translate(389,663)" d="m0 0h6l10 23v1h-5l-2-5-11 1-2 4h-5l3-9z" fill="#4F5055"/>
<path transform="translate(383,501)" d="m0 0h1l1 81 2 4 4 7v2l6 2h7l7-3 5-5 2-3-1 7-4 5-6 3h-12l-6-4-5-7-2-9v-71z" fill="#815020"/>
<path transform="translate(541,500)" d="m0 0h1v68h1l1 16 3 6 5 4 7 1h5l-3 2h1l8-4 4-3-2 5-7 6-3 1h-8l-6-3-6-7-2-6v-81z" fill="#845629"/>
<path transform="translate(206,520)" d="m0 0 8 1 3 2 1 5h-5l4 4 2 1-1 5-3-1-2-1 1 4-7 1-4-1v-3h-3l-1-3-2-1v-3l2 1 1 1 1-9z" fill="#C11D58"/>
<path transform="translate(511,361)" d="m0 0h2l5 10-6-2 7 6 1 8h-2l1 3-2 1-1 5-2 2-5-1-2-5-2-1v-11l5-5h-4v-2h2l2-6z" fill="#C3255E"/>
<path transform="translate(459,520)" d="m0 0h8l4 2-1 4-1 2h2v2h2v-2h2l-1 9-2 1-1-5h-2l1 3h-2l-1 2h-2v2l-6-1-6-3v-7l5-1v-5h-2v-2z" fill="#F2F3F3"/>
<path transform="translate(573,412)" d="m0 0h10l5 5 2 6-2 4-5 4-3-1h-5l-2-3-5 1-1-3h2v-2h2v-3l-2-1v-2l4-1z" fill="#EFF3F4"/>
<path transform="translate(833,545)" d="m0 0 9 2 2 2h-2l1 7-2 5-5 3-6-1-4-1-1-11h2v-2h-5v-3h9z" fill="#F0F5F7"/>
<path transform="translate(489,291)" d="m0 0 1 2 4 1-5 1 1 6 7-2 2 10 4 10 5 5 2 6-6 2-2-11-1-3-11-2-7 3h-2v3l-3 1 2 2-2 3v-3l-3-1-1-6 2-1h2v-3h2l1-1 7-1 1 1h6v-3h-2l-2-4-3-3v-9z" fill="#DFD8CF"/>
<path transform="translate(220,538)" d="m0 0h1l1 21 3 6 5 3h9l4-2 3-3 2-6 1 2 4 2-2 6h-2v2l-2 2-2 5-2 1-7-4h-6l-5 1-1-7-7-3-1-3 3-3 1-14-3 1-3-2 2-4z" fill="#8C2830"/>
<path transform="translate(620,332)" d="m0 0h1l1 23 3 17 4 9 4 5 4 2h7l9-5 3-3 3-5 5-5h2l1-4 3-1 1-3 5-2 1 3-2 2h-2l-1 5-4 1-3 6h-2v4l-7 4-3 3 1 2h-18l-6-4-6-9-3-11-2-17v-16z" fill="#CED3D6"/>
<path transform="translate(512,357)" d="m0 0 3 4 6 11 8 11 3 1 5 5 7 3 5 1 4 2-1 2h-17v-1l8-1-10-6-9-8v8l-7 7-3-1 2-1-1-2 3-9h2l-2-7-5-5-2-3 4 1v-1l-2-7h-2l-2 6-1 2h-2l2-6z" fill="#7B5026"/>
<path transform="translate(464,542)" d="m0 0 5 2 1 4 2 1-1-4h2l1 7 1 5-6-1-4 6-5-2h-6l1-3 4-1h-3l-1-2h-2l-1-4h4l-1-4 4-3z" fill="#F4F7F7"/>
<path transform="translate(718,517)" d="m0 0h7l6 4 2 4v5h-24l-1-2 3-6 4-4z" fill="#8C5F34"/>
<path transform="translate(432,663)" d="m0 0h11l2 3-1 2h-10l-1 4 9 2 4 4v5l-4 4-9 1-6-3 2-4 3 1h8l-1-3-10-4-2-5 2-5z" fill="#4F5055"/>
<path transform="translate(396,492)" d="m0 0h9l6 4 3 5-1 4-2-4-3-1h-3l-1-4-5-1v2l-3 1-2 3 1 3h-5l-1 1v34l2 2v3h-2v20l2 1h-2l-1 19h-1v-81l4-8z" fill="#4F5055"/>
<path transform="translate(758,578)" d="m0 0 1 3-4 5 1 2-9 6-3-1-9 3-6 1h-12l-6-1 4 1h21l-4 2h-18l-10-3-9-5-7-6 1-2 3 2-2-3 4 2 10 6 13 4h12l12-3 10-5z" fill="#EBEAE6"/>
<path transform="translate(670,526)" d="m0 0h1l1 15v37l-2 11-5 8-6 4-3 1h-8l-6-3-5-6-1-4h2l4 5 7 3h8l8-4 2-7 2-14z" fill="#815121"/>
<path transform="translate(688,663)" d="m0 0h10l2 1-1 4h-9l-1 4 9 2 4 5-1 5-3 3-9 1-6-3 2-4 3 1h8l-1-3-10-4-2-6 3-5z" fill="#4F5055"/>
<path transform="translate(300,663)" d="m0 0h17v4l-12 1v4l10 1v4l-10 1v4l12 1v4h-17z" fill="#4F5055"/>
<path transform="translate(365,337)" d="m0 0 4 5 5 3 2-4 5-2v8l-2 4-1-3h-2l1 14v15l-5-5 1-1-1-13-1-4-6-4-1-4v-7z" fill="#936A42"/>
<path transform="translate(398,543)" d="m0 0 8 1 2 1v3h2l-1 5-3 3-2 5-5 1-2-1-1 3-2-1 1-5-1-1v-7l-2 5-3 1 1-5 2-4h3l1-3z" fill="#E8F2F4"/>
<path transform="translate(514,565)" d="m0 0h7l2 2-1 5-1 2 4 1 2 2-1 4-3 2-4-4-1 4 3-1 1 2h-2v2l-6 1-3-3v-3l-4-1 3-3h2v-3h3v-2l-2-1-1 2-5-2 1-2z" fill="#E9E6E2"/>
<path transform="translate(286,502)" d="m0 0h1l1 110 3 9 2 4-3 1-4-8-1-10v-100z" fill="#815020"/>
<path transform="translate(456,523)" d="m0 0h2l1 5-2 2v-2l-3 1-1 4 2 1h-2l3 3 9 3v-2h2l1-4 1-1h2l2 5 2-1 1 4-4 4v4l-3-1-1-4-4-1-7 2v2 3l2 1-6-1h-3v-11l2-13h3l1-1z" fill="#90663C"/>
<path transform="translate(415,528)" d="m0 0h2l-2 11-1 45-4 6-4 3-7 1-4-2 4-1 2-2v2l4-1-4-2 1-3 3-1 2 3 3 1 2-5v-13l-1-5 1-4v-7l-3-1 1-5h-2v-3l-7-2 1-2h2l2-2h3v4l2 1-1-6-5-1 2-4 1 3 5-2z" fill="#6D5034"/>
<path transform="translate(388,407)" d="m0 0h4v2l-14 4-3 3v2l12-3 12-2h6l-4 2-22 5-12 6-5-1-1-7 4-4 9-4z" fill="#F6F9FA"/>
<path transform="translate(505,663)" d="m0 0h10l2 1-1 4h-10v3l10 4 2 2v7l-3 3-9 1-5-2-1-3 2-2 8 2 3-1-1-3-9-3-3-4 1-6z" fill="#4F5055"/>
<path transform="translate(695,319)" d="m0 0h3 3l1 4-3 1v-3l-5 4-2 5-1 12-2-1-1-4h-4l-6-4 1 3 7 4 1 5h5v1h-7l-2-1v-2l-5-1-3-1v-13l2-3 1 2 1-2 6 2 4 2z" fill="#815021"/>
<path transform="translate(612,345)" d="m0 0 5 2 1 5-4 7-4 1-4 5-2 3h-2l-1 3v-3l-4-1-1-5 5-6 5 1-1-6 2-4z" fill="#EFF5F7"/>
<path transform="translate(616,331)" d="m0 0 3 1 2 28 3 14 5 10 5 4 2 1 10 1-1 4h-2v-2l-4 1-2-1v3l-3-1-1-3-6-2-2-7-1-1-5 1v-2l3-3-4-8 1-4-1-6-4-1 3-6v-5l-4-1 3-1 1-4-2-2h-2v2l-2-1 2-5z" fill="#515358"/>
<path transform="translate(419,415)" d="m0 0 10 1v3l3 1v6l-3 5-2 1h-8v-2h-3l-2-8 2-5 1 2z" fill="#EBF0F2"/>
<path transform="translate(548,663)" d="m0 0h9l4 3-2 4-4-2-7 1-2 4 1 7 2 2h7l4-1 2 3-4 3-8 1-6-3-3-4-1-9 3-6z" fill="#4F5055"/>
<path transform="translate(353,385)" d="m0 0h3l8 13v8 1l1-9 3 3v10l3 1-6 3h-2l-4-6-5-8-2-7z" fill="#D57095"/>
<path transform="translate(399,567)" d="m0 0 6 1v2l4 1h-2l1 5-4 9-2 1v2h3v2l-7 2 1-5-4-3-2-7h-2l1-2 4-5z" fill="#EDF5F7"/>
<path transform="translate(719,491)" d="m0 0 11 1 11 4 8 6 6 7 2 4-1 4-1-2-3 1-1-3-5-2 1-3-2-2h2v-3l-5-1-2-2h-4l-1-3-2-1 1 4 7 1-4 2-3 3-3-5v-2h-2l1 3h-4l2-4h2v-3l-4 1v-2h-7l-5 3v-4z" fill="#8A4229"/>
<path transform="translate(704,563)" d="m0 0 4 2 1 5-5-1-1 3-2-2v3l4 2v3l1 6-3 3-4-1 2-7h-3l-1 2 3 1-5 2-2-4-3-3 2-3-1-4 4-1v-3l3-2z" fill="#EEDBE3"/>
<path transform="translate(432,494)" d="m0 0 3 1v2l3 1v2l3 1h-2l1 3-2 6-4 3-1 3-4 1-3-3 3-2-4-2-1-5 2-2 2-6z" fill="#F0F5F7"/>
<path transform="translate(399,495)" d="m0 0 5 1 3 7-1 7-2 4v3l-7-4v2l-3-1 1-3-5-5v-3h4l-1-3 2-2 1-2 3 1z" fill="#F1F7F8"/>
<path transform="translate(782,560)" d="m0 0 1 3 3 1v2l7-2v2l3 1-1 4 2 1 2-1 1-5 3-5h2v2h4v-2l9 1 2-1 1 1 2-2v4l-19 1-4 10-3 9h2l3-12h1v10l-3 7-3-3-5-1 3-2v-4l1-4-3-1v-4l-6-2-11 1v2l-3 1-2 4 1-5 4-9 2 4 3-1z" fill="#57595E"/>
<path transform="translate(302,495)" d="m0 0 7 1 2 1 1 5-3 1 1 6-3 4v4h-2l-1-2-5 2-1-6-1-3-4 1 1-3 3-3 2-4 2-1z" fill="#B1DEE4"/>
<path transform="translate(601,414)" d="m0 0 5 2v3h2l1 6-1 5-2 1-3 1-1 1-7-2-4-10 4-4h2v-2z" fill="#EEF2F4"/>
<path transform="translate(216,558)" d="m0 0 1 4v2l6 1 2 2v7l2 1-6 2-2-4 3-1-1-6h-8l-7 4 1 2h-3l1 6 2 2v3l7 2 1-1 7-1v-2h2l1 7-6-3v2h-2v2h-5l-9-8-2-3-1-6 3-2v-5h-5l1-2h5l2-1 1 3h2v-3l4 1 2-4z" fill="#8A2A2E"/>
<path transform="translate(745,515)" d="m0 0h10l3 1 3 10-2 16-5 1v-2l4-1-1-4-4-2 2-3-2-4-1-3-6 1-1-4h-2l1-5z" fill="#A2765D"/>
<path transform="translate(489,514)" d="m0 0h8l6 4 4 7v8h-30l1-9 5-7zm0 3-6 4-3 5v4h24l-1-7-4-5-2-1z" fill="#F6F9FA"/>
<path transform="translate(303,521)" d="m0 0 5 1 2 2v5l3-1 2 2-6 3v3l3 1-1 3-4-2v5l-5 1 1-2 2 1v-4l-4 2-1 2-3-1-4-2 2-2 4 1-3-7 8-3h3l-5-2-4 2 1-6z" fill="#B1DEE4"/>
<path transform="translate(718,514)" d="m0 0h7l6 4 4 5 1 2v8h-31l1-7 5-8 4-3zm0 3-5 3-4 5-1 4 1 1h24l-1-7-5-5-2-1z" fill="#F6F9FA"/>
<path transform="translate(519,579)" d="m0 0 4 2h2l3-2-2 4-7 6-10 4-9 2h-7l2-7 4 4 2-3h-4v-2l6 1v-4h2l1-4h5l1 4v2h8v-3h-2z" fill="#8C6034"/>
<path transform="translate(361,531)" d="m0 0 5 1 2 3v4h4v2h-4l-1 6-4 2v4h-2v-4l-5-1-2 1v-3h2l-1-7 3-7z" fill="#B1DEE4"/>
<path transform="translate(407,339)" d="m0 0 2 1-1 4-2 11h2v2h2v2l-4 2-1 5 1 4-3 1-1 6 1 2-4 4-2 6-7 2v2l1 2-3 1-1-4-6 1-7-3h-3l-2-5 5 2 4 2h10l6-4 4-6 4-13 2-17 1-9z" fill="#4F5055"/>
<path transform="translate(696,541)" d="m0 0 1 3h2l-2 4-1 1h-7v3h2v2l4-1 1 3-1 4-4 1v-2h2v-2l-3 1-1 5-6-1-2-10 1-5 3-2v2h2v-4l7-1 2 1z" fill="#F4F4F6"/>
<path transform="translate(511,290)" d="m0 0h2l4 7 1 2v8l-3 5-2 1-5-2-2-3v-10z" fill="#B0DCE2"/>
<path transform="translate(620,417)" d="m0 0 5 3v3h2v7l-3 4-4-1 1 3-6-2-2-3-2-9 3-1 3-3z" fill="#F1F6F7"/>
<path transform="translate(471,563)" d="m0 0 7 2 1 3-1 8-3 4 1 3-4 2-1-3v-5l-5 3h-3l1-4 3-1-3-2 1-6h2v-2z" fill="#F6F9FA"/>
<path transform="translate(404,417)" d="m0 0 5 2v3l4-1-2 9-5 5-6-1v-2h-2l-1-7 2-6z" fill="#ECEFF1"/>
<path transform="translate(300,548)" d="m0 0h7l3 3 1 5-3 1-3-3-3-1v2l5 1 2 2v5l-4 4v3l-3-1v-3l-6 2 1-3h2l-3-6 3-10z" fill="#AFDCE2"/>
<path transform="translate(601,667)" d="m0 0h6l4 4 1 6-3 5-1 1h-7l-4-4v-7z" fill="#F4F8F9"/>
<path transform="translate(574,667)" d="m0 0 7 1 3 4v7l-4 4h-6l-4-3-1-7 3-5z" fill="#F5F8F9"/>
<path transform="translate(344,325)" d="m0 0 5 3 1 14-3-1-6 2v2l-2 1h-6l4-4v-12l3-3h4z" fill="#8E643A"/>
<path transform="translate(253,667)" d="m0 0h6l4 4v8l-4 4h-6l-4-4v-8z" fill="#F4F8F9"/>
<path transform="translate(712,492)" d="m0 0h5l-3 2 2 5v3l-3 1v2h-2v-2l-5-2-2-3-1 3-5 1-2 3 1 3-1 4-5-1-4 4-1-3 6-8 7-6 10-5z" fill="#8C3C2C"/>
<path transform="translate(353,558)" d="m0 0 7 1 2 6-2 9-4 4v-2l-6-2-2-4 1-5 3-6z" fill="#9EC2C8"/>
<path transform="translate(571,525)" d="m0 0h1v58l-3 6-5 4-8 1-3-2h7l1-2h3l4-4 1-4-1-2h2l-3-5v-3l-2-1 1-2 3-1 1-3-3-1 3-1v-14l-4-1v-3l4-1-2-5h2v-8z" fill="#685039"/>
<path transform="translate(485,514)" d="m0 0v3l-5 5-2 5-1 6h17l-1 2-8 3 1 1 1 3h-2v2l4 2v2l5-2 2 3h-15l2-8-2-2 1-2h-8l1-9h-2v2h-2v-2l-2-1 3-2h3l1-3-2-2h5v-2z" fill="#815020"/>
<path transform="translate(334,494)" d="m0 0 4 2 3 8v6l-5 1-3 1-7-1-1-9 5-5 4-1z" fill="#B2DEE4"/>
<path transform="translate(356,506)" d="m0 0 6 4 1 2h-2l2 7-5 5-1 4h-2v-4l-4-2-2-4 1-6 4-5z" fill="#B1DEE4"/>
<path transform="translate(426,461)" d="m0 0 24 1 39 2 13 1v1h-47l-28-1 2-1v-2z" fill="#815020"/>
<path transform="translate(372,566)" d="m0 0 1 3-7 13-6 6 6-4-2 4-8 6-11 4h-12l-4-2h6v-2l14-3 8-4 8-8z" fill="#E2DCD4"/>
<path transform="translate(785,663)" d="m0 0h20v4h-8v20h-5v-20h-7z" fill="#4F5055"/>
<path transform="translate(696,552)" d="m0 0 2 1-1 4 8-1-1 8-8 2v3l-4 1h-6l-3-6v-2l3-1 3 2v-6l2-1 2 1v2h-2v2l4-1v-7z" fill="#A83C54"/>
<path transform="translate(824,507)" d="m0 0 2 2 6 18 1 6 1 2v5h-3l-7-18-1-1-6 19h-2l4-16z" fill="#505156"/>
<path transform="translate(779,537)" d="m0 0 1 4-12 33v18l4 4 8 2 10-1 4-1-4 4-6 2-9-1-6-4-4-6-1-3v-10l13-36z" fill="#4F5055"/>
<path transform="translate(103,564)" d="m0 0h3l1 3-1 2v7l5 8 10 6 15 4h12l14-3 7-4 2 1-8 5-8 3-6 1h-12l-14-3-10-5-6-5-4-7z" fill="#F1F3F2"/>
<path transform="translate(467,319)" d="m0 0h1l1 7 5 10 4 4 5 2h13l-4 10-4 7-1-2 4-9-12-2-8-6-4-8-1-8z" fill="#97704A"/>
<path transform="translate(278,667)" d="m0 0h7l5 4v8l-3 3-2 1h-7z" fill="#F5F8F9"/>
<path transform="translate(458,578)" d="m0 0 4 2 9 8 9 4 10 2 10 1v2h1l10-1-3 2-5 1h-17l-13-4-3-3h3l-7-4 1 2-4-2-5-5 1-2z" fill="#EEEEEB"/>
<path transform="translate(356,366)" d="m0 0 2 1 1 3 3 2 1 3 5 4 4 5 9 4h9l-2 2h-10l-10-5v2h-2l1-4h-2l-4-4 1 3-3 3-4-4-3-4 2-4 2-1 2 1-3-5z" fill="#C7C7C4"/>
<path transform="translate(290,539)" d="m0 0h1v5l3 1h-2v2l4 1-4 2-1 7 1 16 4 1-4 2-1 8v9l2 4-1 2 4 1-4 2-1 10-1 2-1-1v-64z" fill="#815020"/>
<path transform="translate(610,461)" d="m0 0m-18 0h4l1 2h12v1l-5 1-27 1h-38v-1l20-2z" fill="#815020"/>
<path transform="translate(669,384)" d="m0 0 2 1 1 9-3 10-5 3h-4v-8l3-7z" fill="#92293C"/>
<path transform="translate(638,521)" d="m0 0 2 1 2 5v11l2 1-1 5 2 2-1 3h-2l1 16-1 4 5-1 2-6 2 1-2 3 3 1-5 4-2 2-1-2v3l-2 1 1 13-2-1-1-4-1-57z" fill="#605044"/>
<path transform="translate(869,549)" d="m0 0h1l4 13 3 10h-3v-2l-4-2v-2h2v-5l-4 1v5l-9 2-1 5h-3v-6h-4l-1 3 4 2-3 1v2l3-1v2h-2v2l3 1h-2l-1 3-5-16v-2l-2-1 11 1 3 1 3-1h3l-2-6h2v2h2l2-8-3-1h3z" fill="#4F5055"/>
<path transform="translate(621,663)" d="m0 0h5v20h11v4h-16z" fill="#4F5055"/>
<path transform="translate(919,504)" d="m0 0h1v81l-2 2 1-7-2-1h2l-2-5-1-5 3-5-3-1 2-4v-10l-2-2 1-4 1-5-4-1 3-1v-2h2l-1-11-1-3-2-1 3-3v-6l-1-2z" fill="#4F5055"/>
<path transform="translate(607,369)" d="m0 0 2 4 1 8-3 3 3 7v2h-2v-2h-2l-2-3v-6h2l-1-2-4 1-2-1v-2h2l2-4zm-9 11v3l-2 4-5 1-6 5-5 3-2-1v-2l9-5h2v-2z" fill="#815020"/>
<path transform="translate(657,338)" d="m0 0 3 1-1 5-6 5-2 2 5-2 5-5-1 4-5 5-2 1-1 3-1 12-2 2v-12h-1v-11h-2l-1 3h-1l-1-8 1-3 4 2 2 2 5-1z" fill="#815020"/>
<path transform="translate(127,501)" d="m0 0 3 1 1 5-4 1 1 3-1 4h-2v2l-4 4-2-4-2-1-2-5 2-4 7-5z" fill="#A8D1D7"/>
<path transform="translate(408,328)" d="m0 0m-12 1h12l-3 3h-2v24l-2 13-1 2h-2v-6l1-1h-1v-32l-2-1z" fill="#75502C"/>
<path transform="translate(190,503)" d="m0 0h1l1 51 3 14 10 20 3 4-4-2-6-7-6-12-2-9z" fill="#825222"/>
<path transform="translate(713,577)" d="m0 0h4v4h8l3 2 5 1v4l-3 1-4-3-2 5 1 2-3 1-2-4-3 1-5-2 2-4h2v-2l-4-2z" fill="#F1E6EC"/>
<path transform="translate(490,317)" d="m0 0 7 1v4l3-1v2l-2 1 2 1v2h-3v3l-8 3-3-2-1-4 2-9z" fill="#A3C9CF"/>
<path transform="translate(602,379)" d="m0 0 4 1-1 8 1 3h2v2h2l-1 3h-10l-2-1-1 3-3-5 5-1-4-2-2-2 4-1 1-4 2-3z" fill="#B7D6DB"/>
<path transform="translate(509,331)" d="m0 0 8 1 1 4 1 1v5l-5 5h-3v-2h-4l-1-8 2-5z" fill="#B8E0E6"/>
<path transform="translate(425,357)" d="m0 0 7 6 10 9 13 7h15l10-4 2 1-3 6-6-1-4 2-2 2-4-3-7 2-4-4-7-1-1-4-9-2-1-5-7-3-1-5z" fill="#515257"/>
<path transform="translate(737,568)" d="m0 0 1 3h2l-1 5h3l-1-2 6 2h2v2l-3 1-1 3 3 3-1 3-6-1 3-1v-2h-2v-3h-3v2h2l-1 2-7-1-2-4 4-5-1-2zm11 14 2 2-2 1zm2 0h2l-1 2z" fill="#EFDEE6"/>
<path transform="translate(493,534)" d="m0 0 7 2 2 1-3 1 1 4-3 6-5-1-3 1-4-4v-2h2l-4-4z" fill="#F5F7F8"/>
<path transform="translate(893,503)" d="m0 0 3 4 1 3 2 1v2h7v2l6-3 2 1-1 3h-12v2h-2l-1 2-3 4v7l2 6-4 4z" fill="#4F5055"/>
<path transform="translate(208,495)" d="m0 0 5 5 1 7-4 5-4 1-5-5 1-7 5-4z" fill="#F6F9FA"/>
<path transform="translate(262,495)" d="m0 0 5 5 2 6-3 5-6 1-4-4v-6l1-2h2l2-4z" fill="#F6F9FA"/>
<path transform="translate(886,570)" d="m0 0 3 2 1 10 2-3 1 9-2 4 2 4 4 2h12l8-2-4 4-5 2h-7l-8-3-6-7-1-4z" fill="#4F5055"/>
<path transform="translate(422,383)" d="m0 0h3v2l5 1 1 2h-2l1 6-4 4-5 1-7-2 1-3 4-4 1-5h2z" fill="#6F7173"/>
<path transform="translate(891,587)" d="m0 0 6 3 5 3h11l2 4-6 2h-12l-6-4-1-5z" fill="#E3F1F4"/>
<path transform="translate(545,514)" d="m0 0h2l1 5 1 2h-3l1 12v3 9l2 1-2 1 1 3h-2v2l2 1h-2l2 6-1 3 3 2-3 3-1 6h3l-2 5-1 2 3 1-2 1 3 7 3 3-5-2-3-5z" fill="#625448"/>
<path transform="translate(712,558)" d="m0 0h15l11 1-4 4-6 3h-8l-5-3-3-3z" fill="#F6F9FA"/>
<path transform="translate(556,319)" d="m0 0h1v13l-3 6-5 5-8 4h-8l1 7-3-4-1-5 3-2 12-3 6-5 3-9h2z" fill="#8D6237"/>
<path transform="translate(505,369)" d="m0 0 1 2 5-1-5 6v9l-1 2 3 1 1 5-2 2-5-3-3-6 1-5-3 2 2-6z" fill="#936A42"/>
<path transform="translate(226,506)" d="m0 0h1l1 53 1 5-3-3-2-7v-41h1z" fill="#815020"/>
<path transform="translate(164,501)" d="m0 0 6 2 1 6 4-1v3h-3l-3 3h-7l-4-4v-6z" fill="#B3DEE4"/>
<path transform="translate(710,569)" d="m0 0 3 1-1 2h2l-1 4-3 1 3 4 4 2-4 4v2l6 2-1 2-6-1-2-1v-3h-3v-4l-4-3h2l-1-3 2-4h2z" fill="#D0889E"/>
<path transform="translate(315,561)" d="m0 0 3 1 1 3 2 1 1 5 5-2 2 2-1 3h-4l-2 4h-8l-1-5-3-3 5-5z" fill="#DDECEF"/>
<path transform="translate(385,586)" d="m0 0h2l4 7v2l6 2h7l7-3 5-5 2-3-1 7-4 5-6 3h-12l-6-4-5-7z" fill="#85582D"/>
<path transform="translate(693,513)" d="m0 0h5v2h-2l1 3-1 2-7 1-2 2h-3l-2 9h5l-1 2-4 2v2l6-3 3 1-4 2v2h-6l-1-12 4-12 3-2 2 4h2z" fill="#854325"/>
<path transform="translate(250,511)" d="m0 0 7 2 1 4 6 1-5 4-3 3h-4l3 4-1 7-2 4h-2v-20l5 1-1-5-4-2z" fill="#8B282F"/>
<path transform="translate(529,317)" d="m0 0h6l3 5-3 1 3 2-1 6-5 1-6-4 1-10z" fill="#B1DEE4"/>
<path transform="translate(810,510)" d="m0 0 3 1v2l6-2-2 10-4 13-1-4v-4h2l-6-8-9-3 3-4 4 2v2l5-1z" fill="#98A3A7"/>
<path transform="translate(113,560)" d="m0 0h8l7 4 5 4 6 2h9l5-3 3-7 2 1-2 6-4 7-20-2-7-7-3-2h-9l-5 5-2 1v-5z" fill="#815020"/>
<path transform="translate(302,600)" d="m0 0 6 1 2 3v6l-1 1v5l3 3h-4-3l-1 4-3 1-1-5 5-2h-3l-1-2h-2v-2l7-1-1-5-1-1h-6l1-4z" fill="#B2DEE4"/>
<path transform="translate(102,566)" d="m0 0h1l1 11 6 9 10 6 9 3v2l-7-1 1 1-3 1-10-7-7-8-2-5v-10z" fill="#93785D"/>
<path transform="translate(489,559)" d="m0 0h21l-4 4-6 3h-9l-5-3-2-3z" fill="#F6F9FA"/>
<path transform="translate(165,543)" d="m0 0h6l2 4-2 4-3-3h-6v2h3l1 2 3-1v2l4-1-2 4-3 4-5-1-3-6v-3l2-5z" fill="#B1DEE4"/>
<path transform="translate(416,565)" d="m0 0 2 1v20l-3 6-7 5-4 1h-7l-7-3-1-2 6 1h11l6-4 3-6z" fill="#BEA892"/>
<path transform="translate(388,529)" d="m0 0 1 2 4-1 2 1v6h-2l1 2h5l2 4-5 2-1 2h-5l-1-5-1-3zm14 10h3l-1 3-2-1z" fill="#797C7F"/>
<path transform="translate(413,509)" d="m0 0 7 2 2 4 3 1-3 1-1 4-2 1-2-1 1 3h-2v-3l-4-1-1-4h-4l1-4 3-1z" fill="#ECF5F6"/>
<path transform="translate(721,535)" d="m0 0h6l3 4v4l-2 1-1 4h-2v-2l-4 2-1-3-3-1-1-7z" fill="#F5F7F8"/>
<path transform="translate(434,494)" d="m0 0h5v2l3 1 4 6-1 7-6 5h-4l1-4 2-2 1-8-5-6z" fill="#76777C"/>
<path transform="translate(130,495)" d="m0 0h2l1 4-3 3-6 1-10 8-2-2 1-4 1-3 10-6z" fill="#747678"/>
<path transform="translate(408,663)" d="m0 0h5v24h-5z" fill="#4F5055"/>
<path transform="translate(636,589)" d="m0 0h2l4 5 7 3h8l8-4 3-2-2 5-5 4-5 2h-8l-6-3-5-6z" fill="#7D5023"/>
<path transform="translate(837,533)" d="m0 0 2 2v3l4 1v2h-2l2 6-4 1-6-2-5 1-6-1-1 2-2-1h-9v-2h-2l-1-4-3-2 6-1 2-4-2 9 12 1h18l-3-8z" fill="#4F5055"/>
<path transform="translate(125,524)" d="m0 0 5 1 2 4v7l-4 4h-6l-2-5h-3v-2l3-3h2l2 3h6l-2-4-7-1z" fill="#AFDCE2"/>
<path transform="translate(833,511)" d="m0 0 4 1 7 2 3-3 2 4-1 2-5 1-8 7-2-2-2-9z" fill="#EAF4F6"/>
<path transform="translate(511,368)" d="m0 0 4 1 7 6 2 9v5l-7 7-3-1 2-1-1-2 3-9h2l-2-7-5-5z" fill="#8B2B2F"/>
<path transform="translate(646,348)" d="m0 0h2l1 9h1v10l-1 7-5 4v-23z" fill="#F6F9FA"/>
<path transform="translate(589,589)" d="m0 0h2l5 6 6 2h7l7-3 4-2-2 5-6 4-4 1h-7l-6-3-6-7z" fill="#7A5026"/>
<path transform="translate(220,538)" d="m0 0h1l1 21 3 6 6 4-3 5h-3l-1-7-7-3-1-3 3-3 1-14-3 1-3-2 2-4z" fill="#A88768"/>
<path transform="translate(275,503)" d="m0 0h1v51h-1l-1-8h-4l-1-5 3-3h3l-1-16-4-1-2-1v-2h5v-3l-2-1 3-1z" fill="#815020"/>
<path transform="translate(200,504)" d="m0 0 2 4v2l6 2 6-5 1 1 1-2h2l1 4-3 2-2-1v2l2 1h-3v2l-5 1h-5l-7-8 1-3h3z" fill="#C01D57"/>
<path transform="translate(620,366)" d="m0 0h2l4 13 6 8 4 2 10 1-1 4h-2v-2l-4 1-2-1v3l-3-1-1-3-6-2-2-7-1-1-5 1v-2l3-3-4-8z" fill="#4F5055"/>
<path transform="translate(219,585)" d="m0 0 4 2 4 3v2h2v-3l2 1-1 2h6l5 2v1h-13l-13-4-1-2h3v-2h2zm23 1m-5 1h5l-1 2h-2l-1 3-2-2z" fill="#882F2C"/>
<path transform="translate(334,571)" d="m0 0 5 2 2 6-4-2h-6l-1 4 5-1h6l-1 4-5 4-6-3v-10l2-3z" fill="#AFDBE1"/>
<path transform="translate(321,614)" d="m0 0h1l-1 9-4 6-3 3-6 2h-7l-8-4-2-4 7 3h11l7-4 4-6z" fill="#7B5025"/>
<path transform="translate(486,507)" d="m0 0h3v2l4 1v2h-3l5 1 1-4 1-2 5 1 4 2-1 4-2 1 1-4-4 1-1 2-13 1-6-1v-3z" fill="#9C7752"/>
<path transform="translate(271,507)" d="m0 0 4 2v5l-2 1 1 3-4 1-2-1 1 3h-2l2 6-4-2h-8l2-4 6-4h2l2-6z" fill="#A8515E"/>
<path transform="translate(666,529)" d="m0 0h1v55l-4 6-4 3-9 1-7-4 1-2 5 1v2l6 1 1-3 2 2 5-4 2-7z" fill="#715030"/>
<path transform="translate(387,503)" d="m0 0h1l1 17v19l2 2v3h-2v20l2 1h-2l-1 19h-1z" fill="#815020"/>
<path transform="translate(461,381)" d="m0 0 5 2 2 4-1 2h2l-1 3h-11l-3-2 3-6z" fill="#EEF4F5"/>
<path transform="translate(860,525)" d="m0 0 2 2 5 16 2 1-1 3-7-5 1-6-3 1v4l-9 2-3 4-2-1 2-5 5-3 5-2v-2l3-3-2-3h2z" fill="#606469"/>
<path transform="translate(747,527)" d="m0 0 5 2h3v4l-1 1 5 2-1 4-4 1v2l3-1-1 3h-3l-2-6-1-4-4-2v2l-3-1 3-6z" fill="#B52B55"/>
<path transform="translate(249,504)" d="m0 0h1l1 10 5 3-1 4-3 1v-2h-2v20h5l1 3h-2v2l-3-1-1 12h-1z" fill="#98714A"/>
<path transform="translate(337,493)" d="m0 0 9 1 5 3 2 3 1 2-5 1-2-1v-2h-2v4l-5-1-3-7z" fill="#788084"/>
<path transform="translate(532,306)" d="m0 0 2 4h8l7 4 3 5v5l-5 1-5-2 2-3 5 3 1-3-2-2h-2l-2-4-4 1-3-3v2l-8-1v-4z" fill="#825222"/>
<path transform="translate(746,569)" d="m0 0 6 3 1 4-2 1 1 5-3 1-1 2-3-1-1-3 2-3h3v-2l-3 1-3-1-1 2-2-1-1-3 1-3 5-1z" fill="#9F233E"/>
<path transform="translate(126,557)" d="m0 0 8 1 15 5v4h-9l-9-5z" fill="#F6F9FA"/>
<path transform="translate(686,550)" d="m0 0h3v2h2v2l4-1 1 3-1 4-4 1v-2h2v-2l-3 1-1 5-6-1-1-8 3-1z" fill="#ECD4DE"/>
<path transform="translate(619,524)" d="m0 0h1l-1 54-3-3 1-5h-3v2h-2l1-3 3-1 1-4h-2l1-2 1-4v-14l-3-1h3l1-16z" fill="#525051"/>
<path transform="translate(255,503)" d="m0 0h1l2 7 6 1 3-2 3 1v3h-2l-1 4-6 1-3-1-2-4-5-2 2-4h2z" fill="#C11D58"/>
<path transform="translate(393,302)" d="m0 0 9 1 7 6v2h-2l-4-5-6-1-6 3-1 2v11l-4-1-1-8 2-6z" fill="#7D5024"/>
<path transform="translate(706,536)" d="m0 0h9l-3 3 1 3 3 1-3 1-1 2 1 2h-7v-2h-2v-8z" fill="#EBCEDA"/>
<path transform="translate(413,381)" d="m0 0h3 7l1 2h-2v2h-2v5l-5 5-2-2 1-2h-2v-2l-2-1z" fill="#65686D"/>
<path transform="translate(611,358)" d="m0 0 7 1 2 7-2 4-4 1-4-4-1-7z" fill="#DFE6E8"/>
<path transform="translate(598,493)" d="m0 0 7 4 6 7 4-2 4-4 2 1-3 4-1 3h-2l-1 3-4-1-3-2-1-5-4-2-6-1v-3l-3-1z" fill="#695038"/>
<path transform="translate(317,584)" d="m0 0 8 6 10 4v1h-6l-11-6v26l-3 7-6 5-3-1 8-6 2-6z" fill="#F6F9FA"/>
<path transform="translate(669,369)" d="m0 0 4 1 1 3-10 14-2 1 1-4-2-5h2v-2h2l1-4z" fill="#B3B7BA"/>
<path transform="translate(376,348)" d="m0 0h2l2 7v23l-3-1-1-15z" fill="#F6F9FA"/>
<path transform="translate(196,520)" d="m0 0 3 1h3l-2 11-2-1-1-1v3h4v5l-5 1-1-1v-16z" fill="#8C2730"/>
<path transform="translate(415,369)" d="m0 0 1 4-4 13-6 9-7 6-9 4h-3v-2l9-3 4-3h2l1-3h2l2-5 5-12z" fill="#F0F6F8"/>
<path transform="translate(204,492)" d="m0 0h7l7 4 2 4v14l-2 1-4-2v-2l4-1v-4h-2l-1 3h-1v-5h2l-1-5-1-3-5-2h-7z" fill="#89292E"/>
<path transform="translate(727,506)" d="m0 0 4 3 4 1v3l-4 1-1 2 5 2v-2l4 1v2h-3l1 6 3 1v2h-2l-1 4h-1l-2-9-5-6-4-3 3-1 1-3h-2z" fill="#933732"/>
<path transform="translate(139,497)" d="m0 0 5 4 1-3 2 3 4-1-2 4-3 1-1 4-6-2v-2h-2l-1-3z" fill="#AEDAE0"/>
<path transform="translate(413,368)" d="m0 0 2 1-4 13-6 12-9 7-5 1 1-2 6-2 1-6h5l2-8 1-2 3-4 1-8z" fill="#515358"/>
<path transform="translate(432,491)" d="m0 0 8 2 5 4 2 5v6h-1l-3-9-4-3v-2l-8 1-5 1-5 4-3 6-3 1-1-2 3-3 6-8z" fill="#874227"/>
<path transform="translate(490,305)" d="m0 0 3 3v2h2v3l-7 1v-2l-7 1 1 3h-2l-1-1-1 4-3-1v5l-3-1-1 3 1-7 4-5 7-3h8z" fill="#835324"/>
<path transform="translate(353,385)" d="m0 0h3l8 13v8l-2 1v-4h-2v-6l-2-5-3 2v7l-2-3-1-8z" fill="#8A2E3E"/>
<path transform="translate(167,496)" d="m0 0 5 2 5 5 1 2v9l-2-3-1-2h-4l-2-5 2-2-6-4z" fill="#4F5055"/>
<path transform="translate(471,339)" d="m0 0 10 5 4 1v-2l11-1-4 10-4 7-1-2 4-9-12-2-8-6z" fill="#8C5F34"/>
<path transform="translate(523,336)" d="m0 0 2 1 6 18 7 11v3l-6-7-3-6-2 1-3-7v-7z" fill="#86613D"/>
<path transform="translate(301,574)" d="m0 0 7 1 4 2v3h2l-1 3h-5l-1-3h-7l-3 4-1-2 1-3h2l1-4z" fill="#A9D2D8"/>
<path transform="translate(719,491)" d="m0 0 8 1 5 2 2 6 7 1-4 2-3 3-3-5v-2h-2l1 3h-4l2-4h2v-3l-4 1v-2h-7l-5 3v-4z" fill="#992939"/>
<path transform="translate(139,490)" d="m0 0h9l7 2-2 3v-2h-18l-5 3-8 2-5 4h-2l2-4 12-6z" fill="#815020"/>
<path transform="translate(624,366)" d="m0 0 8 16 5 4h8l9-6h3l-7 6-6 3h-7l-6-4-5-7-2-6z" fill="#7D5023"/>
<path transform="translate(782,560)" d="m0 0 1 3 3 1v2l7-2v2l3 1-3 4-6-3-11 1v2l-3 1-2 4 1-5 4-9 2 4 3-1z" fill="#4F5055"/>
<path transform="translate(697,516)" d="m0 0 7 1-1 3h4l-3 9-6 1 1-9-3-1z" fill="#B6516B"/>
<path transform="translate(658,398)" d="m0 0h1v10l4 1v-2l4-1-5 6 2 5-1 4-2-5-8-4-7-2v-2l11 3-1-11z" fill="#804C22"/>
<path transform="translate(629,389)" d="m0 0 5 2 1 5-2 6-1-2-5-1-2-2 1-6z" fill="#F1F7F8"/>
<path transform="translate(744,562)" d="m0 0h7l5 3 3 7-2 4-4-3-1-4v-2h-3v-2l-6-1z" fill="#854924"/>
<path transform="translate(359,537)" d="m0 0h5l3 3-2 7h-6l-3-6 1-3z" fill="#53565B"/>
<path transform="translate(605,349)" d="m0 0 1 2v6h-5l-4 5v4h-5l-4 7h-6l6-7 6-4 7-8z" fill="#53555A"/>
<path transform="translate(499,341)" d="m0 0 1 3-1 9-3 4v-4l-6 12-7 7-2-1 8-9 4-8 5-12z" fill="#81664C"/>
<path transform="translate(768,667)" d="m0 0h7l3 3-1 5-1 1h-8z" fill="#F6F9FA"/>
<path transform="translate(737,531)" d="m0 0 1 3-2 4-1-2h-2l-2 8h2v2l-5 3h-10l4-2 3-1v2h2l1-5 1-4-3-5h9z" fill="#9B243C"/>
<path transform="translate(514,565)" d="m0 0h7l2 2-1 5-4-1-2 1-3-1-1 2-5-2 1-2z" fill="#F4F6F7"/>
<path transform="translate(476,536)" d="m0 0h7v4l1 3-2 5-3-1v-2l-5-1 1-7z" fill="#F4F6F7"/>
<path transform="translate(919,504)" d="m0 0h1v38l-2-4-4-1 3-1v-2h2l-1-11-1-3-2-1 3-3v-6l-1-2zm-1 38m-1 1m-1 1 3 3h-3z" fill="#54565B"/>
<path transform="translate(327,667)" d="m0 0h7l3 3-1 4-2 2h-7z" fill="#F4F8F9"/>
<path transform="translate(779,537)" d="m0 0 1 4-12 33-1 9h-2l-1-5 13-36z" fill="#7C5024"/>
<path transform="translate(103,516)" d="m0 0h1l2 14 7 11 8 6 2 1v2l-6-2-9-7-5-12z" fill="#855729"/>
<path transform="translate(618,587)" d="m0 0v3l-3 3v3l-6 2h-7l-7-3-1-2 6 1 7 2 1-3 8-4z" fill="#D3C6B8"/>
<path transform="translate(181,575)" d="m0 0 1 2-6 9-9 7-11 4-4 1h-14v-1l17-2 12-5 7-5z" fill="#815020"/>
<path transform="translate(712,569)" d="m0 0 10 2-3 3h-2v2h2l3 3h3v2l-6 1-2-1v-4h-4v2h-2l-1 2-1-5h4l1-4-4 1z" fill="#A22341"/>
<path transform="translate(704,563)" d="m0 0 4 2 1 5-5-1-1 3-3-3-3 1-1 2-2-5 4-3z" fill="#F6F9FA"/>
<path transform="translate(745,515)" d="m0 0h10l1 5h-4l-2-1v5l-4 1-1-4h-2l1-5z" fill="#CC718E"/>
<path transform="translate(266,493)" d="m0 0 4 1 4 4 1 2v9h-3l-2 1-2-1v-7h4l-3-5-3-2z" fill="#8A2F2D"/>
<path transform="translate(715,506)" d="m0 0h2l3 5v2h5v1l-14 3-2 1v-4l-2-1 3-1z" fill="#B34860"/>
<path transform="translate(699,577)" d="m0 0 3 2-2 6 3 1 4-5 1 3-2 6-6-1-8-6-1-3 3-1 1 4 4-1-2-1z" fill="#9F2F3C"/>
<path transform="translate(588,448)" d="m0 0h10l-2 9h-8z" fill="#F6F9FA"/>
<path transform="translate(389,515)" d="m0 0 4 1 3 3-1 4h-3v2h2v3l-6 1v-9z" fill="#7D8082"/>
<path transform="translate(434,390)" d="m0 0 5 2 9 4-4 2-14 1z" fill="#F6F9FA"/>
<path transform="translate(511,361)" d="m0 0h2l5 10-6-2 3 3v3l-5 1-1-4-1-1h-2v-2h2l2-6z" fill="#F6F9FA"/>
<path transform="translate(626,302)" d="m0 0 7 1 4 2 2 6v5l-4 4-1-2v-7l-3-5-6-2z" fill="#87592B"/>
<path transform="translate(331,492)" d="m0 0h12l11 4 9 7 1 3h-2v-2h-2v-2l-5-2h-2l-2 1-1-4-4-2-9-1h-10z" fill="#815020"/>
<path transform="translate(631,492)" d="m0 0h12v2l5 1 1 2-7-2-7 1-2 1v-2l-10 4-3 3-2-1 4-5z" fill="#615041"/>
<path transform="translate(542,375)" d="m0 0 5 2 7 2h14l5-1-3 3-1 3-6-2-6 1v2l-2-1-3-3h-7z" fill="#505156"/>
<path transform="translate(403,547)" d="m0 0h1l1 8-3 2h-5l-1-3h-2l2-5z" fill="#B1DCE2"/>
<path transform="translate(259,492)" d="m0 0h7l1 3 5 5v2l-5-1-5-5-4 4-2-3z" fill="#992C38"/>
<path transform="translate(660,381)" d="m0 0h2l2 4-2 3h-2l-2 4-4 1-2-5z" fill="#E9F1F2"/>
<path transform="translate(324,319)" d="m0 0h4l4 5 4 6v8l-2 3-1-10-1 3-3 1v-7h2l-3-5h-3l-3-1z" fill="#7A5B3C"/>
<path transform="translate(519,270)" d="m0 0 7 6 7 10 1 5-4 1 1-5-5-2v-2l-2-1 1-4-4-2z" fill="#90653B"/>
<path transform="translate(753,571)" d="m0 0 4 4 1 3-4 6-6 5-2-1 5-5-1-4 1-5z" fill="#BD8083"/>
<path transform="translate(530,577)" d="m0 0 1 2-6 8-10 6-9 3h-6l1-2 16-5 6-4z" fill="#F6F9FA"/>
<path transform="translate(717,494)" d="m0 0m-7 1 4 1 3 5-4 2v2h-2v-2l-5-2-1-2 1-2z" fill="#E0C8CB"/>
<path transform="translate(586,321)" d="m0 0h1l1 6 1 3-6 7h-2l-1 4-1-9 5-4z" fill="#956D45"/>
<path transform="translate(737,568)" d="m0 0 1 3h2l-1 5 2 1-4 6-6-2 4-6-1-2z" fill="#E9CFD9"/>
<path transform="translate(609,373)" d="m0 0h2l5 14 6 9 5 5-5-2-5-5-5-7-3-9z" fill="#F0F7F8"/>
<path transform="translate(508,370)" d="m0 0 3 1-5 5v9l-1 2 3 1 1 4-5-2-2-5v-10z" fill="#8D2731"/>
<path transform="translate(477,331)" d="m0 0 1 2h7l2 4 8 2v1h-12l-6-3-2-5z" fill="#B09579"/>
<path transform="translate(386,583)" d="m0 0 2 1 3 5 4 3 8 1 6-3 5-6 1 2-4 6-5 3h-11l-6-4-3-5z" fill="#F6F9FA"/>
<path transform="translate(615,338)" d="m0 0 2 1 1 2-2 4-9 2v2l-6 3 2-5 4-4h2l4-2v-2z" fill="#64686C"/>
<path transform="translate(396,492)" d="m0 0h9l6 4 3 5-1 4-6-9-2-1h-10l-3 1-2 5-2 2 1-5 5-5z" fill="#824A22"/>
<path transform="translate(355,372)" d="m0 0 3 1v2h2l2 7-3 3-4-4-3-4 2-4z" fill="#C3C8CB"/>
<path transform="translate(675,360)" d="m0 0 2 1-2 4h-2l-1 5-4 1-2 2h-2l-7 6 2-4 5-5h2l1-4 3-1 1-3z" fill="#968677"/>
<path transform="translate(618,578)" d="m0 0h1v7l-4 6-7 3-8-1-6-5-1-4 5 4 2 1v2h9l5-2 4-8h-2l1-2z" fill="#66503B"/>
<path transform="translate(248,557)" d="m0 0 1 2 4 2-1 3-6 1v2h-2v6l-2 1-4-4 1-2 4-2 3-3z" fill="#A68666"/>
<path transform="translate(365,398)" d="m0 0 3 3v10l3 1-6 3h-2l-4-6-1-2 5 1 1-1z" fill="#814924"/>
<path transform="translate(395,377)" d="m0 0h2l-2 6-5 5-9 1-9-4-4-5 12 6h7l5-4z" fill="#77502A"/>
<path transform="translate(307,611)" d="m0 0h1l1 5 3 3h-4-3l-1 4-3 1-1-5 5-2h-3l-1-2h-2v-2l7-1z" fill="#AFDBE1"/>
<path transform="translate(112,572)" d="m0 0 1 2 7-1 3-1v6l-6 3-5-5z" fill="#B1DEE4"/>
<path transform="translate(138,528)" d="m0 0 10 1 12 4 12 6 2 3-5-2-5-3-4-1-6-3-13-3-1 3z" fill="#815020"/>
<path transform="translate(531,384)" d="m0 0 8 6 5 2 5 1 4 2-1 2h-17v-1l8-1-10-6-3-2z" fill="#765230"/>
<path transform="translate(407,339)" d="m0 0 2 1-1 4-2 11h2v2h2v2l-6 2v-14l1-7z" fill="#515257"/>
<path transform="translate(169,587)" d="m0 0 2 1-8 5-8 3-6 1h-12v-2l18-2 11-4z" fill="#F6F9FA"/>
<path transform="translate(720,572)" d="m0 0 7 1 2 4-2 1-2 3v-2l-3 1-3-2v-2h-2v-2z" fill="#F6F9FA"/>
<path transform="translate(405,539)" d="m0 0h4v4l3 1 1 5v5l-4-1 1-5h-2v-3l-7-2 1-2h2z" fill="#505257"/>
<path transform="translate(852,596)" d="m0 0 9 2h8l8-2-4 4-6 2h-7l-6-3z" fill="#4F5055"/>
<path transform="translate(893,588)" d="m0 0 9 5h11l2 3-3 1h-10l-7-4z" fill="#BAC0C3"/>
<path transform="translate(389,582)" d="m0 0 5 1 6 4-2 5h-5l-4-8z" fill="#A2A7A8"/>
<path transform="translate(436,322)" d="m0 0 2 2 3 5 4 3-1 10-2 3-1-8-4-3 1-2h2l-4-5z" fill="#825223"/>
<path transform="translate(319,613)" d="m0 0h2v6l-4 6-5 4-3 1h-11l-4-2 2-1 3 1h8l6-3 4-5z" fill="#F6F9FA"/>
<path transform="translate(742,565)" d="m0 0h7v2h3l1 3-1 2-6-2-4 2-2-1 1-5z" fill="#F6F9FA"/>
<path transform="translate(895,510)" d="m0 0 4 1v2h7v2l6-3 2 1-1 3-14 1-3 1v-2h-2z" fill="#9BA0A4"/>
<path transform="translate(588,390)" d="m0 0 3 4 2 5-16-2 3-2z" fill="#F6F9FA"/>
<path transform="translate(498,378)" d="m0 0v3l-3 5-10 7-4 2h-7v-1h5l1-2 4-2 3-1 3-4 3-1z" fill="#69523D"/>
<path transform="translate(404,584)" d="m0 0 3 3 3 1-2 4-5 2-8-1 4-2 2-2v2l4-1-4-2 1-3z" fill="#615147"/>
<path transform="translate(728,572)" d="m0 0 3 1 3 3-2 5v3h-5l-2-3 2-4h2z" fill="#BD7483"/>
<path transform="translate(195,558)" d="m0 0 3 4v2l5 1 1 5-3 3-1 3-4-9z" fill="#9A744F"/>
<path transform="translate(788,527)" d="m0 0 2 4 1 4h-3l-1 4 2 3-4-1 1 3h-2l1 3h-3l-2 7-1-3 8-21z" fill="#4F5055"/>
<path transform="translate(668,391)" d="m0 0h2v10l-3 5-3 1-2-2 2-4 2-1v-7h2z" fill="#D07292"/>
<path transform="translate(353,558)" d="m0 0 7 1 2 6v2h-2l-3-3-7 1 2-6z" fill="#B1DEE4"/>
<path transform="translate(798,499)" d="m0 0 1 3v6l-2 1-1 4 2 4-5 2-2 4-1-2z" fill="#565A5F"/>
<path transform="translate(599,378)" d="m0 0 2 1-2 1zm-1 2v3l-2 4-5 1-6 5-5 3-2-1v-2l9-5h2v-2z" fill="#75502B"/>
<path transform="translate(176,585)" d="m0 0v3l-6 5-12 5-5 1h-18v-1l17-1 13-4 9-6z" fill="#F6F9FA"/>
<path transform="translate(394,554)" d="m0 0h2l1 2 8-1v5l-3 2-5-1-1 3-2-1 1-5z" fill="#EDF5F7"/>
<path transform="translate(869,549)" d="m0 0h1l4 13 3 10h-3v-2l-4-2v-2h2v-5h-2v-2l-2-1 1-5-3-1h3z" fill="#55585D"/>
<path transform="translate(299,492)" d="m0 0h8l8 5-1 4-3-3-9-3-5 1-4 2 2-4z" fill="#74502D"/>
<path transform="translate(637,504)" d="m0 0 6 2 1 3-2 3-4 1-2-1v-2h-2l1-5z" fill="#F6F9FA"/>
<path transform="translate(607,320)" d="m0 0 5 2 7 5h8l6-3-1 3-7 3-9-1-9-7z" fill="#F6F9FA"/>
<path transform="translate(509,263)" d="m0 0 2 4-3 3-1 6-1-2h-2v2l-4 2v-4z" fill="#91673E"/>
<path transform="translate(174,542)" d="m0 0 5 5 3 8v13l-2 4v-2l-4-1 1-2h2l1-9-2-7-4-7z" fill="#815020"/>
<path transform="translate(388,529)" d="m0 0 1 2 4-1 2 1v6l-3 3-4-1z" fill="#595D61"/>
<path transform="translate(612,377)" d="m0 0 2 1 1 3 2 1 1 5 4 7 3 1 3 4 4 1v2l-5-1-8-7-7-14z" fill="#4F5055"/>
<path transform="translate(102,566)" d="m0 0h1l1 11 6 9 4 4-5-2-6-5-2-5v-10z" fill="#895C2F"/>
<path transform="translate(685,561)" d="m0 0 9 3-3 1v5h-5l-3-6v-2z" fill="#C68693"/>
<path transform="translate(713,537)" d="m0 0h3l2 3v4l2 1v3h-7l-3-3 5-2-4-4z" fill="#AE3A57"/>
<path transform="translate(275,537)" d="m0 0h1v17h-1l-1-8h-4l-1-5 3-3z" fill="#9C7753"/>
<path transform="translate(693,513)" d="m0 0h5v2h-2l1 3-1 2-7 1-2 2h-3l2-7h2l1 2h2z" fill="#AD2D50"/>
<path transform="translate(318,508)" d="m0 0 5 5 1 3-8 1-1-1v-6z" fill="#E7F1F3"/>
<path transform="translate(161,566)" d="m0 0 7 1 2 4-4 2-8-2 2-4z" fill="#B1DEE4"/>
<path transform="translate(545,514)" d="m0 0h2l1 5 1 2h-3l1 12v3 9l2 1-4 1z" fill="#545253"/>
<path transform="translate(269,520)" d="m0 0 6 1v17h-3l1-7-4 1v-4l4-1-1-3-3-1z" fill="#8C2730"/>
<path transform="translate(767,587)" d="m0 0 3 3v2l4 2 5 2 8 1-1 2-10-1-7-3-2-3z" fill="#E1F0F3"/>
<path transform="translate(845,564)" d="m0 0 7 1 3 2-4 1-1 3 4 2-3 1v2l3-1v2h-2v2l3 1h-2l-1 3-5-16v-2z" fill="#505257"/>
<path transform="translate(779,554)" d="m0 0h2l1 11-4 2-2-7z" fill="#9BA0A4"/>
<path transform="translate(779,546)" d="m0 0h1l-1 8-3 9-3-3 3-11z" fill="#E0ECEE"/>
<path transform="translate(707,582)" d="m0 0h3l1 2 4 1-2 4 6 2-1 2-6-1-2-1v-3h-3v-4z" fill="#B75E72"/>
<path transform="translate(334,571)" d="m0 0 5 2 2 6-4-2h-6l-2 4v-6l2-3z" fill="#B1DEE4"/>
<path transform="translate(446,550)" d="m0 0h2l1 7 2 4 1 7-2 2-3-8-1-4z" fill="#8A5D30"/>
<path transform="translate(194,529)" d="m0 0h1l1 9 5 3v3l-4 2-2 2-1-5z" fill="#9E7A56"/>
<path transform="translate(755,528)" d="m0 0 4 1 1 2v7l-2 5h-4v-2l4-1-1-4-4-2 2-3z" fill="#F3ECF0"/>
<path transform="translate(220,504)" d="m0 0h1v18l-7-2 1-4 1-2h3z" fill="#99734E"/>
<path transform="translate(371,403)" d="m0 0 8 2h11l-2 1v2l-14 3-3-1 5-2z" fill="#76502B"/>
<path transform="translate(422,383)" d="m0 0h3v2h2l-2 7-7 1 2-8h2z" fill="#AED9DE"/>
<path transform="translate(744,537)" d="m0 0 1 3-2 3h2l2 5-7-1-1-6-3-2z" fill="#A82648"/>
<path transform="translate(165,543)" d="m0 0h6l2 4-2 4-3-3h-7l1-3z" fill="#B9E1E6"/>
<path transform="translate(445,508)" d="m0 0 1 4-4 5-4 2h-6l3-1v-2h-2l1-4 1 3 7-3z" fill="#664D3F"/>
<path transform="translate(529,317)" d="m0 0h6l3 5-9 2-2-1v-5z" fill="#A7D0D5"/>
<path transform="translate(490,317)" d="m0 0 7 1v4l3-1v2l-4 1v-2h-9l1-4z" fill="#B2DEE4"/>
<path transform="translate(575,574)" d="m0 0h1v11l-2 5-4 1 2-6 1-10z" fill="#835324"/>
<path transform="translate(118,563)" d="m0 0 6 2 3 3-1 3-5-1-4-2-3-1 4-2z" fill="#C1E4E9"/>
<path transform="translate(822,560)" d="m0 0 1 4-19 1-3 5-2-3 4-6h2v2h4v-2l9 1 2-1 1 1z" fill="#4F5055"/>
<path transform="translate(687,538)" d="m0 0h2l-2 9h-4l-2 1v-8l4-1 2 1z" fill="#D47F9C"/>
<path transform="translate(752,534)" d="m0 0 7 2-1 4-4 1v2l3-1-1 3h-3l-2-6z" fill="#BC3E66"/>
<path transform="translate(615,392)" d="m0 0 4 3v2l14 7 7 2-4 1-9-2-8-6-4-5z" fill="#4F5055"/>
<path transform="translate(472,322)" d="m0 0 4 2 4 1v7l-3-2-3 1v-2l-3-1z" fill="#B49A7F"/>
<path transform="translate(913,563)" d="m0 0 2 1-1 3 1 3-10-2-7 2 1-5h10z" fill="#515257"/>
<path transform="translate(145,492)" d="m0 0h6l2 1 1 5-5 4-3-1-1-3 4-2z" fill="#5A5B5D"/>
<path transform="translate(142,540)" d="m0 0 1 2 8 2v2h-2v2l-3 1-3-1-3-5v-2z" fill="#ACD8DE"/>
<path transform="translate(220,538)" d="m0 0h1v20h-1v-14l-3 1-3-2 2-4z" fill="#A07D5B"/>
<path transform="translate(726,585)" d="m0 0 6 4v3l-6 2-3-2 2-6z" fill="#AC2F50"/>
<path transform="translate(219,585)" d="m0 0 4 2v4l4 3-7-1-6-3 3-1v-2h2z" fill="#A38260"/>
<path transform="translate(735,585)" d="m0 0h4l2 4h5l-2 2-9 3-2-1 2-5z" fill="#9E7B57"/>
<path transform="translate(409,522)" d="m0 0 3 3 1 5-4 5v-3h-2v-8z" fill="#54565B"/>
<path transform="translate(616,331)" d="m0 0 3 1v9l-4-2h-2v2l-2-1 2-5z" fill="#54565B"/>
<path transform="translate(501,319)" d="m0 0 3 1 5 5 1 5-6 2-2-11z" fill="#F6F9FA"/>
<path transform="translate(316,585)" d="m0 0h1v29h-1l-1-12-4-2 4-5z" fill="#815020"/>
<path transform="translate(274,551)" d="m0 0h1v10l-3-3-4-1 1-5z" fill="#89292E"/>
<path transform="translate(679,533)" d="m0 0 2 1v14l2 1h-2l-1 5h-1l-1-15z" fill="#844524"/>
<path transform="translate(571,525)" d="m0 0h1l-1 23-4 1-2-3 5-2-2-5h2v-8z" fill="#5F5F5E"/>
<path transform="translate(522,381)" d="m0 0 2 3v5l-7 7-3-1 2-1-1-2 3-1z" fill="#98704A"/>
<path transform="translate(245,586)" d="m0 0 5 1 1 5-5 2h-5l4-2-1-5z" fill="#A58463"/>
<path transform="translate(242,583)" d="m0 0 6 1v2l-3 1v5l-4 2-4-1 2-4 4-3z" fill="#972539"/>
<path transform="translate(413,561)" d="m0 0h1v23l-3 5-1-3 2-3v-13l-1-5z" fill="#7D5023"/>
<path transform="translate(837,533)" d="m0 0 2 2v3l4 1v2h-2l2 6-4 1-5-2v-2h6l-3-8z" fill="#56575C"/>
<path transform="translate(484,543)" d="m0 0 5 3v2l5-2 2 3h-15z" fill="#865729"/>
<path transform="translate(587,506)" d="m0 0h6l2 2-2 4-4 1-4-5h2z" fill="#F6F9FA"/>
<path transform="translate(544,585)" d="m0 0h2l3 5 7 3h8v2l-7 1-7-2-6-7z" fill="#F6F9FA"/>
<path transform="translate(146,532)" d="m0 0 6 2 1 5-12-3z" fill="#B1DEE4"/>
<path transform="translate(195,512)" d="m0 0 5 3v2h2v3l-4 2h-3z" fill="#A07E5B"/>
<path transform="translate(290,620)" d="m0 0 10 5 6 1v2l-14-1-1-4z" fill="#EDEDEA"/>
<path transform="translate(436,388)" d="m0 0 5 2 11 4 6 1v1h-9l-4-2-8-2z" fill="#58504B"/>
<path transform="translate(609,381)" d="m0 0h2l3 9h-2l-1 3-2-2-3-8z" fill="#808E93"/>
<path transform="translate(708,566)" d="m0 0h2v5l-1 4h-5l-3-2v-3l-2-1h3l1 2 1-2 5 1z" fill="#AA2147"/>
<path transform="translate(919,566)" d="m0 0h1v19l-2 2 1-7-2-1h2l-2-5-1-5z" fill="#565A5F"/>
<path transform="translate(260,520)" d="m0 0h6l3 7-4-2h-8l2-4z" fill="#F6F9FA"/>
<path transform="translate(407,391)" d="m0 0v3l-8 7-9 4h-3v-2l9-3 4-3h2l1-3h2v-2z" fill="#E7F3F5"/>
<path transform="translate(490,315)" d="m0 0 5 1v1l-5 1-2 2v-2l-7 6-4-1 2-2 2-3 4-1z" fill="#73583E"/>
<path transform="translate(747,668)" d="m0 0 2 2 2 8h-7l1-5z" fill="#F0F7F8"/>
<path transform="translate(774,586)" d="m0 0 4 5h3l2-4 2 5 2 2h-8l-6-4-1-3z" fill="#535459"/>
<path transform="translate(802,572)" d="m0 0h1v10l-3 7-4-3v-2h3z" fill="#868E92"/>
<path transform="translate(267,566)" d="m0 0h6l-1 5-3 4v-3h-3l-1-5z" fill="#A68565"/>
<path transform="translate(717,546)" d="m0 0 1 3h-13l2 12 3 1-2 2-3-4-2-12 2-1 12 1z" fill="#844B23"/>
<path transform="translate(130,544)" d="m0 0 6 2v4l2 1-9-2-5-2v-1h6z" fill="#835425"/>
<path transform="translate(845,539)" d="m0 0 2 1-1 6v3l-4 4 1-5-2-5z" fill="#BBC3C6"/>
<path transform="translate(605,527)" d="m0 0 4 2-1 5-2 1-5-3 2-4z" fill="#F6F9FA"/>
<path transform="translate(167,496)" d="m0 0 5 2 5 5 1 2v9l-2-3-1-7-5-4-5-2z" fill="#7D5023"/>
<path transform="translate(545,343)" d="m0 0 1 2-5 2h-8l1 7-3-4-1-5 12-1z" fill="#815020"/>
<path transform="translate(459,669)" d="m0 0 3 3 2 6h-8z" fill="#F6F9FA"/>
<path transform="translate(391,669)" d="m0 0h2l3 9h-7z" fill="#EFF6F7"/>
<path transform="translate(331,576)" d="m0 0h6l3 4-5 1h-5z" fill="#4F5055"/>
<path transform="translate(548,564)" d="m0 0 5 2-1 3h-2l-1 4h-3v-7z" fill="#C7DCE0"/>
<path transform="translate(406,545)" d="m0 0h2v3h2l-1 5-4 3-1-2v-7h2z" fill="#E4EFF1"/>
<path transform="translate(791,535)" d="m0 0h2l4 4h3l4 2-2 4-4-3-7-1z" fill="#4F5055"/>
<path transform="translate(833,511)" d="m0 0 3 1-2 5 1 2 3 1-1 4-3 1-3-11z" fill="#515358"/>
<path transform="translate(127,501)" d="m0 0 3 1 1 5-2 1-9-3 4-3z" fill="#B2DEE4"/>
<path transform="translate(331,331)" d="m0 0h2l1 2v7 3l-5-1-2-1v-2l3 1 1-2-2-1 2-5z" fill="#B7B6B1"/>
<path transform="translate(414,321)" d="m0 0v3l-6 5-2 1h-9l-3-3 9 1 7-4z" fill="#F6F9FA"/>
<path transform="translate(516,257)" d="m0 0h8l-2 4h-2l-1 3-5-3v-3z" fill="#86582A"/>
<path transform="translate(656,677)" d="m0 0 4 2 2 4-1 1h-5l-2-2 1-4z" fill="#F2F7F8"/>
<path transform="translate(485,669)" d="m0 0 3 4 1 5h-7l1-5z" fill="#F4F8F9"/>
<path transform="translate(739,581)" d="m0 0h3v3h2l-1 3 3 2-5 1-2-2v-3l-6 2v-3h7l-1-1z" fill="#A82245"/>
<path transform="translate(269,577)" d="m0 0v3l-7 8-5 3-1 2h-2l2-4 10-9z" fill="#F0F0EE"/>
<path transform="translate(315,542)" d="m0 0h1l3 14 2 5-1 3-3-6-2-9-5-1 3-2z" fill="#815020"/>
<path transform="translate(122,528)" d="m0 0h6l2 2v3l-7 1-2-5z" fill="#4F5055"/>
<path transform="translate(727,506)" d="m0 0 4 3 4 1v3l-4 1-1 2 2 1-5-1-2-2 3-1 1-3h-2z" fill="#9B2A3A"/>
<path transform="translate(572,413)" d="m0 0h2l-1 4-2 1-2-1v2l3 1-1 3h-2v2h-2l1-4-1-6 2-1 3 1z" fill="#815020"/>
<path transform="translate(155,587)" d="m0 0 2 1 2 5-10 1 1-5h3z" fill="#845425"/>
<path transform="translate(123,586)" d="m0 0h5l-1 6-6-1-4-3 5-1z" fill="#845425"/>
<path transform="translate(133,581)" d="m0 0 4 2 3 1v2h2l-1 3-5-1-1-3h-2z" fill="#B1DEE4"/>
<path transform="translate(301,574)" d="m0 0h5l-1 4-6 3-2 3-1-2 1-3h2l1-4z" fill="#C3E5E9"/>
<path transform="translate(137,574)" d="m0 0h7v3l3 1-5 2-3-2h-4v-2h2z" fill="#B1DEE4"/>
<path transform="translate(249,540)" d="m0 0h6l1 3h-2v2l-3-1-1 12h-1z" fill="#A58564"/>
<path transform="translate(689,538)" d="m0 0 6 3 1-3 2 1v3l4 2-3 1-5-2h-6l-1-2h2z" fill="#A7344E"/>
<path transform="translate(847,511)" d="m0 0 2 4-1 2h-7v2h-2l-2-6 7 1z" fill="#4F5055"/>
<path transform="translate(553,506)" d="m0 0 8 2v3l-1 1h-5l-3-3z" fill="#F6F9FA"/>
<path transform="translate(459,424)" d="m0 0 4 4 1 2-5-1-1 2h-6l-1-4h3v2l3-3h2z" fill="#8A6137"/>
<path transform="translate(452,412)" d="m0 0 6 1-3 7h-3v-3l-2-1h2z" fill="#A58564"/>
<path transform="translate(597,395)" d="m0 0h11l-1 3-4 2-5-1z" fill="#71787D"/>
<path transform="translate(544,329)" d="m0 0h2l2 7h-9l-1 2 1-5h3z" fill="#B39A80"/>
<path transform="translate(532,568)" d="m0 0 2 3v10l-4 3-1-3 2-4z" fill="#8A5D31"/>
<path transform="translate(196,552)" d="m0 0h5l-3 6v3l4-1v2h-2l-1 2-3-3-1-7z" fill="#8E2732"/>
<path transform="translate(681,532)" d="m0 0h6l-1 2-4 2v2l6-3 3 1-4 2v2h-6l-1-7z" fill="#A62244"/>
<path transform="translate(125,524)" d="m0 0 5 1 2 4v3h-2l-2-3-7-1z" fill="#B1DEE4"/>
<path transform="translate(520,321)" d="m0 0 1 3-1 8h-2v-2h-3l1-5z" fill="#F6F9FA"/>
<path transform="translate(105,585)" d="m0 0 14 7-1 2-6-1-7-7z" fill="#97704A"/>
<path transform="translate(213,565)" d="m0 0h5l2 5-3 1-7-3z" fill="#F6F9FA"/>
<path transform="translate(893,541)" d="m0 0 4 2 3 2-1 2h-3l-1 3h-2z" fill="#56585D"/>
<path transform="translate(854,512)" d="m0 0 4 4 2 9-3-4v-2l-4-1-2-2z" fill="#5B5D62"/>
<path transform="translate(427,494)" d="m0 0h4v2l-3 2-2 3-1-1-2 2h-3l2-4z" fill="#535459"/>
<path transform="translate(803,487)" d="m0 0 3 4 4-1 2-2v3l4-1-1 4-5-1-6 1v-2h-2z" fill="#4F5055"/>
<path transform="translate(644,399)" d="m0 0h7l-3 3-6 2h-7l-3-2 7-1h3z" fill="#4F5055"/>
<path transform="translate(607,362)" d="m0 0h2l2 7 3 1v2h-2l1 4-2 1-2-8v-4l-4 2z" fill="#4F5055"/>
<path transform="translate(494,354)" d="m0 0 1 2-6 10-6 6-2-1 8-9 3-6z" fill="#815020"/>
<path transform="translate(478,312)" d="m0 0m-2 1h2l1 6-4-1v5l-3-1-1 3 1-7z" fill="#845426"/>
<path transform="translate(502,256)" d="m0 0 7 2v3l-5 2v-2l-4-2v-2z" fill="#845426"/>
<path transform="translate(451,568)" d="m0 0h2l5 9-1 3-3-3v-2l-3-1-1-4z" fill="#A2805E"/>
<path transform="translate(570,562)" d="m0 0h1v12l-2 1-1-2-3-2 1-2 3-1 1-3-3-1z" fill="#687479"/>
<path transform="translate(841,560)" d="m0 0 1 4-4 1h-8l-5-1 2-3 9 2z" fill="#54585D"/>
<path transform="translate(256,493)" d="m0 0 3 1-2 4 1 2-2 2-2-3-4 3 2-6z" fill="#88372A"/>
<path transform="translate(432,413)" d="m0 0 4 2-1 5-3 1-3-2 2-5z" fill="#AC8E70"/>
<path transform="translate(356,400)" d="m0 0 4 1v2h2v4h-5l-2-6z" fill="#CA6385"/>
<path transform="translate(505,369)" d="m0 0 1 3-3 3-1 11h-1l-1-5-3 2 2-6z" fill="#86592D"/>
<path transform="translate(807,681)" d="m0 0h4l1 5-4 2-2-1v-5z" fill="#4F5055"/>
<path transform="translate(707,577)" d="m0 0h3l3 4 4 2-2 2-5-1v-2l-3-1z" fill="#D2648D"/>
<path transform="translate(410,580)" d="m0 0h2l-1 6-1 2-4-1-1-3z" fill="#EFF6F8"/>
<path transform="translate(788,533)" d="m0 0 1 2 3 1v6l-4-1-2-4z" fill="#E5F2F4"/>
<path transform="translate(206,520)" d="m0 0 7 1 1 4h-4l-6-2v-2z" fill="#F6F9FA"/>
<path transform="translate(550,496)" d="m0 0 2 1-4 5-1 6 1 2-3 4v-13z" fill="#625040"/>
<path transform="translate(425,493)" d="m0 0 3 1-7 6-3 6-3 1-1-2 3-3 6-8z" fill="#814E20"/>
<path transform="translate(909,488)" d="m0 0h3l3 3 5 2v8l-2-2-2-4-2-1v-2l-5-2z" fill="#4F5055"/>
<path transform="translate(414,419)" d="m0 0 2 2-1 2 1 7h-5l2-10z" fill="#815020"/>
<path transform="translate(604,382)" d="m0 0 3 1 3 9-2 1v-2h-2l-2-3z" fill="#4F5055"/>
<path transform="translate(542,335)" d="m0 0 4 2-5 3h-11v-1l9-3z" fill="#815020"/>
<path transform="translate(522,681)" d="m0 0 5 1v5l-3 1-3-2z" fill="#4F5055"/>
<path transform="translate(706,587)" d="m0 0 3 1 2-1-1 4 6 2-4 1-8-3z" fill="#814E20"/>
<path transform="translate(716,572)" d="m0 0 2 1-1 3h2l3 3h3v2l-6 1-2-1v-4h-2z" fill="#C13263"/>
<path transform="translate(659,552)" d="m0 0h4l1 4-3 3 2 1-2 1-2-1-1 2-1-3 3-3-2-1z" fill="#4F5055"/>
<path transform="translate(413,524)" d="m0 0 3 2-3 10-3-1 2-6z" fill="#EFF6F8"/>
<path transform="translate(142,492)" d="m0 0 6 2 2 3-5 1-4-2z" fill="#B5DFE5"/>
<path transform="translate(160,577)" d="m0 0 6 2v-2h2l-2 5-3 1-4-2z" fill="#ADD9DF"/>
<path transform="translate(743,562)" d="m0 0m-2 1 7 2-2 1-5 1-1 4h-2l-2-4z" fill="#9E343A"/>
<path transform="translate(909,537)" d="m0 0 1 3h2v-2l2 1-2 4-3-1h-8l-1-3 6 1z" fill="#4F5055"/>
<path transform="translate(916,537)" d="m0 0 3 1-1 5-3 1-2-1 1-5z" fill="#E6F3F5"/>
<path transform="translate(801,511)" d="m0 0 5 2v2l5-1v2h-2l-1 2-9-3z" fill="#4F5055"/>
<path transform="translate(265,494)" d="m0 0 6 4 1 4-5-1-3-5z" fill="#C52A63"/>
<path transform="translate(587,415)" d="m0 0h2v2l8-2v2l-6 5-3-3z" fill="#815020"/>
<path transform="translate(628,405)" d="m0 0 12 1h7l-1 3-17-2z" fill="#815020"/>
<path transform="translate(405,395)" d="m0 0v3l-7 6-8 1 3-2 10-6z" fill="#4F5055"/>
<path transform="translate(531,363)" d="m0 0 5 5 6 7h-5l-2-5-4-2-1-2z" fill="#4F5055"/>
<path transform="translate(660,340)" d="m0 0 1 4-6 7-6 1 4-4 6-5z" fill="#F6F9FA"/>
<path transform="translate(508,324)" d="m0 0 3 1 1 5h2l-2-5 3 1v4l3 1-4 1-6-1 2-1z" fill="#74502D"/>
<path transform="translate(617,566)" d="m0 0h2v12l-3-3 1-5h-3v2h-2l1-3 3-1z" fill="#4F5055"/>
<path transform="translate(696,552)" d="m0 0 2 1-1 4h3v3h-3v3h-2v-10z" fill="#B8355D"/>
<path transform="translate(205,544)" d="m0 0h7l1 3-2 2-7-1z" fill="#F6F9FA"/>
<path transform="translate(690,510)" d="m0 0 4 2-3 7-3-1 1-6z" fill="#EEEEEB"/>
<path transform="translate(607,369)" d="m0 0 2 4 1 8-2-1v-6l-7 4 2-4z" fill="#4F5055"/>
<path transform="translate(519,270)" d="m0 0 7 6 2 4-2 3-2-1 1-4-4-2z" fill="#845527"/>
<path transform="translate(488,577)" d="m0 0 8 1 1 3-5 2-4-4z" fill="#845527"/>
<path transform="translate(231,569)" d="m0 0h7l1 5-9-1v-3z" fill="#8B392C"/>
<path transform="translate(110,540)" d="m0 0 4 2 9 6v2l-6-2-6-5z" fill="#AF9377"/>
<path transform="translate(260,544)" d="m0 0 6 1 1 4h-9z" fill="#F6F9FA"/>
<path transform="translate(703,532)" d="m0 0 3 4-2 7-2-4v-3l-3-1v2h-2v-4l6 1z" fill="#BA2657"/>
<path transform="translate(705,515)" d="m0 0 1 2 7-1-6 10h-2l2-6-2-2z" fill="#933B31"/>
<path transform="translate(756,517)" d="m0 0 1 4-3 3-1 3-1-3-3-1 1-4 5 1z" fill="#95333A"/>
<path transform="translate(312,518)" d="m0 0 4 1 1 4-5 1-2-2z" fill="#CCE8EC"/>
<path transform="translate(830,492)" d="m0 0 4 2-4 5-4 1v-4h3z" fill="#657176"/>
<path transform="translate(204,492)" d="m0 0h7l7 4 1 4-7-5-6-1-4-1z" fill="#815020"/>
<path transform="translate(374,400)" d="m0 0h5l3 1 9 1-4 2-9-1-4-2z" fill="#4F5055"/>
<path transform="translate(351,584)" d="m0 0h2l2 5-3 2h-3l-2-6h2v2l2-2z" fill="#815020"/>
<path transform="translate(233,573)" d="m0 0 6 1 1 2-1 2-10-1v-2h4z" fill="#F6F9FA"/>
<path transform="translate(746,569)" d="m0 0v3l-2 4h-1l-1 2-2-1-1-3 1-3 5-1z" fill="#B81E51"/>
<path transform="translate(751,566)" d="m0 0 4 2 2 2v6l-4-3z" fill="#A62244"/>
<path transform="translate(863,538)" d="m0 0h2l3 6v3l-7-5z" fill="#585A5F"/>
<path transform="translate(811,534)" d="m0 0 1 3-2 6 2 1v2l-4-1-1-4-3-2 6-1z" fill="#55595E"/>
<path transform="translate(404,537)" d="m0 0h8v3l-1 4-3-1 1-4-3 1-3-2z" fill="#DBEEF1"/>
<path transform="translate(750,507)" d="m0 0 4 5v2l-7-2v-4z" fill="#C86B87"/>
<path transform="translate(434,494)" d="m0 0h5v2l3 1v3h-4l-4-5z" fill="#6F6B71"/>
<path transform="translate(675,360)" d="m0 0 2 1-2 4-4 1-2 2h-2l1-3h2l1-3z" fill="#A7A5A1"/>
<path transform="translate(418,348)" d="m0 0 3 3 2 5 2 1h-7z" fill="#54555A"/>
<path transform="translate(547,325)" d="m0 0h2v2h2v2l-2 1v3l-2 1-1-5-2-1 3-1z" fill="#F1F3F2"/>
<path transform="translate(593,588)" d="m0 0 10 5 4 1v2l-9-2-5-5z" fill="#F6F9FA"/>
<path transform="translate(764,581)" d="m0 0 1 2h3l-1 9-2-1-1-3z" fill="#505053"/>
<path transform="translate(726,578)" d="m0 0 4 1 3 3-1 2h-5l-2-3z" fill="#A9294B"/>
<path transform="translate(896,564)" d="m0 0 4 2-1 5-5-2v-4z" fill="#E7F3F5"/>
<path transform="translate(869,559)" d="m0 0 1 2h2l1 3-3 3h-2l-1-5z" fill="#ECF5F6"/>
<path transform="translate(689,548)" d="m0 0 7 1-1 4-4 1v-2h-2v-2l-2-1z" fill="#C53468"/>
<path transform="translate(919,533)" d="m0 0h1v9l-2-4-4-1 3-1v-2zm-1 9m-1 1m-1 1 3 3h-3z" fill="#5B6065"/>
<path transform="translate(111,520)" d="m0 0h4l2 5h-2v2l-3-1v-3h-2z" fill="#F1F2F2"/>
<path transform="translate(694,505)" d="m0 0 3 1-1 6-5-1 2-5z" fill="#B93F64"/>
<path transform="translate(713,498)" d="m0 0 4 2-2 3h-2v2h-2v-2l-3-1 4-2z" fill="#B12851"/>
<path transform="translate(712,492)" d="m0 0h5l-4 3-5 2-7 1 3-3z" fill="#814B21"/>
<path transform="translate(599,378)" d="m0 0 2 1-2 1zm-1 2v3l-2 4-7 1v-2z" fill="#5A5655"/>
<path transform="translate(496,279)" d="m0 0 1 2-2 4-2 3 1 4h-2l-2-2 1-4 4-6z" fill="#815020"/>
<path transform="translate(466,569)" d="m0 0h3 1l5 1 1 2-7 2-3-3z" fill="#815020"/>
<path transform="translate(795,567)" d="m0 0 5 1-1 4-3 1-2-2z" fill="#EEF6F7"/>
<path transform="translate(252,565)" d="m0 0h2v2h5l-1 4-1-1h-7l1-4z" fill="#F6F9FA"/>
<path transform="translate(372,556)" d="m0 0h2l-1 7-2-2-4 1-1-3 5-2z" fill="#815020"/>
<path transform="translate(657,512)" d="m0 0 5 1-3 6-4-2-1-3z" fill="#E9F4F5"/>
<path transform="translate(211,496)" d="m0 0 4 1 2 4-1 3-3-1-3-6z" fill="#C3255E"/>
<path transform="translate(402,494)" d="m0 0 5 1 3 3-1 2-3 1-2-5h-2z" fill="#52555A"/>
<path transform="translate(845,486)" d="m0 0 2 4-4 3h-8l2-4 7 2z" fill="#4F5055"/>
<path transform="translate(474,422)" d="m0 0 2 1v3h4l-1 3h-6l-2-2z" fill="#855628"/>
<path transform="translate(512,377)" d="m0 0 4 1-1 5h-5z" fill="#F0E0E8"/>
<path transform="translate(615,338)" d="m0 0 2 1 1 2-2 4-4-1 1-5z" fill="#EEF6F7"/>
<path transform="translate(878,571)" d="m0 0 2 2v11l-2 2-1-14z" fill="#616B70"/>
<path transform="translate(873,564)" d="m0 0 3 3 1 5h-3v-2l-4-2v-2z" fill="#5F6267"/>
<path transform="translate(804,540)" d="m0 0 5 1-2 5-4-1z" fill="#F0F6F8"/>
<path transform="translate(347,530)" d="m0 0 3 1v2l2 1-2 1-1 13h-1z" fill="#815020"/>
<path transform="translate(860,525)" d="m0 0 2 2 2 7-1 4-5-10h2z" fill="#5A6065"/>
<path transform="translate(652,530)" d="m0 0 4 2-4 5-1-3h-2l1-3z" fill="#F6F9FA"/>
<path transform="translate(893,490)" d="m0 0 3 1v2l3-1v2h-2l-2 6h-2z" fill="#52555A"/>
<path transform="translate(588,366)" d="m0 0 2 1-2 6h-6z" fill="#4F5055"/>
<path transform="translate(455,320)" d="m0 0 2 3-1 7-2 5-2-3 2-5z" fill="#815020"/>
<path transform="translate(695,319)" d="m0 0h3 3l1 4-3 1v-3l-5 4-2-1z" fill="#7D6143"/>
<path transform="translate(550,319)" d="m0 0h2v5l-5 1-5-2 2-3 5 3z" fill="#815020"/>
</svg>
